{"glyphs":{"0":{"ha":1389,"x_min":0,"x_max":1215,"o":"m 521 174 l 868 174 l 868 868 l 694 868 l 694 1042 l 347 1042 l 347 347 l 521 347 l 521 174 m 174 174 l 0 174 l 0 1042 l 174 1042 l 174 1215 l 1042 1215 l 1042 1042 l 1215 1042 l 1215 174 l 1042 174 l 1042 0 l 174 0 l 174 174 z "},"1":{"ha":1389,"x_min":174,"x_max":1215,"o":"m 174 0 l 174 174 l 521 174 l 521 1042 l 174 1042 l 174 1215 l 868 1215 l 868 174 l 1215 174 l 1215 0 l 174 0 z "},"2":{"ha":1389,"x_min":0,"x_max":1215,"o":"m 0 0 l 0 347 l 174 347 l 174 521 l 347 521 l 347 694 l 694 694 l 694 868 l 868 868 l 868 1042 l 347 1042 l 347 868 l 0 868 l 0 1042 l 174 1042 l 174 1215 l 1042 1215 l 1042 1042 l 1215 1042 l 1215 868 l 1042 868 l 1042 694 l 868 694 l 868 521 l 521 521 l 521 347 l 347 347 l 347 174 l 1215 174 l 1215 0 l 0 0 z "},"3":{"ha":1389,"x_min":0,"x_max":1215,"o":"m 174 174 l 0 174 l 0 347 l 347 347 l 347 174 l 868 174 l 868 521 l 347 521 l 347 694 l 868 694 l 868 1042 l 347 1042 l 347 868 l 0 868 l 0 1042 l 174 1042 l 174 1215 l 1042 1215 l 1042 1042 l 1215 1042 l 1215 694 l 1042 694 l 1042 521 l 1215 521 l 1215 174 l 1042 174 l 1042 0 l 174 0 l 174 174 z "},"4":{"ha":1389,"x_min":0,"x_max":1215,"o":"m 868 521 l 868 1042 l 694 1042 l 694 868 l 521 868 l 521 694 l 347 694 l 347 521 l 868 521 m 0 347 l 0 694 l 174 694 l 174 868 l 347 868 l 347 1042 l 521 1042 l 521 1215 l 1215 1215 l 1215 0 l 868 0 l 868 347 l 0 347 z "},"5":{"ha":1389,"x_min":0,"x_max":1215,"o":"m 174 174 l 0 174 l 0 347 l 347 347 l 347 174 l 868 174 l 868 694 l 0 694 l 0 1215 l 1215 1215 l 1215 1042 l 347 1042 l 347 868 l 1042 868 l 1042 694 l 1215 694 l 1215 174 l 1042 174 l 1042 0 l 174 0 l 174 174 z "},"6":{"ha":1389,"x_min":0,"x_max":1215,"o":"m 347 174 l 868 174 l 868 521 l 347 521 l 347 174 m 868 1042 l 347 1042 l 347 694 l 1042 694 l 1042 521 l 1215 521 l 1215 174 l 1042 174 l 1042 0 l 174 0 l 174 174 l 0 174 l 0 1042 l 174 1042 l 174 1215 l 1042 1215 l 1042 1042 l 1215 1042 l 1215 868 l 868 868 l 868 1042 z "},"7":{"ha":1389,"x_min":0,"x_max":1215,"o":"m 347 1042 l 347 868 l 0 868 l 0 1215 l 1215 1215 l 1215 868 l 1042 868 l 1042 694 l 868 694 l 868 521 l 694 521 l 694 347 l 521 347 l 521 174 l 347 174 l 347 0 l 0 0 l 0 174 l 174 174 l 174 347 l 347 347 l 347 521 l 521 521 l 521 694 l 694 694 l 694 868 l 868 868 l 868 1042 l 347 1042 z "},"8":{"ha":1389,"x_min":0,"x_max":1215,"o":"m 868 521 l 347 521 l 347 174 l 868 174 l 868 521 m 868 1042 l 347 1042 l 347 694 l 868 694 l 868 1042 m 174 174 l 0 174 l 0 521 l 174 521 l 174 694 l 0 694 l 0 1042 l 174 1042 l 174 1215 l 1042 1215 l 1042 1042 l 1215 1042 l 1215 694 l 1042 694 l 1042 521 l 1215 521 l 1215 174 l 1042 174 l 1042 0 l 174 0 l 174 174 z "},"9":{"ha":1389,"x_min":0,"x_max":1215,"o":"m 868 1042 l 347 1042 l 347 694 l 868 694 l 868 1042 m 347 174 l 868 174 l 868 521 l 174 521 l 174 694 l 0 694 l 0 1042 l 174 1042 l 174 1215 l 1042 1215 l 1042 1042 l 1215 1042 l 1215 174 l 1042 174 l 1042 0 l 174 0 l 174 174 l 0 174 l 0 347 l 347 347 l 347 174 z "},"\u0000":{"ha":1389,"x_min":0,"x_max":1215,"o":"m 868 347 l 694 347 l 694 521 l 868 521 l 868 347 m 0 0 l 0 1215 l 1215 1215 l 1215 0 l 0 0 m 174 347 l 347 347 l 347 174 l 868 174 l 868 347 l 1042 347 l 1042 868 l 868 868 l 868 1042 l 347 1042 l 347 868 l 174 868 l 174 347 m 521 694 l 347 694 l 347 868 l 521 868 l 521 694 m 868 694 l 694 694 l 694 868 l 868 868 l 868 694 m 694 521 l 521 521 l 521 694 l 694 694 l 694 521 m 521 347 l 347 347 l 347 521 l 521 521 l 521 347 z "},"\u001d":{"ha":1389,"x_min":0,"x_max":1215,"o":"m 868 347 l 694 347 l 694 521 l 868 521 l 868 347 m 0 0 l 0 1215 l 1215 1215 l 1215 0 l 0 0 m 174 347 l 347 347 l 347 174 l 868 174 l 868 347 l 1042 347 l 1042 868 l 868 868 l 868 1042 l 347 1042 l 347 868 l 174 868 l 174 347 m 521 694 l 347 694 l 347 868 l 521 868 l 521 694 m 868 694 l 694 694 l 694 868 l 868 868 l 868 694 m 694 521 l 521 521 l 521 694 l 694 694 l 694 521 m 521 347 l 347 347 l 347 521 l 521 521 l 521 347 z "}," ":{"ha":1389,"x_min":0,"x_max":0,"o":""}," ":{"ha":1389,"x_min":0,"x_max":0,"o":""},"a":{"ha":1389,"x_min":0,"x_max":1215,"o":"m 174 174 l 0 174 l 0 347 l 174 347 l 174 521 l 868 521 l 868 694 l 174 694 l 174 868 l 1042 868 l 1042 694 l 1215 694 l 1215 0 l 174 0 l 174 174 m 347 174 l 868 174 l 868 347 l 347 347 l 347 174 z "},"b":{"ha":1389,"x_min":0,"x_max":1215,"o":"m 0 0 l 0 1215 l 347 1215 l 347 868 l 1042 868 l 1042 694 l 1215 694 l 1215 174 l 1042 174 l 1042 0 l 0 0 m 347 174 l 868 174 l 868 694 l 347 694 l 347 174 z "},"c":{"ha":1389,"x_min":0,"x_max":1215,"o":"m 174 174 l 0 174 l 0 694 l 174 694 l 174 868 l 1042 868 l 1042 694 l 1215 694 l 1215 521 l 868 521 l 868 694 l 347 694 l 347 174 l 868 174 l 868 347 l 1215 347 l 1215 174 l 1042 174 l 1042 0 l 174 0 l 174 174 z "},"d":{"ha":1389,"x_min":0,"x_max":1215,"o":"m 347 174 l 868 174 l 868 694 l 347 694 l 347 174 m 174 174 l 0 174 l 0 694 l 174 694 l 174 868 l 868 868 l 868 1215 l 1215 1215 l 1215 0 l 174 0 l 174 174 z "},"e":{"ha":1389,"x_min":0,"x_max":1215,"o":"m 868 521 l 868 694 l 347 694 l 347 521 l 868 521 m 174 174 l 0 174 l 0 694 l 174 694 l 174 868 l 1042 868 l 1042 694 l 1215 694 l 1215 347 l 347 347 l 347 174 l 1042 174 l 1042 0 l 174 0 l 174 174 z "},"f":{"ha":1389,"x_min":0,"x_max":1215,"o":"m 0 694 l 0 868 l 347 868 l 347 1215 l 1042 1215 l 1042 1042 l 694 1042 l 694 868 l 1215 868 l 1215 694 l 694 694 l 694 0 l 347 0 l 347 694 l 0 694 z "},"g":{"ha":1389,"x_min":0,"x_max":1215,"o":"m 868 521 l 868 694 l 347 694 l 347 521 l 868 521 m 174 521 l 0 521 l 0 694 l 174 694 l 174 868 l 1215 868 l 1215 174 l 1042 174 l 1042 0 l 174 0 l 174 174 l 868 174 l 868 347 l 174 347 l 174 521 z "},"h":{"ha":1389,"x_min":0,"x_max":1215,"o":"m 0 0 l 0 1215 l 347 1215 l 347 868 l 1042 868 l 1042 694 l 1215 694 l 1215 0 l 868 0 l 868 694 l 347 694 l 347 0 l 0 0 z "},"i":{"ha":1389,"x_min":0,"x_max":1215,"o":"m 0 0 l 0 174 l 521 174 l 521 694 l 174 694 l 174 868 l 868 868 l 868 174 l 1215 174 l 1215 0 l 0 0 m 521 1042 l 521 1215 l 868 1215 l 868 1042 l 521 1042 z "},"j":{"ha":1389,"x_min":0,"x_max":1215,"o":"m 174 174 l 0 174 l 0 347 l 347 347 l 347 174 l 868 174 l 868 868 l 1215 868 l 1215 174 l 1042 174 l 1042 0 l 174 0 l 174 174 m 1215 1215 l 1215 1042 l 868 1042 l 868 1215 l 1215 1215 z "},"k":{"ha":1389,"x_min":0,"x_max":1215,"o":"m 0 0 l 0 1215 l 347 1215 l 347 521 l 694 521 l 694 694 l 868 694 l 868 868 l 1215 868 l 1215 694 l 1042 694 l 1042 521 l 868 521 l 868 347 l 1042 347 l 1042 174 l 1215 174 l 1215 0 l 868 0 l 868 174 l 694 174 l 694 347 l 347 347 l 347 0 l 0 0 z "},"l":{"ha":1389,"x_min":0,"x_max":1215,"o":"m 174 347 l 0 347 l 0 1215 l 347 1215 l 347 347 l 694 347 l 694 174 l 1215 174 l 1215 0 l 521 0 l 521 174 l 174 174 l 174 347 z "},"m":{"ha":1389,"x_min":0,"x_max":1215,"o":"m 1042 694 l 1215 694 l 1215 0 l 868 0 l 868 694 l 694 694 l 694 0 l 521 0 l 521 694 l 347 694 l 347 0 l 0 0 l 0 868 l 1042 868 l 1042 694 z "},"n":{"ha":1389,"x_min":0,"x_max":1215,"o":"m 0 0 l 0 868 l 1042 868 l 1042 694 l 1215 694 l 1215 0 l 868 0 l 868 694 l 347 694 l 347 0 l 0 0 z "},"o":{"ha":1389,"x_min":0,"x_max":1215,"o":"m 174 174 l 0 174 l 0 694 l 174 694 l 174 868 l 1042 868 l 1042 694 l 1215 694 l 1215 174 l 1042 174 l 1042 0 l 174 0 l 174 174 m 868 694 l 347 694 l 347 174 l 868 174 l 868 694 z "},"p":{"ha":1389,"x_min":0,"x_max":1215,"o":"m 868 521 l 868 694 l 347 694 l 347 521 l 868 521 m 0 0 l 0 868 l 1042 868 l 1042 694 l 1215 694 l 1215 521 l 1042 521 l 1042 347 l 347 347 l 347 0 l 0 0 z "},"q":{"ha":1389,"x_min":0,"x_max":1215,"o":"m 347 521 l 868 521 l 868 694 l 347 694 l 347 521 m 1215 0 l 868 0 l 868 347 l 174 347 l 174 521 l 0 521 l 0 694 l 174 694 l 174 868 l 1215 868 l 1215 0 z "},"r":{"ha":1389,"x_min":0,"x_max":1215,"o":"m 0 0 l 0 868 l 347 868 l 347 694 l 521 694 l 521 521 l 347 521 l 347 0 l 0 0 m 1042 694 l 1215 694 l 1215 521 l 868 521 l 868 694 l 521 694 l 521 868 l 1042 868 l 1042 694 z "},"s":{"ha":1389,"x_min":0,"x_max":1215,"o":"m 0 0 l 0 174 l 868 174 l 868 347 l 0 347 l 0 694 l 174 694 l 174 868 l 1215 868 l 1215 694 l 347 694 l 347 521 l 1215 521 l 1215 174 l 1042 174 l 1042 0 l 0 0 z "},"t":{"ha":1389,"x_min":0,"x_max":1215,"o":"m 0 694 l 0 868 l 347 868 l 347 1215 l 694 1215 l 694 868 l 1215 868 l 1215 694 l 694 694 l 694 174 l 1215 174 l 1215 0 l 347 0 l 347 694 l 0 694 z "},"u":{"ha":1389,"x_min":0,"x_max":1215,"o":"m 174 174 l 0 174 l 0 868 l 347 868 l 347 174 l 868 174 l 868 868 l 1215 868 l 1215 174 l 1042 174 l 1042 0 l 174 0 l 174 174 z "},"v":{"ha":1389,"x_min":0,"x_max":1215,"o":"m 174 521 l 0 521 l 0 868 l 347 868 l 347 521 l 521 521 l 521 347 l 694 347 l 694 521 l 868 521 l 868 868 l 1215 868 l 1215 521 l 1042 521 l 1042 347 l 868 347 l 868 174 l 694 174 l 694 0 l 521 0 l 521 174 l 347 174 l 347 347 l 174 347 l 174 521 z "},"w":{"ha":1389,"x_min":0,"x_max":1215,"o":"m 521 174 l 521 0 l 174 0 l 174 174 l 0 174 l 0 868 l 347 868 l 347 347 l 521 347 l 521 694 l 694 694 l 694 347 l 868 347 l 868 868 l 1215 868 l 1215 174 l 1042 174 l 1042 0 l 694 0 l 694 174 l 521 174 z "},"x":{"ha":1389,"x_min":0,"x_max":1215,"o":"m 0 0 l 0 174 l 174 174 l 174 347 l 347 347 l 347 521 l 174 521 l 174 694 l 0 694 l 0 868 l 521 868 l 521 694 l 694 694 l 694 868 l 1215 868 l 1215 694 l 1042 694 l 1042 521 l 868 521 l 868 347 l 1042 347 l 1042 174 l 1215 174 l 1215 0 l 694 0 l 694 174 l 521 174 l 521 0 l 0 0 z "},"y":{"ha":1389,"x_min":0,"x_max":1215,"o":"m 0 0 l 0 174 l 347 174 l 347 347 l 174 347 l 174 521 l 0 521 l 0 868 l 347 868 l 347 521 l 521 521 l 521 347 l 694 347 l 694 521 l 868 521 l 868 868 l 1215 868 l 1215 521 l 1042 521 l 1042 347 l 868 347 l 868 174 l 694 174 l 694 0 l 0 0 z "},"z":{"ha":1389,"x_min":0,"x_max":1215,"o":"m 0 0 l 0 174 l 174 174 l 174 347 l 347 347 l 347 521 l 521 521 l 521 694 l 0 694 l 0 868 l 1215 868 l 1215 694 l 1042 694 l 1042 521 l 868 521 l 868 347 l 694 347 l 694 174 l 1215 174 l 1215 0 l 0 0 z "},"A":{"ha":1389,"x_min":0,"x_max":1215,"o":"m 868 521 l 868 868 l 694 868 l 694 1042 l 521 1042 l 521 868 l 347 868 l 347 521 l 868 521 m 0 0 l 0 868 l 174 868 l 174 1042 l 347 1042 l 347 1215 l 868 1215 l 868 1042 l 1042 1042 l 1042 868 l 1215 868 l 1215 0 l 868 0 l 868 347 l 347 347 l 347 0 l 0 0 z "},"B":{"ha":1389,"x_min":0,"x_max":1215,"o":"m 347 694 l 868 694 l 868 1042 l 347 1042 l 347 694 m 1042 521 l 1215 521 l 1215 174 l 1042 174 l 1042 0 l 0 0 l 0 1215 l 1042 1215 l 1042 1042 l 1215 1042 l 1215 694 l 1042 694 l 1042 521 m 868 174 l 868 521 l 347 521 l 347 174 l 868 174 z "},"C":{"ha":1389,"x_min":0,"x_max":1215,"o":"m 174 174 l 0 174 l 0 1042 l 174 1042 l 174 1215 l 1042 1215 l 1042 1042 l 1215 1042 l 1215 868 l 868 868 l 868 1042 l 347 1042 l 347 174 l 868 174 l 868 347 l 1215 347 l 1215 174 l 1042 174 l 1042 0 l 174 0 l 174 174 z "},"D":{"ha":1389,"x_min":0,"x_max":1215,"o":"m 694 174 l 694 347 l 868 347 l 868 868 l 694 868 l 694 1042 l 347 1042 l 347 174 l 694 174 m 868 174 l 868 0 l 0 0 l 0 1215 l 868 1215 l 868 1042 l 1042 1042 l 1042 868 l 1215 868 l 1215 347 l 1042 347 l 1042 174 l 868 174 z "},"E":{"ha":1389,"x_min":0,"x_max":1215,"o":"m 0 0 l 0 1215 l 1215 1215 l 1215 1042 l 347 1042 l 347 694 l 868 694 l 868 521 l 347 521 l 347 174 l 1215 174 l 1215 0 l 0 0 z "},"F":{"ha":1389,"x_min":0,"x_max":1215,"o":"m 0 0 l 0 1215 l 1215 1215 l 1215 1042 l 347 1042 l 347 694 l 868 694 l 868 521 l 347 521 l 347 0 l 0 0 z "},"G":{"ha":1389,"x_min":0,"x_max":1215,"o":"m 174 174 l 0 174 l 0 1042 l 174 1042 l 174 1215 l 1215 1215 l 1215 1042 l 347 1042 l 347 174 l 868 174 l 868 521 l 521 521 l 521 694 l 1215 694 l 1215 0 l 174 0 l 174 174 z "},"H":{"ha":1389,"x_min":0,"x_max":1215,"o":"m 0 0 l 0 1215 l 347 1215 l 347 694 l 868 694 l 868 1215 l 1215 1215 l 1215 0 l 868 0 l 868 521 l 347 521 l 347 0 l 0 0 z "},"I":{"ha":1389,"x_min":174,"x_max":1215,"o":"m 174 0 l 174 174 l 521 174 l 521 1042 l 174 1042 l 174 1215 l 1215 1215 l 1215 1042 l 868 1042 l 868 174 l 1215 174 l 1215 0 l 174 0 z "},"J":{"ha":1389,"x_min":0,"x_max":1215,"o":"m 174 174 l 0 174 l 0 521 l 347 521 l 347 174 l 868 174 l 868 1042 l 521 1042 l 521 1215 l 1215 1215 l 1215 174 l 1042 174 l 1042 0 l 174 0 l 174 174 z "},"K":{"ha":1389,"x_min":0,"x_max":1215,"o":"m 0 0 l 0 1215 l 347 1215 l 347 694 l 521 694 l 521 868 l 694 868 l 694 1042 l 868 1042 l 868 1215 l 1215 1215 l 1215 1042 l 1042 1042 l 1042 868 l 868 868 l 868 694 l 694 694 l 694 521 l 868 521 l 868 347 l 1042 347 l 1042 174 l 1215 174 l 1215 0 l 868 0 l 868 174 l 694 174 l 694 347 l 521 347 l 521 521 l 347 521 l 347 0 l 0 0 z "},"L":{"ha":1389,"x_min":0,"x_max":1215,"o":"m 0 0 l 0 1215 l 347 1215 l 347 174 l 1215 174 l 1215 0 l 0 0 z "},"M":{"ha":1389,"x_min":0,"x_max":1215,"o":"m 0 0 l 0 1215 l 347 1215 l 347 1042 l 521 1042 l 521 868 l 694 868 l 694 1042 l 868 1042 l 868 1215 l 1215 1215 l 1215 0 l 868 0 l 868 694 l 694 694 l 694 521 l 521 521 l 521 694 l 347 694 l 347 0 l 0 0 z "},"N":{"ha":1389,"x_min":0,"x_max":1215,"o":"m 0 0 l 0 1215 l 347 1215 l 347 1042 l 521 1042 l 521 868 l 694 868 l 694 694 l 868 694 l 868 1215 l 1215 1215 l 1215 0 l 868 0 l 868 347 l 694 347 l 694 521 l 521 521 l 521 694 l 347 694 l 347 0 l 0 0 z "},"O":{"ha":1389,"x_min":0,"x_max":1215,"o":"m 174 174 l 0 174 l 0 1042 l 174 1042 l 174 1215 l 1042 1215 l 1042 1042 l 1215 1042 l 1215 174 l 1042 174 l 1042 0 l 174 0 l 174 174 m 347 174 l 868 174 l 868 1042 l 347 1042 l 347 174 z "},"P":{"ha":1389,"x_min":0,"x_max":1215,"o":"m 1042 1042 l 1215 1042 l 1215 694 l 1042 694 l 1042 521 l 347 521 l 347 0 l 0 0 l 0 1215 l 1042 1215 l 1042 1042 m 868 694 l 868 1042 l 347 1042 l 347 694 l 868 694 z "},"Q":{"ha":1389,"x_min":0,"x_max":1215,"o":"m 694 347 l 521 347 l 521 521 l 868 521 l 868 1042 l 347 1042 l 347 174 l 694 174 l 694 347 m 1215 0 l 1042 0 l 1042 174 l 1215 174 l 1215 0 m 868 174 l 868 0 l 174 0 l 174 174 l 0 174 l 0 1042 l 174 1042 l 174 1215 l 1042 1215 l 1042 1042 l 1215 1042 l 1215 347 l 1042 347 l 1042 174 l 868 174 z "},"R":{"ha":1389,"x_min":0,"x_max":1215,"o":"m 0 0 l 0 1215 l 1042 1215 l 1042 1042 l 1215 1042 l 1215 694 l 1042 694 l 1042 521 l 868 521 l 868 347 l 1042 347 l 1042 174 l 1215 174 l 1215 0 l 868 0 l 868 174 l 694 174 l 694 347 l 521 347 l 521 521 l 347 521 l 347 0 l 0 0 m 347 694 l 868 694 l 868 1042 l 347 1042 l 347 694 z "},"S":{"ha":1389,"x_min":0,"x_max":1215,"o":"m 174 174 l 0 174 l 0 347 l 347 347 l 347 174 l 868 174 l 868 521 l 174 521 l 174 694 l 0 694 l 0 1042 l 174 1042 l 174 1215 l 1042 1215 l 1042 1042 l 1215 1042 l 1215 868 l 868 868 l 868 1042 l 347 1042 l 347 694 l 1042 694 l 1042 521 l 1215 521 l 1215 174 l 1042 174 l 1042 0 l 174 0 l 174 174 z "},"T":{"ha":1389,"x_min":174,"x_max":1215,"o":"m 174 1042 l 174 1215 l 1215 1215 l 1215 1042 l 868 1042 l 868 0 l 521 0 l 521 1042 l 174 1042 z "},"U":{"ha":1389,"x_min":0,"x_max":1215,"o":"m 174 174 l 0 174 l 0 1215 l 347 1215 l 347 174 l 868 174 l 868 1215 l 1215 1215 l 1215 174 l 1042 174 l 1042 0 l 174 0 l 174 174 z "},"V":{"ha":1389,"x_min":0,"x_max":1215,"o":"m 174 521 l 0 521 l 0 1215 l 347 1215 l 347 521 l 521 521 l 521 347 l 694 347 l 694 521 l 868 521 l 868 1215 l 1215 1215 l 1215 521 l 1042 521 l 1042 347 l 868 347 l 868 174 l 694 174 l 694 0 l 521 0 l 521 174 l 347 174 l 347 347 l 174 347 l 174 521 z "},"W":{"ha":1389,"x_min":0,"x_max":1215,"o":"m 1215 1215 l 1215 0 l 868 0 l 868 347 l 694 347 l 694 521 l 521 521 l 521 347 l 347 347 l 347 0 l 0 0 l 0 1215 l 347 1215 l 347 694 l 521 694 l 521 868 l 694 868 l 694 694 l 868 694 l 868 1215 l 1215 1215 z "},"X":{"ha":1389,"x_min":0,"x_max":1215,"o":"m 0 0 l 0 347 l 174 347 l 174 521 l 347 521 l 347 694 l 174 694 l 174 868 l 0 868 l 0 1215 l 347 1215 l 347 1042 l 521 1042 l 521 868 l 694 868 l 694 1042 l 868 1042 l 868 1215 l 1215 1215 l 1215 868 l 1042 868 l 1042 694 l 868 694 l 868 521 l 1042 521 l 1042 347 l 1215 347 l 1215 0 l 868 0 l 868 174 l 694 174 l 694 347 l 521 347 l 521 174 l 347 174 l 347 0 l 0 0 z "},"Y":{"ha":1389,"x_min":174,"x_max":1215,"o":"m 347 694 l 174 694 l 174 1215 l 521 1215 l 521 694 l 868 694 l 868 1215 l 1215 1215 l 1215 694 l 1042 694 l 1042 521 l 868 521 l 868 0 l 521 0 l 521 521 l 347 521 l 347 694 z "},"Z":{"ha":1389,"x_min":0,"x_max":1215,"o":"m 0 0 l 0 347 l 174 347 l 174 521 l 347 521 l 347 694 l 521 694 l 521 868 l 694 868 l 694 1042 l 0 1042 l 0 1215 l 1215 1215 l 1215 868 l 1042 868 l 1042 694 l 868 694 l 868 521 l 694 521 l 694 347 l 521 347 l 521 174 l 1215 174 l 1215 0 l 0 0 z "},".":{"ha":1389,"x_min":347,"x_max":694,"o":"m 347 0 l 347 347 l 694 347 l 694 0 l 347 0 z "},":":{"ha":1389,"x_min":347,"x_max":694,"o":"m 347 0 l 347 347 l 694 347 l 694 0 l 347 0 m 347 521 l 347 868 l 694 868 l 694 521 l 347 521 z "},",":{"ha":1389,"x_min":347,"x_max":694,"o":"m 521 0 l 347 0 l 347 174 l 521 174 l 521 0 m 694 174 l 521 174 l 521 347 l 347 347 l 347 694 l 694 694 l 694 174 z "},";":{"ha":1389,"x_min":347,"x_max":694,"o":"m 694 0 l 521 0 l 521 174 l 347 174 l 347 347 l 694 347 l 694 0 m 347 521 l 347 868 l 694 868 l 694 521 l 347 521 z "},"'":{"ha":1389,"x_min":347,"x_max":694,"o":"m 521 521 l 347 521 l 347 694 l 521 694 l 521 521 m 521 868 l 347 868 l 347 1215 l 694 1215 l 694 694 l 521 694 l 521 868 z "},"\"":{"ha":1389,"x_min":174,"x_max":1042,"o":"m 347 521 l 174 521 l 174 694 l 347 694 l 347 521 m 868 868 l 694 868 l 694 1215 l 1042 1215 l 1042 694 l 868 694 l 868 868 m 868 521 l 694 521 l 694 694 l 868 694 l 868 521 m 347 868 l 174 868 l 174 1215 l 521 1215 l 521 694 l 347 694 l 347 868 z "},"(":{"ha":1389,"x_min":174,"x_max":1042,"o":"m 1042 174 l 1042 0 l 521 0 l 521 174 l 347 174 l 347 347 l 174 347 l 174 868 l 347 868 l 347 1042 l 521 1042 l 521 1215 l 1042 1215 l 1042 1042 l 694 1042 l 694 868 l 521 868 l 521 347 l 694 347 l 694 174 l 1042 174 z "},"!":{"ha":1389,"x_min":174,"x_max":868,"o":"m 347 0 l 347 174 l 694 174 l 694 0 l 347 0 m 347 347 l 347 521 l 174 521 l 174 1042 l 347 1042 l 347 1215 l 694 1215 l 694 1042 l 868 1042 l 868 521 l 694 521 l 694 347 l 347 347 z "},"?":{"ha":1389,"x_min":0,"x_max":1215,"o":"m 347 0 l 347 174 l 694 174 l 694 0 l 347 0 m 0 868 l 0 1042 l 174 1042 l 174 1215 l 1042 1215 l 1042 1042 l 1215 1042 l 1215 694 l 1042 694 l 1042 521 l 694 521 l 694 347 l 347 347 l 347 694 l 868 694 l 868 1042 l 347 1042 l 347 868 l 0 868 z "},")":{"ha":1389,"x_min":174,"x_max":1042,"o":"m 174 174 l 521 174 l 521 347 l 694 347 l 694 868 l 521 868 l 521 1042 l 174 1042 l 174 1215 l 694 1215 l 694 1042 l 868 1042 l 868 868 l 1042 868 l 1042 347 l 868 347 l 868 174 l 694 174 l 694 0 l 174 0 l 174 174 z "},"+":{"ha":1389,"x_min":174,"x_max":1042,"o":"m 694 0 l 521 0 l 521 347 l 174 347 l 174 521 l 521 521 l 521 868 l 694 868 l 694 521 l 1042 521 l 1042 347 l 694 347 l 694 0 z "},"-":{"ha":1389,"x_min":174,"x_max":1042,"o":"m 1042 521 l 1042 347 l 174 347 l 174 521 l 1042 521 z "},"*":{"ha":1389,"x_min":174,"x_max":1042,"o":"m 174 694 l 174 868 l 347 868 l 347 1042 l 174 1042 l 174 1215 l 521 1215 l 521 1042 l 694 1042 l 694 1215 l 1042 1215 l 1042 1042 l 868 1042 l 868 868 l 1042 868 l 1042 694 l 694 694 l 694 868 l 521 868 l 521 694 l 174 694 z "},"/":{"ha":1389,"x_min":0,"x_max":1042,"o":"m 174 174 l 174 0 l 0 0 l 0 347 l 174 347 l 174 521 l 347 521 l 347 694 l 521 694 l 521 868 l 694 868 l 694 1042 l 868 1042 l 868 1215 l 1042 1215 l 1042 868 l 868 868 l 868 694 l 694 694 l 694 521 l 521 521 l 521 347 l 347 347 l 347 174 l 174 174 z "},"=":{"ha":1389,"x_min":174,"x_max":1042,"o":"m 174 174 l 174 347 l 1042 347 l 1042 174 l 174 174 m 174 521 l 174 694 l 1042 694 l 1042 521 l 174 521 z "},"\\":{"ha":1389,"x_min":174,"x_max":1215,"o":"m 1042 174 l 868 174 l 868 347 l 694 347 l 694 521 l 521 521 l 521 694 l 347 694 l 347 868 l 174 868 l 174 1215 l 346 1215 l 347 1042 l 521 1042 l 521 868 l 694 868 l 694 694 l 868 694 l 868 521 l 1042 521 l 1042 347 l 1215 347 l 1215 0 l 1040 0 l 1042 174 z "},"_":{"ha":1389,"x_min":0,"x_max":1215,"o":"m 0 0 l 0 174 l 1215 174 l 1215 0 l 0 0 z "},"[":{"ha":1389,"x_min":174,"x_max":1042,"o":"m 174 0 l 174 1215 l 1042 1215 l 1042 1042 l 521 1042 l 521 174 l 1042 174 l 1042 0 l 174 0 z "},"]":{"ha":1389,"x_min":174,"x_max":1042,"o":"m 1042 0 l 174 0 l 174 174 l 694 174 l 694 1042 l 174 1042 l 174 1215 l 1042 1215 l 1042 0 z "},"{":{"ha":1389,"x_min":174,"x_max":1042,"o":"m 1042 174 l 1042 0 l 521 0 l 521 174 l 347 174 l 347 521 l 174 521 l 174 694 l 347 694 l 347 1042 l 521 1042 l 521 1215 l 1042 1215 l 1042 1042 l 694 1042 l 694 174 l 1042 174 z "},"}":{"ha":1389,"x_min":174,"x_max":1042,"o":"m 174 174 l 521 174 l 521 1042 l 174 1042 l 174 1215 l 694 1215 l 694 1042 l 868 1042 l 868 694 l 1042 694 l 1042 521 l 868 521 l 868 174 l 694 174 l 694 0 l 174 0 l 174 174 z "},"|":{"ha":1389,"x_min":347,"x_max":694,"o":"m 694 0 l 347 0 l 347 1215 l 694 1215 l 694 0 z "},"#":{"ha":1389,"x_min":0,"x_max":1215,"o":"m 174 174 l 0 174 l 0 347 l 174 347 l 174 868 l 0 868 l 0 1042 l 174 1042 l 174 1215 l 521 1215 l 521 1042 l 694 1042 l 694 1215 l 1042 1215 l 1042 1042 l 1215 1042 l 1215 868 l 1042 868 l 1042 347 l 1215 347 l 1215 174 l 1042 174 l 1042 0 l 694 0 l 694 174 l 521 174 l 521 0 l 174 0 l 174 174 m 521 347 l 694 347 l 694 868 l 521 868 l 521 347 z "},"$":{"ha":1389,"x_min":0,"x_max":1215,"o":"m 694 347 l 868 347 l 868 521 l 694 521 l 694 347 m 521 694 l 521 868 l 347 868 l 347 694 l 521 694 m 694 174 l 694 0 l 521 0 l 521 174 l 0 174 l 0 347 l 521 347 l 521 521 l 174 521 l 174 694 l 0 694 l 0 868 l 174 868 l 174 1042 l 521 1042 l 521 1215 l 694 1215 l 694 1042 l 1215 1042 l 1215 868 l 694 868 l 694 694 l 1042 694 l 1042 521 l 1215 521 l 1215 347 l 1042 347 l 1042 174 l 694 174 z "},"%":{"ha":1389,"x_min":0,"x_max":1215,"o":"m 347 174 l 347 0 l 0 0 l 0 174 l 174 174 l 174 347 l 347 347 l 347 521 l 521 521 l 521 694 l 694 694 l 694 868 l 868 868 l 868 1042 l 1042 1042 l 1042 1215 l 1215 1215 l 1215 868 l 1042 868 l 1042 694 l 868 694 l 868 521 l 694 521 l 694 347 l 521 347 l 521 174 l 347 174 m 174 868 l 0 868 l 0 1042 l 174 1042 l 174 868 m 1042 0 l 868 0 l 868 174 l 1042 174 l 1042 0 m 868 174 l 694 174 l 694 347 l 868 347 l 868 174 m 1215 174 l 1042 174 l 1042 347 l 1215 347 l 1215 174 m 1042 347 l 868 347 l 868 521 l 1042 521 l 1042 347 m 347 694 l 174 694 l 174 868 l 347 868 l 347 694 m 521 868 l 347 868 l 347 1042 l 521 1042 l 521 868 m 347 1042 l 174 1042 l 174 1215 l 347 1215 l 347 1042 z "},"&":{"ha":1389,"x_min":0,"x_max":1215,"o":"m 347 868 l 521 868 l 521 1042 l 347 1042 l 347 868 m 347 174 l 868 174 l 868 347 l 694 347 l 694 521 l 521 521 l 521 694 l 347 694 l 347 174 m 174 174 l 0 174 l 0 694 l 174 694 l 174 868 l 0 868 l 0 1042 l 174 1042 l 174 1215 l 694 1215 l 694 1042 l 868 1042 l 868 868 l 694 868 l 694 694 l 868 694 l 868 521 l 1042 521 l 1042 694 l 1215 694 l 1215 174 l 1042 174 l 1042 0 l 174 0 l 174 174 z "},"<":{"ha":1389,"x_min":174,"x_max":1042,"o":"m 521 0 l 521 174 l 347 174 l 347 347 l 174 347 l 174 521 l 347 521 l 347 694 l 521 694 l 521 868 l 1042 868 l 1042 694 l 868 694 l 868 521 l 694 521 l 694 347 l 868 347 l 868 174 l 1042 174 l 1042 0 l 521 0 z "},">":{"ha":1389,"x_min":174,"x_max":1042,"o":"m 694 0 l 174 0 l 174 174 l 347 174 l 347 347 l 521 347 l 521 521 l 347 521 l 347 694 l 174 694 l 174 868 l 694 868 l 694 694 l 868 694 l 868 521 l 1042 521 l 1042 347 l 868 347 l 868 174 l 694 174 l 694 0 z "},"^":{"ha":1389,"x_min":0,"x_max":1215,"o":"m 0 521 l 0 694 l 174 694 l 174 868 l 347 868 l 347 1042 l 521 1042 l 521 1215 l 694 1215 l 694 1042 l 868 1042 l 868 868 l 1042 868 l 1042 694 l 1215 694 l 1215 521 l 868 521 l 868 694 l 694 694 l 694 868 l 521 868 l 521 694 l 347 694 l 347 521 l 0 521 z "},"@":{"ha":1389,"x_min":0,"x_max":1215,"o":"m 174 174 l 0 174 l 0 1042 l 174 1042 l 174 1215 l 1042 1215 l 1042 1042 l 1215 1042 l 1215 521 l 1042 521 l 1042 347 l 521 347 l 521 868 l 694 868 l 694 521 l 868 521 l 868 1042 l 347 1042 l 347 174 l 1042 174 l 1042 0 l 174 0 l 174 174 z "},"~":{"ha":1389,"x_min":0,"x_max":1215,"o":"m 0 174 l 0 521 l 174 521 l 174 694 l 694 694 l 694 347 l 868 347 l 868 694 l 1215 694 l 1215 347 l 1042 347 l 1042 174 l 521 174 l 521 521 l 347 521 l 347 174 l 0 174 z "},"¡":{"ha":1389,"x_min":174,"x_max":868,"o":"m 694 1215 l 694 1042 l 347 1042 l 347 1215 l 694 1215 m 694 868 l 694 694 l 868 694 l 868 174 l 694 174 l 694 0 l 347 0 l 347 174 l 174 174 l 174 694 l 347 694 l 347 868 l 694 868 z "},"¿":{"ha":1389,"x_min":0,"x_max":1215,"o":"m 868 1215 l 868 1042 l 521 1042 l 521 1215 l 868 1215 m 1215 347 l 1215 174 l 1042 174 l 1042 0 l 174 0 l 174 174 l 0 174 l 0 521 l 174 521 l 174 694 l 521 694 l 521 868 l 868 868 l 868 521 l 347 521 l 347 174 l 868 174 l 868 347 l 1215 347 z "},"«":{"ha":1389,"x_min":0,"x_max":1215,"o":"m 1042 174 l 1215 174 l 1215 0 l 868 0 l 868 174 l 694 174 l 694 347 l 521 347 l 521 521 l 694 521 l 694 694 l 868 694 l 868 868 l 1215 868 l 1215 694 l 1042 694 l 1042 521 l 868 521 l 868 347 l 1042 347 l 1042 174 m 174 347 l 0 347 l 0 521 l 174 521 l 174 694 l 347 694 l 347 868 l 694 868 l 694 694 l 521 694 l 521 521 l 347 521 l 347 347 l 521 347 l 521 174 l 694 174 l 694 0 l 347 0 l 347 174 l 174 174 l 174 347 z "},"»":{"ha":1389,"x_min":0,"x_max":1215,"o":"m 174 174 l 174 347 l 347 347 l 347 521 l 174 521 l 174 694 l 0 694 l 0 868 l 347 868 l 347 694 l 521 694 l 521 521 l 694 521 l 694 347 l 521 347 l 521 174 l 347 174 l 347 0 l 0 0 l 0 174 l 174 174 m 1042 347 l 1042 174 l 868 174 l 868 0 l 521 0 l 521 174 l 694 174 l 694 347 l 868 347 l 868 521 l 694 521 l 694 694 l 521 694 l 521 868 l 868 868 l 868 694 l 1042 694 l 1042 521 l 1215 521 l 1215 347 l 1042 347 z "},"°":{"ha":1389,"x_min":0,"x_max":1215,"o":"m 694 1042 l 347 1042 l 347 694 l 521 694 l 521 521 l 868 521 l 868 868 l 694 868 l 694 1042 m 174 521 l 0 521 l 0 1042 l 174 1042 l 174 1215 l 1042 1215 l 1042 1042 l 1215 1042 l 1215 521 l 1042 521 l 1042 347 l 174 347 l 174 521 z "},"©":{"ha":1389,"x_min":0,"x_max":1215,"o":"m 174 174 l 0 174 l 0 1042 l 174 1042 l 174 174 m 1042 1215 l 1042 1042 l 174 1042 l 174 1215 l 1042 1215 m 1215 174 l 1042 174 l 1042 1042 l 1215 1042 l 1215 174 m 868 521 l 868 347 l 347 347 l 347 868 l 868 868 l 868 694 l 521 694 l 521 521 l 868 521 m 174 0 l 174 174 l 1042 174 l 1042 0 l 174 0 z "},"¶":{"ha":1389,"x_min":0,"x_max":1215,"o":"m 174 694 l 0 694 l 0 868 l 174 868 l 174 1042 l 347 1042 l 347 1215 l 1215 1215 l 1215 1042 l 1042 1042 l 1042 0 l 868 0 l 868 1042 l 694 1042 l 694 0 l 521 0 l 521 347 l 347 347 l 347 521 l 174 521 l 174 694 z "},"¢":{"ha":1389,"x_min":0,"x_max":1215,"o":"m 521 174 l 174 174 l 174 347 l 0 347 l 0 868 l 174 868 l 174 1042 l 521 1042 l 521 1215 l 694 1215 l 694 1042 l 1042 1042 l 1042 868 l 1215 868 l 1215 694 l 868 694 l 868 868 l 694 868 l 694 347 l 868 347 l 868 521 l 1215 521 l 1215 347 l 1042 347 l 1042 174 l 694 174 l 694 0 l 521 0 l 521 174 m 521 868 l 347 868 l 347 347 l 521 347 l 521 868 z "},"×":{"ha":1389,"x_min":174,"x_max":1042,"o":"m 1042 694 l 868 694 l 868 868 l 1042 868 l 1042 694 m 1042 0 l 868 0 l 868 174 l 1042 174 l 1042 0 m 347 0 l 174 0 l 174 174 l 347 174 l 347 0 m 347 694 l 174 694 l 174 868 l 347 868 l 347 694 m 521 521 l 347 521 l 347 694 l 521 694 l 521 521 m 694 347 l 521 347 l 521 521 l 694 521 l 694 347 m 521 174 l 347 174 l 347 347 l 521 347 l 521 174 m 868 174 l 694 174 l 694 347 l 868 347 l 868 174 m 868 521 l 694 521 l 694 694 l 868 694 l 868 521 z "},"÷":{"ha":1389,"x_min":174,"x_max":1042,"o":"m 1042 521 l 1042 347 l 174 347 l 174 521 l 1042 521 m 521 0 l 521 174 l 694 174 l 694 0 l 521 0 m 521 694 l 521 868 l 694 868 l 694 694 l 521 694 z "},"£":{"ha":1389,"x_min":0,"x_max":1215,"o":"m 0 0 l 0 174 l 174 174 l 174 521 l 0 521 l 0 694 l 174 694 l 174 1042 l 347 1042 l 347 1215 l 1042 1215 l 1042 1042 l 1215 1042 l 1215 694 l 1042 694 l 1042 868 l 868 868 l 868 1042 l 521 1042 l 521 694 l 868 694 l 868 521 l 521 521 l 521 174 l 1215 174 l 1215 0 l 0 0 z "},"₽":{"ha":1389,"x_min":0,"x_max":1215,"o":"m 868 694 l 868 1042 l 521 1042 l 521 694 l 868 694 m 174 521 l 0 521 l 0 694 l 174 694 l 174 1215 l 1042 1215 l 1042 1042 l 1215 1042 l 1215 694 l 1042 694 l 1042 521 l 521 521 l 521 347 l 1042 347 l 1042 174 l 521 174 l 521 0 l 174 0 l 174 174 l 0 174 l 0 347 l 174 347 l 174 521 z "},"₸":{"ha":1389,"x_min":0,"x_max":1215,"o":"m 0 694 l 0 868 l 1215 868 l 1215 694 l 868 694 l 868 0 l 347 0 l 347 694 l 0 694 m 0 1042 l 0 1215 l 1215 1215 l 1215 1042 l 0 1042 z "},"₵":{"ha":1389,"x_min":0,"x_max":1215,"o":"m 521 174 l 174 174 l 174 347 l 0 347 l 0 868 l 174 868 l 174 1042 l 521 1042 l 521 1215 l 694 1215 l 694 1042 l 1042 1042 l 1042 868 l 1215 868 l 1215 694 l 868 694 l 868 868 l 694 868 l 694 347 l 868 347 l 868 521 l 1215 521 l 1215 347 l 1042 347 l 1042 174 l 694 174 l 694 0 l 521 0 l 521 174 m 521 868 l 347 868 l 347 347 l 521 347 l 521 868 z "},"€":{"ha":1389,"x_min":0,"x_max":1215,"o":"m 521 347 l 521 174 l 1215 174 l 1215 0 l 347 0 l 347 174 l 174 174 l 174 347 l 0 347 l 0 521 l 174 521 l 174 694 l 0 694 l 0 868 l 174 868 l 174 1042 l 347 1042 l 347 1215 l 1215 1215 l 1215 1042 l 521 1042 l 521 868 l 868 868 l 868 694 l 521 694 l 521 521 l 868 521 l 868 347 l 521 347 z "},"₪":{"ha":1389,"x_min":0,"x_max":1215,"o":"m 868 347 l 694 347 l 694 1042 l 868 1042 l 868 347 m 174 0 l 0 0 l 0 1215 l 694 1215 l 694 1042 l 174 1042 l 174 0 m 1042 174 l 1042 0 l 347 0 l 347 868 l 521 868 l 521 174 l 1042 174 m 1215 174 l 1042 174 l 1042 1215 l 1215 1215 l 1215 174 z "},"₠":{"ha":1389,"x_min":0,"x_max":1215,"o":"m 174 521 l 0 521 l 0 1042 l 174 1042 l 174 1215 l 694 1215 l 694 1042 l 347 1042 l 347 521 l 521 521 l 521 868 l 1215 868 l 1215 694 l 868 694 l 868 521 l 1042 521 l 1042 347 l 868 347 l 868 174 l 1215 174 l 1215 0 l 521 0 l 521 347 l 174 347 l 174 521 z "},"≈":{"ha":1389,"x_min":0,"x_max":1215,"o":"m 0 0 l 0 347 l 174 347 l 174 521 l 694 521 l 694 174 l 868 174 l 868 521 l 1215 521 l 1215 174 l 1042 174 l 1042 0 l 521 0 l 521 347 l 347 347 l 347 0 l 0 0 m 0 694 l 0 1042 l 174 1042 l 174 1215 l 694 1215 l 694 868 l 868 868 l 868 1215 l 1215 1215 l 1215 868 l 1042 868 l 1042 694 l 521 694 l 521 1042 l 347 1042 l 347 694 l 0 694 z "},"≡":{"ha":1389,"x_min":174,"x_max":1042,"o":"m 174 347 l 174 521 l 1042 521 l 1042 347 l 174 347 m 174 694 l 174 868 l 1042 868 l 1042 694 l 174 694 m 174 0 l 174 174 l 1042 174 l 1042 0 l 174 0 z "},"≤":{"ha":1389,"x_min":174,"x_max":1042,"o":"m 521 347 l 521 521 l 347 521 l 347 694 l 174 694 l 174 868 l 347 868 l 347 1042 l 521 1042 l 521 1215 l 1042 1215 l 1042 1042 l 868 1042 l 868 868 l 694 868 l 694 694 l 868 694 l 868 521 l 1042 521 l 1042 347 l 521 347 m 174 0 l 174 174 l 1042 174 l 1042 0 l 174 0 z "},"≥":{"ha":1389,"x_min":174,"x_max":1042,"o":"m 694 347 l 174 347 l 174 521 l 347 521 l 347 694 l 521 694 l 521 868 l 347 868 l 347 1042 l 174 1042 l 174 1215 l 694 1215 l 694 1042 l 868 1042 l 868 868 l 1042 868 l 1042 694 l 868 694 l 868 521 l 694 521 l 694 347 m 174 0 l 174 174 l 1042 174 l 1042 0 l 174 0 z "},"±":{"ha":1389,"x_min":174,"x_max":1042,"o":"m 174 0 l 174 174 l 1042 174 l 1042 0 l 174 0 m 694 347 l 521 347 l 521 694 l 174 694 l 174 868 l 521 868 l 521 1215 l 694 1215 l 694 868 l 1042 868 l 1042 694 l 694 694 l 694 347 z "},"µ":{"ha":1389,"x_min":0,"x_max":1215,"o":"m 347 521 l 868 521 l 868 1215 l 1215 1215 l 1215 521 l 1042 521 l 1042 347 l 347 347 l 347 0 l 0 0 l 0 1215 l 347 1215 l 347 521 z "},"¬":{"ha":1389,"x_min":174,"x_max":1042,"o":"m 1042 174 l 694 174 l 694 521 l 174 521 l 174 694 l 1042 694 l 1042 174 z "},"⌐":{"ha":1389,"x_min":174,"x_max":1042,"o":"m 174 174 l 174 694 l 1042 694 l 1042 521 l 521 521 l 521 174 l 174 174 z "},"¯":{"ha":1389,"x_min":174,"x_max":1042,"o":"m 1042 1215 l 1042 1042 l 174 1042 l 174 1215 l 1042 1215 z "},"Ā":{"ha":1389,"x_min":0,"x_max":1215,"o":"m 868 347 l 868 521 l 694 521 l 694 694 l 521 694 l 521 521 l 347 521 l 347 347 l 868 347 m 0 0 l 0 521 l 174 521 l 174 694 l 347 694 l 347 868 l 868 868 l 868 694 l 1042 694 l 1042 521 l 1215 521 l 1215 0 l 868 0 l 868 174 l 347 174 l 347 0 l 0 0 m 1042 1215 l 1042 1042 l 174 1042 l 174 1215 l 1042 1215 z "},"ā":{"ha":1389,"x_min":0,"x_max":1215,"o":"m 174 174 l 0 174 l 0 347 l 174 347 l 174 521 l 868 521 l 868 694 l 174 694 l 174 868 l 1042 868 l 1042 694 l 1215 694 l 1215 0 l 174 0 l 174 174 m 347 174 l 868 174 l 868 347 l 347 347 l 347 174 m 1042 1215 l 1042 1042 l 174 1042 l 174 1215 l 1042 1215 z "},"Ē":{"ha":1389,"x_min":0,"x_max":1215,"o":"m 0 0 l 0 868 l 1215 868 l 1215 694 l 347 694 l 347 521 l 868 521 l 868 347 l 347 347 l 347 174 l 1215 174 l 1215 0 l 0 0 m 1042 1215 l 1042 1042 l 174 1042 l 174 1215 l 1042 1215 z "},"ē":{"ha":1389,"x_min":0,"x_max":1215,"o":"m 868 521 l 868 694 l 347 694 l 347 521 l 868 521 m 174 174 l 0 174 l 0 694 l 174 694 l 174 868 l 1042 868 l 1042 694 l 1215 694 l 1215 347 l 347 347 l 347 174 l 1042 174 l 1042 0 l 174 0 l 174 174 m 1042 1215 l 1042 1042 l 174 1042 l 174 1215 l 1042 1215 z "},"Ī":{"ha":1389,"x_min":0,"x_max":1215,"o":"m 0 0 l 0 174 l 347 174 l 347 694 l 0 694 l 0 868 l 1215 868 l 1215 694 l 868 694 l 868 174 l 1215 174 l 1215 0 l 0 0 m 1042 1215 l 1042 1042 l 174 1042 l 174 1215 l 1042 1215 z "},"ī":{"ha":1389,"x_min":0,"x_max":1215,"o":"m 0 0 l 0 174 l 521 174 l 521 694 l 174 694 l 174 868 l 868 868 l 868 174 l 1215 174 l 1215 0 l 0 0 m 1042 1215 l 1042 1042 l 174 1042 l 174 1215 l 1042 1215 z "},"Ō":{"ha":1389,"x_min":0,"x_max":1215,"o":"m 174 174 l 0 174 l 0 694 l 174 694 l 174 868 l 1042 868 l 1042 694 l 1215 694 l 1215 174 l 1042 174 l 1042 0 l 174 0 l 174 174 m 868 694 l 347 694 l 347 174 l 868 174 l 868 694 m 1042 1215 l 1042 1042 l 174 1042 l 174 1215 l 1042 1215 z "},"ō":{"ha":1389,"x_min":0,"x_max":1215,"o":"m 174 174 l 0 174 l 0 521 l 174 521 l 174 694 l 1042 694 l 1042 521 l 1215 521 l 1215 174 l 1042 174 l 1042 0 l 174 0 l 174 174 m 868 521 l 347 521 l 347 174 l 868 174 l 868 521 m 1042 1042 l 1042 868 l 174 868 l 174 1042 l 1042 1042 z "},"Ū":{"ha":1389,"x_min":0,"x_max":1215,"o":"m 174 174 l 0 174 l 0 868 l 347 868 l 347 174 l 868 174 l 868 868 l 1215 868 l 1215 174 l 1042 174 l 1042 0 l 174 0 l 174 174 m 1042 1215 l 1042 1042 l 174 1042 l 174 1215 l 1042 1215 z "},"ū":{"ha":1389,"x_min":0,"x_max":1215,"o":"m 174 174 l 0 174 l 0 694 l 347 694 l 347 174 l 868 174 l 868 694 l 1215 694 l 1215 174 l 1042 174 l 1042 0 l 174 0 l 174 174 m 1042 1042 l 1042 868 l 174 868 l 174 1042 l 1042 1042 z "},"Ȳ":{"ha":1389,"x_min":0,"x_max":1215,"o":"m 174 521 l 0 521 l 0 868 l 347 868 l 347 521 l 868 521 l 868 868 l 1215 868 l 1215 521 l 1042 521 l 1042 347 l 868 347 l 868 0 l 347 0 l 347 347 l 174 347 l 174 521 m 1042 1215 l 1042 1042 l 174 1042 l 174 1215 l 1042 1215 z "},"ȳ":{"ha":1389,"x_min":0,"x_max":1215,"o":"m 0 0 l 0 174 l 347 174 l 347 347 l 174 347 l 174 521 l 0 521 l 0 868 l 347 868 l 347 521 l 521 521 l 521 347 l 694 347 l 694 521 l 868 521 l 868 868 l 1215 868 l 1215 521 l 1042 521 l 1042 347 l 868 347 l 868 174 l 694 174 l 694 0 l 0 0 m 1042 1215 l 1042 1042 l 174 1042 l 174 1215 l 1042 1215 z "},"¨":{"ha":1389,"x_min":174,"x_max":1042,"o":"m 174 1042 l 174 1215 l 521 1215 l 521 1042 l 174 1042 m 694 1042 l 694 1215 l 1042 1215 l 1042 1042 l 694 1042 z "},"Ä":{"ha":1389,"x_min":0,"x_max":1215,"o":"m 868 347 l 868 521 l 694 521 l 694 694 l 521 694 l 521 521 l 347 521 l 347 347 l 868 347 m 0 0 l 0 521 l 174 521 l 174 694 l 347 694 l 347 868 l 868 868 l 868 694 l 1042 694 l 1042 521 l 1215 521 l 1215 0 l 868 0 l 868 174 l 347 174 l 347 0 l 0 0 m 174 1042 l 174 1215 l 521 1215 l 521 1042 l 174 1042 m 694 1042 l 694 1215 l 1042 1215 l 1042 1042 l 694 1042 z "},"ä":{"ha":1389,"x_min":0,"x_max":1215,"o":"m 174 174 l 0 174 l 0 347 l 174 347 l 174 521 l 868 521 l 868 694 l 174 694 l 174 868 l 1042 868 l 1042 694 l 1215 694 l 1215 0 l 174 0 l 174 174 m 347 174 l 868 174 l 868 347 l 347 347 l 347 174 m 174 1042 l 174 1215 l 521 1215 l 521 1042 l 174 1042 m 694 1042 l 694 1215 l 1042 1215 l 1042 1042 l 694 1042 z "},"Ë":{"ha":1389,"x_min":0,"x_max":1215,"o":"m 0 0 l 0 868 l 1215 868 l 1215 694 l 347 694 l 347 521 l 868 521 l 868 347 l 347 347 l 347 174 l 1215 174 l 1215 0 l 0 0 m 174 1042 l 174 1215 l 521 1215 l 521 1042 l 174 1042 m 694 1042 l 694 1215 l 1042 1215 l 1042 1042 l 694 1042 z "},"ë":{"ha":1389,"x_min":0,"x_max":1215,"o":"m 868 521 l 868 694 l 347 694 l 347 521 l 868 521 m 174 174 l 0 174 l 0 694 l 174 694 l 174 868 l 1042 868 l 1042 694 l 1215 694 l 1215 347 l 347 347 l 347 174 l 1042 174 l 1042 0 l 174 0 l 174 174 m 174 1042 l 174 1215 l 521 1215 l 521 1042 l 174 1042 m 694 1042 l 694 1215 l 1042 1215 l 1042 1042 l 694 1042 z "},"Ï":{"ha":1389,"x_min":0,"x_max":1215,"o":"m 0 0 l 0 174 l 347 174 l 347 694 l 0 694 l 0 868 l 1215 868 l 1215 694 l 868 694 l 868 174 l 1215 174 l 1215 0 l 0 0 m 174 1042 l 174 1215 l 521 1215 l 521 1042 l 174 1042 m 694 1042 l 694 1215 l 1042 1215 l 1042 1042 l 694 1042 z "},"ï":{"ha":1389,"x_min":0,"x_max":1215,"o":"m 0 0 l 0 174 l 521 174 l 521 694 l 174 694 l 174 868 l 868 868 l 868 174 l 1215 174 l 1215 0 l 0 0 m 174 1042 l 174 1215 l 521 1215 l 521 1042 l 174 1042 m 694 1042 l 694 1215 l 1042 1215 l 1042 1042 l 694 1042 z "},"Ö":{"ha":1389,"x_min":0,"x_max":1215,"o":"m 174 174 l 0 174 l 0 694 l 174 694 l 174 868 l 1042 868 l 1042 694 l 1215 694 l 1215 174 l 1042 174 l 1042 0 l 174 0 l 174 174 m 868 694 l 347 694 l 347 174 l 868 174 l 868 694 m 174 1042 l 174 1215 l 521 1215 l 521 1042 l 174 1042 m 694 1042 l 694 1215 l 1042 1215 l 1042 1042 l 694 1042 z "},"ö":{"ha":1389,"x_min":0,"x_max":1215,"o":"m 174 174 l 0 174 l 0 521 l 174 521 l 174 694 l 1042 694 l 1042 521 l 1215 521 l 1215 174 l 1042 174 l 1042 0 l 174 0 l 174 174 m 868 521 l 347 521 l 347 174 l 868 174 l 868 521 m 174 868 l 174 1042 l 521 1042 l 521 868 l 174 868 m 694 868 l 694 1042 l 1042 1042 l 1042 868 l 694 868 z "},"Ü":{"ha":1389,"x_min":0,"x_max":1215,"o":"m 174 174 l 0 174 l 0 868 l 347 868 l 347 174 l 868 174 l 868 868 l 1215 868 l 1215 174 l 1042 174 l 1042 0 l 174 0 l 174 174 m 174 1042 l 174 1215 l 521 1215 l 521 1042 l 174 1042 m 694 1042 l 694 1215 l 1042 1215 l 1042 1042 l 694 1042 z "},"ü":{"ha":1389,"x_min":0,"x_max":1215,"o":"m 174 174 l 0 174 l 0 694 l 347 694 l 347 174 l 868 174 l 868 694 l 1215 694 l 1215 174 l 1042 174 l 1042 0 l 174 0 l 174 174 m 174 868 l 174 1042 l 521 1042 l 521 868 l 174 868 m 694 868 l 694 1042 l 1042 1042 l 1042 868 l 694 868 z "},"Ÿ":{"ha":1389,"x_min":0,"x_max":1215,"o":"m 174 1042 l 174 1215 l 521 1215 l 521 1042 l 174 1042 m 694 1042 l 694 1215 l 1042 1215 l 1042 1042 l 694 1042 m 174 521 l 0 521 l 0 868 l 347 868 l 347 521 l 868 521 l 868 868 l 1215 868 l 1215 521 l 1042 521 l 1042 347 l 868 347 l 868 0 l 347 0 l 347 347 l 174 347 l 174 521 z "},"ÿ":{"ha":1389,"x_min":0,"x_max":1215,"o":"m 0 0 l 0 174 l 347 174 l 347 347 l 174 347 l 174 521 l 0 521 l 0 868 l 347 868 l 347 521 l 521 521 l 521 347 l 694 347 l 694 521 l 868 521 l 868 868 l 1215 868 l 1215 521 l 1042 521 l 1042 347 l 868 347 l 868 174 l 694 174 l 694 0 l 0 0 m 174 1042 l 174 1215 l 521 1215 l 521 1042 l 174 1042 m 694 1042 l 694 1215 l 1042 1215 l 1042 1042 l 694 1042 z "},"Ḧ":{"ha":1389,"x_min":0,"x_max":1215,"o":"m 0 0 l 0 868 l 347 868 l 347 521 l 868 521 l 868 868 l 1215 868 l 1215 0 l 868 0 l 868 347 l 347 347 l 347 0 l 0 0 m 174 1042 l 174 1215 l 521 1215 l 521 1042 l 174 1042 m 694 1042 l 694 1215 l 1042 1215 l 1042 1042 l 694 1042 z "},"ḧ":{"ha":1389,"x_min":0,"x_max":1215,"o":"m 0 0 l 0 868 l 347 868 l 347 521 l 1042 521 l 1042 347 l 1215 347 l 1215 0 l 868 0 l 868 347 l 347 347 l 347 0 l 0 0 m 174 1042 l 174 1215 l 521 1215 l 521 1042 l 174 1042 m 694 1042 l 694 1215 l 1042 1215 l 1042 1042 l 694 1042 z "},"Ẅ":{"ha":1389,"x_min":0,"x_max":1215,"o":"m 1215 868 l 1215 0 l 868 0 l 868 174 l 694 174 l 694 347 l 521 347 l 521 174 l 347 174 l 347 0 l 0 0 l 0 868 l 347 868 l 347 521 l 521 521 l 521 694 l 694 694 l 694 521 l 868 521 l 868 868 l 1215 868 m 174 1042 l 174 1215 l 521 1215 l 521 1042 l 174 1042 m 694 1042 l 694 1215 l 1042 1215 l 1042 1042 l 694 1042 z "},"ẅ":{"ha":1389,"x_min":0,"x_max":1215,"o":"m 521 174 l 521 0 l 174 0 l 174 174 l 0 174 l 0 868 l 347 868 l 347 347 l 521 347 l 521 694 l 694 694 l 694 347 l 868 347 l 868 868 l 1215 868 l 1215 174 l 1042 174 l 1042 0 l 694 0 l 694 174 l 521 174 m 174 1042 l 174 1215 l 521 1215 l 521 1042 l 174 1042 m 694 1042 l 694 1215 l 1042 1215 l 1042 1042 l 694 1042 z "},"Æ":{"ha":1389,"x_min":0,"x_max":1215,"o":"m 521 521 l 521 868 l 347 868 l 347 521 l 521 521 m 0 0 l 0 868 l 174 868 l 174 1042 l 347 1042 l 347 1215 l 1215 1215 l 1215 1042 l 868 1042 l 868 694 l 1215 694 l 1215 521 l 868 521 l 868 174 l 1215 174 l 1215 0 l 521 0 l 521 347 l 347 347 l 347 0 l 0 0 z "},"æ":{"ha":1389,"x_min":0,"x_max":1215,"o":"m 0 0 l 0 521 l 347 521 l 347 694 l 0 694 l 0 868 l 1042 868 l 1042 694 l 1215 694 l 1215 347 l 694 347 l 694 174 l 1042 174 l 1042 0 l 0 0 m 694 521 l 868 521 l 868 694 l 694 694 l 694 521 m 347 347 l 174 347 l 174 174 l 347 174 l 347 347 z "},"Œ":{"ha":1389,"x_min":0,"x_max":1215,"o":"m 347 174 l 521 174 l 521 1042 l 347 1042 l 347 174 m 174 0 l 174 174 l 0 174 l 0 1042 l 174 1042 l 174 1215 l 1215 1215 l 1215 1042 l 868 1042 l 868 694 l 1215 694 l 1215 521 l 868 521 l 868 174 l 1215 174 l 1215 0 l 174 0 z "},"œ":{"ha":1389,"x_min":0,"x_max":1215,"o":"m 694 521 l 868 521 l 868 694 l 694 694 l 694 521 m 347 694 l 174 694 l 174 174 l 347 174 l 347 694 m 174 174 l 0 174 l 0 694 l 174 694 l 174 868 l 1042 868 l 1042 694 l 1215 694 l 1215 347 l 694 347 l 694 174 l 1042 174 l 1042 0 l 174 0 l 174 174 z "},"ẞ":{"ha":1389,"x_min":0,"x_max":1215,"o":"m 0 0 l 0 868 l 174 868 l 174 1042 l 347 1042 l 347 1215 l 1042 1215 l 1042 1042 l 1215 1042 l 1215 868 l 1042 868 l 1042 521 l 1215 521 l 1215 174 l 1042 174 l 1042 0 l 521 0 l 521 174 l 868 174 l 868 521 l 521 521 l 521 694 l 694 694 l 694 868 l 868 868 l 868 1042 l 521 1042 l 521 868 l 347 868 l 347 0 l 0 0 z "},"ß":{"ha":1389,"x_min":0,"x_max":1215,"o":"m 0 0 l 0 1042 l 174 1042 l 174 1215 l 868 1215 l 868 1042 l 1042 1042 l 1042 868 l 868 868 l 868 694 l 1042 694 l 1042 521 l 1215 521 l 1215 174 l 1042 174 l 1042 0 l 521 0 l 521 347 l 694 347 l 694 174 l 868 174 l 868 521 l 521 521 l 521 868 l 694 868 l 694 1042 l 347 1042 l 347 0 l 0 0 z "},"Ø":{"ha":1389,"x_min":0,"x_max":1215,"o":"m 694 694 l 694 868 l 868 868 l 868 1042 l 347 1042 l 347 521 l 521 521 l 521 694 l 694 694 m 521 521 l 521 347 l 347 347 l 347 174 l 868 174 l 868 694 l 694 694 l 694 521 l 521 521 m 174 174 l 0 174 l 0 1042 l 174 1042 l 174 1215 l 1042 1215 l 1042 1042 l 1215 1042 l 1215 174 l 1042 174 l 1042 0 l 174 0 l 174 174 z "},"ø":{"ha":1389,"x_min":0,"x_max":1215,"o":"m 694 521 l 694 694 l 347 694 l 347 347 l 521 347 l 521 521 l 694 521 m 521 347 l 521 174 l 868 174 l 868 521 l 694 521 l 694 347 l 521 347 m 174 174 l 0 174 l 0 694 l 174 694 l 174 868 l 1042 868 l 1042 694 l 1215 694 l 1215 174 l 1042 174 l 1042 0 l 174 0 l 174 174 z "},"ʹ":{"ha":1389,"x_min":347,"x_max":694,"o":"m 521 521 l 347 521 l 347 694 l 521 694 l 521 521 m 521 868 l 347 868 l 347 1215 l 694 1215 l 694 694 l 521 694 l 521 868 z "},"ʺ":{"ha":1389,"x_min":174,"x_max":1042,"o":"m 347 521 l 174 521 l 174 694 l 347 694 l 347 521 m 868 868 l 694 868 l 694 1215 l 1042 1215 l 1042 694 l 868 694 l 868 868 m 868 521 l 694 521 l 694 694 l 868 694 l 868 521 m 347 868 l 174 868 l 174 1215 l 521 1215 l 521 694 l 347 694 l 347 868 z "},"ʻ":{"ha":1389,"x_min":347,"x_max":694,"o":"m 521 1215 l 694 1215 l 694 1042 l 521 1042 l 521 1215 m 521 868 l 694 868 l 694 521 l 347 521 l 347 1042 l 521 1042 l 521 868 z "},"ʼ":{"ha":1389,"x_min":347,"x_max":694,"o":"m 521 521 l 347 521 l 347 694 l 521 694 l 521 521 m 521 868 l 347 868 l 347 1215 l 694 1215 l 694 694 l 521 694 l 521 868 z "},"ʽ":{"ha":1389,"x_min":347,"x_max":694,"o":"m 521 521 l 521 694 l 694 694 l 694 521 l 521 521 m 521 868 l 521 694 l 347 694 l 347 1215 l 694 1215 l 694 868 l 521 868 z "},"‘":{"ha":1389,"x_min":347,"x_max":694,"o":"m 521 1215 l 694 1215 l 694 1042 l 521 1042 l 521 1215 m 521 868 l 694 868 l 694 521 l 347 521 l 347 1042 l 521 1042 l 521 868 z "},"’":{"ha":1389,"x_min":347,"x_max":694,"o":"m 521 521 l 347 521 l 347 694 l 521 694 l 521 521 m 521 868 l 347 868 l 347 1215 l 694 1215 l 694 694 l 521 694 l 521 868 z "},"‚":{"ha":1389,"x_min":347,"x_max":694,"o":"m 521 0 l 347 0 l 347 174 l 521 174 l 521 0 m 521 347 l 347 347 l 347 694 l 694 694 l 694 174 l 521 174 l 521 347 z "},"‛":{"ha":1389,"x_min":347,"x_max":694,"o":"m 521 521 l 521 694 l 694 694 l 694 521 l 521 521 m 521 868 l 521 694 l 347 694 l 347 1215 l 694 1215 l 694 868 l 521 868 z "},"“":{"ha":1389,"x_min":174,"x_max":1042,"o":"m 347 1215 l 521 1215 l 521 1042 l 347 1042 l 347 1215 m 868 868 l 1042 868 l 1042 521 l 694 521 l 694 1042 l 868 1042 l 868 868 m 868 1215 l 1042 1215 l 1042 1042 l 868 1042 l 868 1215 m 347 868 l 521 868 l 521 521 l 174 521 l 174 1042 l 347 1042 l 347 868 z "},"”":{"ha":1389,"x_min":174,"x_max":1042,"o":"m 347 521 l 174 521 l 174 694 l 347 694 l 347 521 m 868 868 l 694 868 l 694 1215 l 1042 1215 l 1042 694 l 868 694 l 868 868 m 868 521 l 694 521 l 694 694 l 868 694 l 868 521 m 347 868 l 174 868 l 174 1215 l 521 1215 l 521 694 l 347 694 l 347 868 z "},"„":{"ha":1389,"x_min":174,"x_max":1042,"o":"m 347 0 l 174 0 l 174 174 l 347 174 l 347 0 m 868 347 l 694 347 l 694 694 l 1042 694 l 1042 174 l 868 174 l 868 347 m 868 0 l 694 0 l 694 174 l 868 174 l 868 0 m 347 347 l 174 347 l 174 694 l 521 694 l 521 174 l 347 174 l 347 347 z "},"‟":{"ha":1389,"x_min":174,"x_max":1042,"o":"m 347 521 l 347 694 l 521 694 l 521 521 l 347 521 m 868 868 l 868 694 l 694 694 l 694 1215 l 1042 1215 l 1042 868 l 868 868 m 868 521 l 868 694 l 1042 694 l 1042 521 l 868 521 m 347 868 l 347 694 l 174 694 l 174 1215 l 521 1215 l 521 868 l 347 868 z "},"−":{"ha":1389,"x_min":174,"x_max":1042,"o":"m 1042 521 l 1042 347 l 174 347 l 174 521 l 1042 521 z "},"‒":{"ha":1389,"x_min":174,"x_max":1042,"o":"m 1042 521 l 1042 347 l 174 347 l 174 521 l 1042 521 z "},"–":{"ha":1389,"x_min":174,"x_max":1042,"o":"m 1042 521 l 1042 347 l 174 347 l 174 521 l 1042 521 z "},"—":{"ha":1389,"x_min":0,"x_max":1215,"o":"m 1215 521 l 1215 347 l 0 347 l 0 521 l 1215 521 z "},"―":{"ha":1389,"x_min":0,"x_max":1215,"o":"m 1215 521 l 1215 347 l 0 347 l 0 521 l 1215 521 z "},"­":{"ha":1389,"x_min":174,"x_max":1042,"o":"m 1042 521 l 1042 347 l 174 347 l 174 521 l 1042 521 z "},"§":{"ha":1389,"x_min":0,"x_max":1215,"o":"m 868 521 l 868 694 l 347 694 l 347 521 l 868 521 m 174 521 l 0 521 l 0 1042 l 174 1042 l 174 1215 l 868 1215 l 868 1042 l 347 1042 l 347 868 l 1042 868 l 1042 694 l 1215 694 l 1215 174 l 1042 174 l 1042 0 l 347 0 l 347 174 l 868 174 l 868 347 l 174 347 l 174 521 z "},"¥":{"ha":1389,"x_min":0,"x_max":1215,"o":"m 174 1042 l 0 1042 l 0 1215 l 347 1215 l 347 1042 l 521 1042 l 521 868 l 694 868 l 694 1042 l 868 1042 l 868 1215 l 1215 1215 l 1215 1042 l 1042 1042 l 1042 868 l 868 868 l 868 694 l 1042 694 l 1042 521 l 694 521 l 694 347 l 1042 347 l 1042 174 l 694 174 l 694 0 l 521 0 l 521 174 l 174 174 l 174 347 l 521 347 l 521 521 l 174 521 l 174 694 l 347 694 l 347 868 l 174 868 l 174 1042 z "},"¦":{"ha":1389,"x_min":347,"x_max":694,"o":"m 694 521 l 694 0 l 347 0 l 347 521 l 694 521 m 347 694 l 347 1215 l 694 1215 l 694 694 l 347 694 z "},"Þ":{"ha":1389,"x_min":0,"x_max":1215,"o":"m 0 0 l 0 1215 l 347 1215 l 347 1042 l 1042 1042 l 1042 868 l 1215 868 l 1215 347 l 1042 347 l 1042 174 l 347 174 l 347 0 l 0 0 m 347 347 l 868 347 l 868 868 l 347 868 l 347 347 z "},"þ":{"ha":1389,"x_min":0,"x_max":1215,"o":"m 0 0 l 0 1215 l 347 1215 l 347 868 l 1042 868 l 1042 694 l 1215 694 l 1215 521 l 1042 521 l 1042 347 l 347 347 l 347 0 l 0 0 m 347 521 l 868 521 l 868 694 l 347 694 l 347 521 z "},"ſ":{"ha":1389,"x_min":347,"x_max":1215,"o":"m 521 1042 l 521 1215 l 1215 1215 l 1215 1042 l 694 1042 l 694 0 l 347 0 l 347 1042 l 521 1042 z "},"˙":{"ha":1389,"x_min":521,"x_max":694,"o":"m 521 1042 l 521 1215 l 694 1215 l 694 1042 l 521 1042 z "},"Ė":{"ha":1389,"x_min":0,"x_max":1215,"o":"m 0 0 l 0 868 l 1215 868 l 1215 694 l 347 694 l 347 521 l 868 521 l 868 347 l 347 347 l 347 174 l 1215 174 l 1215 0 l 0 0 m 521 1042 l 521 1215 l 694 1215 l 694 1042 l 521 1042 z "},"ė":{"ha":1389,"x_min":0,"x_max":1215,"o":"m 868 521 l 868 694 l 347 694 l 347 521 l 868 521 m 174 174 l 0 174 l 0 694 l 174 694 l 174 868 l 1042 868 l 1042 694 l 1215 694 l 1215 347 l 347 347 l 347 174 l 1042 174 l 1042 0 l 174 0 l 174 174 m 521 1042 l 521 1215 l 694 1215 l 694 1042 l 521 1042 z "},"Ż":{"ha":1389,"x_min":0,"x_max":1215,"o":"m 0 0 l 0 174 l 174 174 l 174 347 l 347 347 l 347 521 l 521 521 l 521 694 l 0 694 l 0 868 l 1215 868 l 1215 694 l 1042 694 l 1042 521 l 868 521 l 868 347 l 694 347 l 694 174 l 1215 174 l 1215 0 l 0 0 m 521 1042 l 521 1215 l 694 1215 l 694 1042 l 521 1042 z "},"ż":{"ha":1389,"x_min":0,"x_max":1215,"o":"m 0 0 l 0 174 l 174 174 l 174 347 l 347 347 l 347 521 l 0 521 l 0 694 l 1215 694 l 1215 521 l 868 521 l 868 347 l 694 347 l 694 174 l 1215 174 l 1215 0 l 0 0 m 521 868 l 521 1042 l 694 1042 l 694 868 l 521 868 z "},"…":{"ha":1389,"x_min":174,"x_max":1042,"o":"m 347 0 l 174 0 l 174 174 l 347 174 l 347 0 m 694 0 l 521 0 l 521 174 l 694 174 l 694 0 m 1042 0 l 868 0 l 868 174 l 1042 174 l 1042 0 z "},"‼":{"ha":1389,"x_min":174,"x_max":1042,"o":"m 174 0 l 174 174 l 521 174 l 521 0 l 174 0 m 174 347 l 174 1215 l 521 1215 l 521 347 l 174 347 m 694 0 l 694 174 l 1042 174 l 1042 0 l 694 0 m 694 347 l 694 1215 l 1042 1215 l 1042 347 l 694 347 z "},"†":{"ha":1389,"x_min":0,"x_max":1215,"o":"m 694 0 l 521 0 l 521 694 l 0 694 l 0 868 l 521 868 l 521 1215 l 694 1215 l 694 868 l 1215 868 l 1215 694 l 694 694 l 694 0 z "},"‡":{"ha":1389,"x_min":0,"x_max":1215,"o":"m 521 0 l 521 347 l 0 347 l 0 521 l 521 521 l 521 694 l 0 694 l 0 868 l 521 868 l 521 1215 l 694 1215 l 694 868 l 1215 868 l 1215 694 l 694 694 l 694 521 l 1215 521 l 1215 347 l 694 347 l 694 0 l 521 0 z "},"˚":{"ha":1389,"x_min":347,"x_max":868,"o":"m 521 1042 l 521 868 l 694 868 l 694 1042 l 521 1042 m 347 1215 l 868 1215 l 868 694 l 347 694 l 347 1215 z "},"Å":{"ha":1389,"x_min":0,"x_max":1215,"o":"m 868 347 l 868 521 l 694 521 l 694 694 l 521 694 l 521 521 l 347 521 l 347 347 l 868 347 m 521 868 l 694 868 l 694 1042 l 521 1042 l 521 868 m 868 694 l 1042 694 l 1042 521 l 1215 521 l 1215 0 l 868 0 l 868 174 l 347 174 l 347 0 l 0 0 l 0 521 l 174 521 l 174 694 l 347 694 l 347 1215 l 868 1215 l 868 694 z "},"å":{"ha":1389,"x_min":0,"x_max":1215,"o":"m 347 174 l 868 174 l 868 347 l 347 347 l 347 174 m 521 868 l 694 868 l 694 1042 l 521 1042 l 521 868 m 868 868 l 1042 868 l 1042 694 l 1215 694 l 1215 0 l 174 0 l 174 174 l 0 174 l 0 347 l 174 347 l 174 521 l 868 521 l 868 694 l 174 694 l 174 868 l 347 868 l 347 1215 l 868 1215 l 868 868 z "},"Ɣ":{"ha":1389,"x_min":0,"x_max":1215,"o":"m 694 347 l 521 347 l 521 174 l 694 174 l 694 347 m 174 868 l 0 868 l 0 1215 l 174 1215 l 174 1042 l 347 1042 l 347 868 l 521 868 l 521 694 l 694 694 l 694 868 l 868 868 l 868 1042 l 1042 1042 l 1042 1215 l 1215 1215 l 1215 868 l 1042 868 l 1042 694 l 868 694 l 868 347 l 1042 347 l 1042 174 l 868 174 l 868 0 l 347 0 l 347 174 l 174 174 l 174 347 l 347 347 l 347 694 l 174 694 l 174 868 z "},"ɣ":{"ha":1389,"x_min":0,"x_max":1215,"o":"m 694 347 l 521 347 l 521 174 l 694 174 l 694 347 m 174 694 l 0 694 l 0 868 l 347 868 l 347 694 l 521 694 l 521 521 l 694 521 l 694 694 l 868 694 l 868 868 l 1215 868 l 1215 694 l 1042 694 l 1042 521 l 868 521 l 868 347 l 1042 347 l 1042 174 l 868 174 l 868 0 l 347 0 l 347 174 l 174 174 l 174 347 l 347 347 l 347 521 l 174 521 l 174 694 z "},"Ɔ":{"ha":1389,"x_min":0,"x_max":1215,"o":"m 347 868 l 0 868 l 0 1042 l 174 1042 l 174 1215 l 1042 1215 l 1042 1042 l 1215 1042 l 1215 174 l 1042 174 l 1042 0 l 174 0 l 174 174 l 0 174 l 0 347 l 347 347 l 347 174 l 868 174 l 868 1042 l 347 1042 l 347 868 z "},"ɔ":{"ha":1389,"x_min":0,"x_max":1215,"o":"m 174 174 l 0 174 l 0 347 l 347 347 l 347 174 l 868 174 l 868 694 l 347 694 l 347 521 l 0 521 l 0 694 l 174 694 l 174 868 l 1042 868 l 1042 694 l 1215 694 l 1215 174 l 1042 174 l 1042 0 l 174 0 l 174 174 z "},"ĸ":{"ha":1389,"x_min":0,"x_max":1215,"o":"m 0 0 l 0 868 l 347 868 l 347 521 l 694 521 l 694 694 l 868 694 l 868 868 l 1215 868 l 1215 694 l 1042 694 l 1042 521 l 868 521 l 868 347 l 1042 347 l 1042 174 l 1215 174 l 1215 0 l 868 0 l 868 174 l 694 174 l 694 347 l 347 347 l 347 0 l 0 0 z "},"Ɛ":{"ha":1389,"x_min":0,"x_max":1215,"o":"m 174 174 l 0 174 l 0 347 l 174 347 l 174 521 l 347 521 l 347 694 l 174 694 l 174 868 l 0 868 l 0 1042 l 174 1042 l 174 1215 l 1042 1215 l 1042 1042 l 1215 1042 l 1215 868 l 868 868 l 868 1042 l 347 1042 l 347 868 l 521 868 l 521 694 l 868 694 l 868 521 l 521 521 l 521 347 l 347 347 l 347 174 l 868 174 l 868 347 l 1215 347 l 1215 174 l 1042 174 l 1042 0 l 174 0 l 174 174 z "},"ɛ":{"ha":1389,"x_min":0,"x_max":1215,"o":"m 347 521 l 694 521 l 694 347 l 347 347 l 347 174 l 868 174 l 868 347 l 1215 347 l 1215 174 l 1042 174 l 1042 0 l 174 0 l 174 174 l 0 174 l 0 347 l 174 347 l 174 521 l 0 521 l 0 694 l 174 694 l 174 868 l 1042 868 l 1042 694 l 1215 694 l 1215 521 l 868 521 l 868 694 l 347 694 l 347 521 z "},"·":{"ha":1389,"x_min":521,"x_max":694,"o":"m 694 521 l 521 521 l 521 694 l 694 694 l 694 521 z "},"‖":{"ha":1389,"x_min":347,"x_max":868,"o":"m 868 0 l 694 0 l 694 1215 l 868 1215 l 868 0 m 521 0 l 347 0 l 347 1215 l 521 1215 l 521 0 z "},"₢":{"ha":1389,"x_min":0,"x_max":1215,"o":"m 694 174 l 868 174 l 868 347 l 1215 347 l 1215 174 l 1042 174 l 1042 0 l 174 0 l 174 174 l 0 174 l 0 1042 l 174 1042 l 174 1215 l 1042 1215 l 1042 1042 l 1215 1042 l 1215 868 l 868 868 l 868 1042 l 347 1042 l 347 174 l 521 174 l 521 694 l 1042 694 l 1042 521 l 694 521 l 694 174 z "},"•":{"ha":1389,"x_min":347,"x_max":868,"o":"m 868 174 l 347 174 l 347 694 l 868 694 l 868 174 z "},"℮":{"ha":1389,"x_min":0,"x_max":1215,"o":"m 868 694 l 868 1042 l 347 1042 l 347 694 l 868 694 m 174 174 l 0 174 l 0 1042 l 174 1042 l 174 1215 l 1042 1215 l 1042 1042 l 1215 1042 l 1215 521 l 347 521 l 347 174 l 1042 174 l 1042 0 l 174 0 l 174 174 z "},"∑":{"ha":1389,"x_min":0,"x_max":1215,"o":"m 0 0 l 0 174 l 174 174 l 174 347 l 347 347 l 347 521 l 521 521 l 521 694 l 347 694 l 347 868 l 174 868 l 174 1042 l 0 1042 l 0 1215 l 1215 1215 l 1215 1042 l 521 1042 l 521 868 l 694 868 l 694 694 l 868 694 l 868 521 l 694 521 l 694 347 l 521 347 l 521 174 l 1215 174 l 1215 0 l 0 0 z "},"∏":{"ha":1389,"x_min":0,"x_max":1215,"o":"m 0 0 l 0 1215 l 1215 1215 l 1215 0 l 868 0 l 868 1042 l 347 1042 l 347 0 l 0 0 z "},"∙":{"ha":1389,"x_min":521,"x_max":694,"o":"m 694 347 l 521 347 l 521 521 l 694 521 l 694 347 z "},"∩":{"ha":1389,"x_min":0,"x_max":1215,"o":"m 0 0 l 0 868 l 174 868 l 174 1042 l 347 1042 l 347 1215 l 868 1215 l 868 1042 l 1042 1042 l 1042 868 l 1215 868 l 1215 0 l 868 0 l 868 868 l 694 868 l 694 1042 l 521 1042 l 521 868 l 347 868 l 347 0 l 0 0 z "},"¤":{"ha":1389,"x_min":174,"x_max":1042,"o":"m 347 174 l 174 174 l 174 347 l 347 347 l 347 174 m 1042 868 l 868 868 l 868 1042 l 1042 1042 l 1042 868 m 347 868 l 174 868 l 174 1042 l 347 1042 l 347 868 m 868 347 l 347 347 l 347 868 l 868 868 l 868 347 m 694 521 l 694 694 l 521 694 l 521 521 l 694 521 m 1042 174 l 868 174 l 868 347 l 1042 347 l 1042 174 z "},"®":{"ha":1389,"x_min":0,"x_max":1215,"o":"m 174 174 l 0 174 l 0 1042 l 174 1042 l 174 174 m 521 521 l 521 347 l 347 347 l 347 868 l 521 868 l 521 694 l 694 694 l 694 521 l 521 521 m 868 694 l 694 694 l 694 868 l 868 868 l 868 694 m 174 0 l 174 174 l 1042 174 l 1042 0 l 174 0 m 1215 174 l 1042 174 l 1042 1042 l 1215 1042 l 1215 174 m 1042 1215 l 1042 1042 l 174 1042 l 174 1215 l 1042 1215 z "},"ˇ":{"ha":1389,"x_min":347,"x_max":868,"o":"m 694 868 l 521 868 l 521 1042 l 694 1042 l 694 868 m 868 1042 l 694 1042 l 694 1215 l 868 1215 l 868 1042 m 521 1042 l 347 1042 l 347 1215 l 521 1215 l 521 1042 z "},"Č":{"ha":1389,"x_min":0,"x_max":1215,"o":"m 694 868 l 1042 868 l 1042 694 l 1215 694 l 1215 521 l 868 521 l 868 694 l 347 694 l 347 174 l 868 174 l 868 347 l 1215 347 l 1215 174 l 1042 174 l 1042 0 l 174 0 l 174 174 l 0 174 l 0 694 l 174 694 l 174 868 l 521 868 l 521 1042 l 694 1042 l 694 868 m 521 1042 l 347 1042 l 347 1215 l 521 1215 l 521 1042 m 868 1042 l 694 1042 l 694 1215 l 868 1215 l 868 1042 z "},"č":{"ha":1389,"x_min":0,"x_max":1215,"o":"m 174 174 l 0 174 l 0 521 l 174 521 l 174 694 l 1215 694 l 1215 521 l 347 521 l 347 174 l 1215 174 l 1215 0 l 174 0 l 174 174 m 694 868 l 521 868 l 521 1042 l 694 1042 l 694 868 m 868 1042 l 694 1042 l 694 1215 l 868 1215 l 868 1042 m 521 1042 l 347 1042 l 347 1215 l 521 1215 l 521 1042 z "},"Ď":{"ha":1389,"x_min":0,"x_max":1215,"o":"m 694 174 l 694 347 l 868 347 l 868 521 l 694 521 l 694 694 l 347 694 l 347 174 l 694 174 m 521 868 l 868 868 l 868 694 l 1042 694 l 1042 521 l 1215 521 l 1215 347 l 1042 347 l 1042 174 l 868 174 l 868 0 l 0 0 l 0 868 l 347 868 l 347 1042 l 521 1042 l 521 868 m 347 1042 l 174 1042 l 174 1215 l 347 1215 l 347 1042 m 694 1042 l 521 1042 l 521 1215 l 694 1215 l 694 1042 z "},"ď":{"ha":1389,"x_min":0,"x_max":1215,"o":"m 347 174 l 521 174 l 521 694 l 347 694 l 347 174 m 174 174 l 0 174 l 0 694 l 174 694 l 174 868 l 521 868 l 521 1215 l 868 1215 l 868 0 l 174 0 l 174 174 m 1042 1215 l 1215 1215 l 1215 694 l 1042 694 l 1042 1215 z "},"Ě":{"ha":1389,"x_min":0,"x_max":1215,"o":"m 694 868 l 1215 868 l 1215 694 l 347 694 l 347 521 l 868 521 l 868 347 l 347 347 l 347 174 l 1215 174 l 1215 0 l 0 0 l 0 868 l 521 868 l 521 1042 l 694 1042 l 694 868 m 521 1042 l 347 1042 l 347 1215 l 521 1215 l 521 1042 m 868 1042 l 694 1042 l 694 1215 l 868 1215 l 868 1042 z "},"ě":{"ha":1389,"x_min":0,"x_max":1215,"o":"m 868 521 l 868 694 l 347 694 l 347 521 l 868 521 m 694 868 l 1042 868 l 1042 694 l 1215 694 l 1215 347 l 347 347 l 347 174 l 1042 174 l 1042 0 l 174 0 l 174 174 l 0 174 l 0 694 l 174 694 l 174 868 l 521 868 l 521 1042 l 694 1042 l 694 868 m 521 1042 l 347 1042 l 347 1215 l 521 1215 l 521 1042 m 868 1042 l 694 1042 l 694 1215 l 868 1215 l 868 1042 z "},"Ľ":{"ha":1389,"x_min":0,"x_max":1215,"o":"m 0 0 l 0 1215 l 347 1215 l 347 174 l 1215 174 l 1215 0 l 0 0 m 1042 521 l 868 521 l 868 694 l 1042 694 l 1042 521 m 1042 868 l 868 868 l 868 1215 l 1215 1215 l 1215 694 l 1042 694 l 1042 868 z "},"ľ":{"ha":1389,"x_min":0,"x_max":1215,"o":"m 174 347 l 0 347 l 0 1215 l 347 1215 l 347 347 l 694 347 l 694 174 l 1215 174 l 1215 0 l 521 0 l 521 174 l 174 174 l 174 347 m 1042 1215 l 1215 1215 l 1215 694 l 1042 694 l 1042 1215 z "},"Ň":{"ha":1389,"x_min":0,"x_max":1215,"o":"m 694 347 l 521 347 l 521 521 l 694 521 l 694 347 m 521 521 l 347 521 l 347 0 l 0 0 l 0 868 l 347 868 l 347 694 l 521 694 l 521 521 m 694 347 l 868 347 l 868 868 l 1215 868 l 1215 0 l 868 0 l 868 174 l 694 174 l 694 347 m 694 868 l 521 868 l 521 1042 l 694 1042 l 694 868 m 868 1042 l 694 1042 l 694 1215 l 868 1215 l 868 1042 m 521 1042 l 347 1042 l 347 1215 l 521 1215 l 521 1042 z "},"ň":{"ha":1389,"x_min":0,"x_max":1215,"o":"m 694 868 l 1042 868 l 1042 694 l 1215 694 l 1215 0 l 868 0 l 868 694 l 347 694 l 347 0 l 0 0 l 0 868 l 521 868 l 521 1042 l 694 1042 l 694 868 m 521 1042 l 347 1042 l 347 1215 l 521 1215 l 521 1042 m 868 1042 l 694 1042 l 694 1215 l 868 1215 l 868 1042 z "},"Ř":{"ha":1389,"x_min":0,"x_max":1215,"o":"m 347 521 l 868 521 l 868 694 l 347 694 l 347 521 m 694 868 l 1042 868 l 1042 694 l 1215 694 l 1215 521 l 1042 521 l 1042 347 l 868 347 l 868 174 l 1215 174 l 1215 0 l 694 0 l 694 174 l 521 174 l 521 347 l 347 347 l 347 0 l 0 0 l 0 868 l 521 868 l 521 1042 l 694 1042 l 694 868 m 521 1042 l 347 1042 l 347 1215 l 521 1215 l 521 1042 m 868 1042 l 694 1042 l 694 1215 l 868 1215 l 868 1042 z "},"ř":{"ha":1389,"x_min":0,"x_max":1215,"o":"m 0 0 l 0 868 l 347 868 l 347 694 l 521 694 l 521 521 l 347 521 l 347 0 l 0 0 m 521 1042 l 347 1042 l 347 1215 l 521 1215 l 521 1042 m 868 1042 l 694 1042 l 694 1215 l 868 1215 l 868 1042 m 694 868 l 1042 868 l 1042 694 l 1215 694 l 1215 521 l 868 521 l 868 694 l 521 694 l 521 1042 l 694 1042 l 694 868 z "},"Š":{"ha":1389,"x_min":0,"x_max":1215,"o":"m 694 868 l 1215 868 l 1215 694 l 347 694 l 347 521 l 1215 521 l 1215 0 l 0 0 l 0 174 l 868 174 l 868 347 l 0 347 l 0 868 l 521 868 l 521 1042 l 694 1042 l 694 868 m 521 1042 l 347 1042 l 347 1215 l 521 1215 l 521 1042 m 868 1042 l 694 1042 l 694 1215 l 868 1215 l 868 1042 z "},"š":{"ha":1389,"x_min":0,"x_max":1215,"o":"m 694 868 l 1042 868 l 1042 694 l 347 694 l 347 521 l 1042 521 l 1042 347 l 1215 347 l 1215 174 l 1042 174 l 1042 0 l 174 0 l 174 174 l 868 174 l 868 347 l 174 347 l 174 521 l 0 521 l 0 694 l 174 694 l 174 868 l 521 868 l 521 1042 l 694 1042 l 694 868 m 521 1042 l 347 1042 l 347 1215 l 521 1215 l 521 1042 m 868 1042 l 694 1042 l 694 1215 l 868 1215 l 868 1042 z "},"Ť":{"ha":1389,"x_min":0,"x_max":1215,"o":"m 694 868 l 1215 868 l 1215 694 l 868 694 l 868 0 l 347 0 l 347 694 l 0 694 l 0 868 l 521 868 l 521 1042 l 694 1042 l 694 868 m 521 1042 l 347 1042 l 347 1215 l 521 1215 l 521 1042 m 868 1042 l 694 1042 l 694 1215 l 868 1215 l 868 1042 z "},"ť":{"ha":1389,"x_min":0,"x_max":1215,"o":"m 0 694 l 0 868 l 347 868 l 347 1215 l 694 1215 l 694 868 l 868 868 l 868 694 l 694 694 l 694 174 l 1215 174 l 1215 0 l 347 0 l 347 694 l 0 694 m 1042 1215 l 1215 1215 l 1215 694 l 1042 694 l 1042 1215 z "},"Ž":{"ha":1389,"x_min":0,"x_max":1215,"o":"m 694 868 l 1215 868 l 1215 694 l 1042 694 l 1042 521 l 868 521 l 868 347 l 694 347 l 694 174 l 1215 174 l 1215 0 l 0 0 l 0 174 l 174 174 l 174 347 l 347 347 l 347 521 l 521 521 l 521 694 l 0 694 l 0 868 l 521 868 l 521 1042 l 694 1042 l 694 868 m 521 1042 l 347 1042 l 347 1215 l 521 1215 l 521 1042 m 868 1042 l 694 1042 l 694 1215 l 868 1215 l 868 1042 z "},"ž":{"ha":1389,"x_min":0,"x_max":1215,"o":"m 0 0 l 0 174 l 174 174 l 174 347 l 347 347 l 347 521 l 0 521 l 0 694 l 1215 694 l 1215 521 l 868 521 l 868 347 l 694 347 l 694 174 l 1215 174 l 1215 0 l 0 0 m 694 868 l 521 868 l 521 1042 l 694 1042 l 694 868 m 868 1042 l 694 1042 l 694 1215 l 868 1215 l 868 1042 m 521 1042 l 347 1042 l 347 1215 l 521 1215 l 521 1042 z "},"Ǎ":{"ha":1389,"x_min":0,"x_max":1215,"o":"m 868 347 l 868 521 l 694 521 l 694 694 l 521 694 l 521 521 l 347 521 l 347 347 l 868 347 m 694 868 l 868 868 l 868 694 l 1042 694 l 1042 521 l 1215 521 l 1215 0 l 868 0 l 868 174 l 347 174 l 347 0 l 0 0 l 0 521 l 174 521 l 174 694 l 347 694 l 347 868 l 521 868 l 521 1042 l 694 1042 l 694 868 m 521 1042 l 347 1042 l 347 1215 l 521 1215 l 521 1042 m 868 1042 l 694 1042 l 694 1215 l 868 1215 l 868 1042 z "},"ǎ":{"ha":1389,"x_min":0,"x_max":1215,"o":"m 347 174 l 868 174 l 868 347 l 347 347 l 347 174 m 694 868 l 1042 868 l 1042 694 l 1215 694 l 1215 0 l 174 0 l 174 174 l 0 174 l 0 347 l 174 347 l 174 521 l 868 521 l 868 694 l 174 694 l 174 868 l 521 868 l 521 1042 l 694 1042 l 694 868 m 521 1042 l 347 1042 l 347 1215 l 521 1215 l 521 1042 m 868 1042 l 694 1042 l 694 1215 l 868 1215 l 868 1042 z "},"Ǐ":{"ha":1389,"x_min":0,"x_max":1215,"o":"m 694 868 l 1215 868 l 1215 694 l 868 694 l 868 174 l 1215 174 l 1215 0 l 0 0 l 0 174 l 347 174 l 347 694 l 0 694 l 0 868 l 521 868 l 521 1042 l 694 1042 l 694 868 m 521 1042 l 347 1042 l 347 1215 l 521 1215 l 521 1042 m 868 1042 l 694 1042 l 694 1215 l 868 1215 l 868 1042 z "},"ǐ":{"ha":1389,"x_min":0,"x_max":1215,"o":"m 694 868 l 868 868 l 868 174 l 1215 174 l 1215 0 l 0 0 l 0 174 l 521 174 l 521 694 l 174 694 l 174 868 l 521 868 l 521 1042 l 694 1042 l 694 868 m 521 1042 l 347 1042 l 347 1215 l 521 1215 l 521 1042 m 868 1042 l 694 1042 l 694 1215 l 868 1215 l 868 1042 z "},"Ǒ":{"ha":1389,"x_min":0,"x_max":1215,"o":"m 868 694 l 347 694 l 347 174 l 868 174 l 868 694 m 694 868 l 1042 868 l 1042 694 l 1215 694 l 1215 174 l 1042 174 l 1042 0 l 174 0 l 174 174 l 0 174 l 0 694 l 174 694 l 174 868 l 521 868 l 521 1042 l 694 1042 l 694 868 m 521 1042 l 347 1042 l 347 1215 l 521 1215 l 521 1042 m 868 1042 l 694 1042 l 694 1215 l 868 1215 l 868 1042 z "},"ǒ":{"ha":1389,"x_min":0,"x_max":1215,"o":"m 174 174 l 0 174 l 0 521 l 174 521 l 174 694 l 1042 694 l 1042 521 l 1215 521 l 1215 174 l 1042 174 l 1042 0 l 174 0 l 174 174 m 868 521 l 347 521 l 347 174 l 868 174 l 868 521 m 694 868 l 521 868 l 521 1042 l 694 1042 l 694 868 m 868 1042 l 694 1042 l 694 1215 l 868 1215 l 868 1042 m 521 1042 l 347 1042 l 347 1215 l 521 1215 l 521 1042 z "},"Ǔ":{"ha":1389,"x_min":0,"x_max":1215,"o":"m 174 174 l 0 174 l 0 868 l 347 868 l 347 174 l 868 174 l 868 868 l 1215 868 l 1215 174 l 1042 174 l 1042 0 l 174 0 l 174 174 m 694 868 l 521 868 l 521 1042 l 694 1042 l 694 868 m 868 1042 l 694 1042 l 694 1215 l 868 1215 l 868 1042 m 521 1042 l 347 1042 l 347 1215 l 521 1215 l 521 1042 z "},"ǔ":{"ha":1389,"x_min":0,"x_max":1215,"o":"m 174 174 l 0 174 l 0 694 l 347 694 l 347 174 l 868 174 l 868 694 l 1215 694 l 1215 174 l 1042 174 l 1042 0 l 174 0 l 174 174 m 694 868 l 521 868 l 521 1042 l 694 1042 l 694 868 m 868 1042 l 694 1042 l 694 1215 l 868 1215 l 868 1042 m 521 1042 l 347 1042 l 347 1215 l 521 1215 l 521 1042 z "},"Ǧ":{"ha":1389,"x_min":0,"x_max":1215,"o":"m 694 868 l 1215 868 l 1215 694 l 347 694 l 347 174 l 868 174 l 868 347 l 521 347 l 521 521 l 1215 521 l 1215 0 l 174 0 l 174 174 l 0 174 l 0 694 l 174 694 l 174 868 l 521 868 l 521 1042 l 694 1042 l 694 868 m 521 1042 l 347 1042 l 347 1215 l 521 1215 l 521 1042 m 868 1042 l 694 1042 l 694 1215 l 868 1215 l 868 1042 z "},"ǧ":{"ha":1389,"x_min":0,"x_max":1215,"o":"m 868 521 l 868 694 l 347 694 l 347 521 l 868 521 m 694 868 l 1215 868 l 1215 174 l 1042 174 l 1042 0 l 174 0 l 174 174 l 868 174 l 868 347 l 174 347 l 174 521 l 0 521 l 0 694 l 174 694 l 174 868 l 521 868 l 521 1042 l 694 1042 l 694 868 m 521 1042 l 347 1042 l 347 1215 l 521 1215 l 521 1042 m 868 1042 l 694 1042 l 694 1215 l 868 1215 l 868 1042 z "},"Ǩ":{"ha":1389,"x_min":0,"x_max":1215,"o":"m 0 0 l 0 868 l 347 868 l 347 521 l 694 521 l 694 694 l 868 694 l 868 868 l 1215 868 l 1215 694 l 1042 694 l 1042 521 l 868 521 l 868 347 l 1042 347 l 1042 174 l 1215 174 l 1215 0 l 868 0 l 868 174 l 694 174 l 694 347 l 347 347 l 347 0 l 0 0 m 694 868 l 521 868 l 521 1042 l 694 1042 l 694 868 m 868 1042 l 694 1042 l 694 1215 l 868 1215 l 868 1042 m 521 1042 l 347 1042 l 347 1215 l 521 1215 l 521 1042 z "},"ǩ":{"ha":1389,"x_min":0,"x_max":1215,"o":"m 521 1042 l 347 1042 l 347 1215 l 521 1215 l 521 1042 m 694 174 l 347 174 l 347 0 l 0 0 l 0 694 l 347 694 l 347 347 l 694 347 l 694 521 l 868 521 l 868 694 l 1215 694 l 1215 521 l 1042 521 l 1042 347 l 868 347 l 868 174 l 1215 174 l 1215 0 l 694 0 l 694 174 m 694 868 l 521 868 l 521 1042 l 694 1042 l 694 868 m 868 1042 l 694 1042 l 694 1215 l 868 1215 l 868 1042 z "},"Ȟ":{"ha":1389,"x_min":0,"x_max":1215,"o":"m 0 0 l 0 868 l 347 868 l 347 521 l 868 521 l 868 868 l 1215 868 l 1215 0 l 868 0 l 868 347 l 347 347 l 347 0 l 0 0 m 694 868 l 521 868 l 521 1042 l 694 1042 l 694 868 m 868 1042 l 694 1042 l 694 1215 l 868 1215 l 868 1042 m 521 1042 l 347 1042 l 347 1215 l 521 1215 l 521 1042 z "},"ȟ":{"ha":1389,"x_min":0,"x_max":1215,"o":"m 0 0 l 0 868 l 347 868 l 347 521 l 1042 521 l 1042 347 l 1215 347 l 1215 0 l 868 0 l 868 347 l 347 347 l 347 0 l 0 0 m 694 868 l 521 868 l 521 1042 l 694 1042 l 694 868 m 868 1042 l 694 1042 l 694 1215 l 868 1215 l 868 1042 m 521 1042 l 347 1042 l 347 1215 l 521 1215 l 521 1042 z "},"`":{"ha":1389,"x_min":347,"x_max":694,"o":"m 694 868 l 521 868 l 521 1042 l 694 1042 l 694 868 m 521 1042 l 347 1042 l 347 1215 l 521 1215 l 521 1042 z "},"À":{"ha":1389,"x_min":0,"x_max":1215,"o":"m 868 347 l 868 521 l 694 521 l 694 694 l 521 694 l 521 521 l 347 521 l 347 347 l 868 347 m 694 868 l 868 868 l 868 694 l 1042 694 l 1042 521 l 1215 521 l 1215 0 l 868 0 l 868 174 l 347 174 l 347 0 l 0 0 l 0 521 l 174 521 l 174 694 l 347 694 l 347 868 l 521 868 l 521 1042 l 694 1042 l 694 868 m 521 1042 l 347 1042 l 347 1215 l 521 1215 l 521 1042 z "},"à":{"ha":1389,"x_min":0,"x_max":1215,"o":"m 347 174 l 868 174 l 868 347 l 347 347 l 347 174 m 694 868 l 1042 868 l 1042 694 l 1215 694 l 1215 0 l 174 0 l 174 174 l 0 174 l 0 347 l 174 347 l 174 521 l 868 521 l 868 694 l 174 694 l 174 868 l 521 868 l 521 1042 l 694 1042 l 694 868 m 521 1042 l 347 1042 l 347 1215 l 521 1215 l 521 1042 z "},"È":{"ha":1389,"x_min":0,"x_max":1215,"o":"m 694 868 l 1215 868 l 1215 694 l 347 694 l 347 521 l 868 521 l 868 347 l 347 347 l 347 174 l 1215 174 l 1215 0 l 0 0 l 0 868 l 521 868 l 521 1042 l 694 1042 l 694 868 m 521 1042 l 347 1042 l 347 1215 l 521 1215 l 521 1042 z "},"è":{"ha":1389,"x_min":0,"x_max":1215,"o":"m 868 521 l 868 694 l 347 694 l 347 521 l 868 521 m 694 868 l 1042 868 l 1042 694 l 1215 694 l 1215 347 l 347 347 l 347 174 l 1042 174 l 1042 0 l 174 0 l 174 174 l 0 174 l 0 694 l 174 694 l 174 868 l 521 868 l 521 1042 l 694 1042 l 694 868 m 521 1042 l 347 1042 l 347 1215 l 521 1215 l 521 1042 z "},"Ì":{"ha":1389,"x_min":0,"x_max":1215,"o":"m 694 868 l 1215 868 l 1215 694 l 868 694 l 868 174 l 1215 174 l 1215 0 l 0 0 l 0 174 l 347 174 l 347 694 l 0 694 l 0 868 l 521 868 l 521 1042 l 694 1042 l 694 868 m 521 1042 l 347 1042 l 347 1215 l 521 1215 l 521 1042 z "},"ì":{"ha":1389,"x_min":0,"x_max":1215,"o":"m 694 868 l 868 868 l 868 174 l 1215 174 l 1215 0 l 0 0 l 0 174 l 521 174 l 521 694 l 174 694 l 174 868 l 521 868 l 521 1042 l 694 1042 l 694 868 m 521 1042 l 347 1042 l 347 1215 l 521 1215 l 521 1042 z "},"Ò":{"ha":1389,"x_min":0,"x_max":1215,"o":"m 868 694 l 347 694 l 347 174 l 868 174 l 868 694 m 694 868 l 1042 868 l 1042 694 l 1215 694 l 1215 174 l 1042 174 l 1042 0 l 174 0 l 174 174 l 0 174 l 0 694 l 174 694 l 174 868 l 521 868 l 521 1042 l 694 1042 l 694 868 m 521 1042 l 347 1042 l 347 1215 l 521 1215 l 521 1042 z "},"ò":{"ha":1389,"x_min":0,"x_max":1215,"o":"m 174 174 l 0 174 l 0 521 l 174 521 l 174 694 l 1042 694 l 1042 521 l 1215 521 l 1215 174 l 1042 174 l 1042 0 l 174 0 l 174 174 m 868 521 l 347 521 l 347 174 l 868 174 l 868 521 m 694 868 l 521 868 l 521 1042 l 694 1042 l 694 868 m 521 1042 l 347 1042 l 347 1215 l 521 1215 l 521 1042 z "},"Ù":{"ha":1389,"x_min":0,"x_max":1215,"o":"m 174 174 l 0 174 l 0 868 l 347 868 l 347 174 l 868 174 l 868 868 l 1215 868 l 1215 174 l 1042 174 l 1042 0 l 174 0 l 174 174 m 694 868 l 521 868 l 521 1042 l 694 1042 l 694 868 m 521 1042 l 347 1042 l 347 1215 l 521 1215 l 521 1042 z "},"ù":{"ha":1389,"x_min":0,"x_max":1215,"o":"m 174 174 l 0 174 l 0 694 l 347 694 l 347 174 l 868 174 l 868 694 l 1215 694 l 1215 174 l 1042 174 l 1042 0 l 174 0 l 174 174 m 694 868 l 521 868 l 521 1042 l 694 1042 l 694 868 m 521 1042 l 347 1042 l 347 1215 l 521 1215 l 521 1042 z "},"Ǹ":{"ha":1389,"x_min":0,"x_max":1215,"o":"m 694 347 l 521 347 l 521 521 l 694 521 l 694 347 m 521 521 l 347 521 l 347 0 l 0 0 l 0 868 l 347 868 l 347 694 l 521 694 l 521 521 m 694 347 l 868 347 l 868 868 l 1215 868 l 1215 0 l 868 0 l 868 174 l 694 174 l 694 347 m 694 868 l 521 868 l 521 1042 l 694 1042 l 694 868 m 521 1042 l 347 1042 l 347 1215 l 521 1215 l 521 1042 z "},"ǹ":{"ha":1389,"x_min":0,"x_max":1215,"o":"m 694 868 l 1042 868 l 1042 694 l 1215 694 l 1215 0 l 868 0 l 868 694 l 347 694 l 347 0 l 0 0 l 0 868 l 521 868 l 521 1042 l 694 1042 l 694 868 m 521 1042 l 347 1042 l 347 1215 l 521 1215 l 521 1042 z "},"Ẁ":{"ha":1389,"x_min":0,"x_max":1215,"o":"m 1215 868 l 1215 0 l 868 0 l 868 174 l 694 174 l 694 347 l 521 347 l 521 174 l 347 174 l 347 0 l 0 0 l 0 868 l 347 868 l 347 521 l 521 521 l 521 694 l 694 694 l 694 521 l 868 521 l 868 868 l 1215 868 m 694 868 l 521 868 l 521 1042 l 694 1042 l 694 868 m 521 1042 l 347 1042 l 347 1215 l 521 1215 l 521 1042 z "},"ẁ":{"ha":1389,"x_min":0,"x_max":1215,"o":"m 521 174 l 521 0 l 174 0 l 174 174 l 0 174 l 0 868 l 347 868 l 347 347 l 521 347 l 521 694 l 694 694 l 694 347 l 868 347 l 868 868 l 1215 868 l 1215 174 l 1042 174 l 1042 0 l 694 0 l 694 174 l 521 174 m 694 868 l 521 868 l 521 1042 l 694 1042 l 694 868 m 521 1042 l 347 1042 l 347 1215 l 521 1215 l 521 1042 z "},"Ỳ":{"ha":1389,"x_min":0,"x_max":1215,"o":"m 174 521 l 0 521 l 0 868 l 347 868 l 347 521 l 868 521 l 868 868 l 1215 868 l 1215 521 l 1042 521 l 1042 347 l 868 347 l 868 0 l 347 0 l 347 347 l 174 347 l 174 521 m 694 868 l 521 868 l 521 1042 l 694 1042 l 694 868 m 521 1042 l 347 1042 l 347 1215 l 521 1215 l 521 1042 z "},"ỳ":{"ha":1389,"x_min":0,"x_max":1215,"o":"m 0 0 l 0 174 l 347 174 l 347 347 l 174 347 l 174 521 l 0 521 l 0 868 l 347 868 l 347 521 l 521 521 l 521 347 l 694 347 l 694 521 l 868 521 l 868 868 l 1215 868 l 1215 521 l 1042 521 l 1042 347 l 868 347 l 868 174 l 694 174 l 694 0 l 0 0 m 694 868 l 521 868 l 521 1042 l 694 1042 l 694 868 m 521 1042 l 347 1042 l 347 1215 l 521 1215 l 521 1042 z "},"´":{"ha":1389,"x_min":521,"x_max":868,"o":"m 694 868 l 521 868 l 521 1042 l 694 1042 l 694 868 m 868 1042 l 694 1042 l 694 1215 l 868 1215 l 868 1042 z "},"Á":{"ha":1389,"x_min":0,"x_max":1215,"o":"m 868 347 l 868 521 l 694 521 l 694 694 l 521 694 l 521 521 l 347 521 l 347 347 l 868 347 m 694 868 l 868 868 l 868 694 l 1042 694 l 1042 521 l 1215 521 l 1215 0 l 868 0 l 868 174 l 347 174 l 347 0 l 0 0 l 0 521 l 174 521 l 174 694 l 347 694 l 347 868 l 521 868 l 521 1042 l 694 1042 l 694 868 m 868 1042 l 694 1042 l 694 1215 l 868 1215 l 868 1042 z "},"á":{"ha":1389,"x_min":0,"x_max":1215,"o":"m 347 174 l 868 174 l 868 347 l 347 347 l 347 174 m 694 868 l 1042 868 l 1042 694 l 1215 694 l 1215 0 l 174 0 l 174 174 l 0 174 l 0 347 l 174 347 l 174 521 l 868 521 l 868 694 l 174 694 l 174 868 l 521 868 l 521 1042 l 694 1042 l 694 868 m 868 1042 l 694 1042 l 694 1215 l 868 1215 l 868 1042 z "},"É":{"ha":1389,"x_min":0,"x_max":1215,"o":"m 694 868 l 1215 868 l 1215 694 l 347 694 l 347 521 l 868 521 l 868 347 l 347 347 l 347 174 l 1215 174 l 1215 0 l 0 0 l 0 868 l 521 868 l 521 1042 l 694 1042 l 694 868 m 868 1042 l 694 1042 l 694 1215 l 868 1215 l 868 1042 z "},"é":{"ha":1389,"x_min":0,"x_max":1215,"o":"m 868 521 l 868 694 l 347 694 l 347 521 l 868 521 m 694 868 l 1042 868 l 1042 694 l 1215 694 l 1215 347 l 347 347 l 347 174 l 1042 174 l 1042 0 l 174 0 l 174 174 l 0 174 l 0 694 l 174 694 l 174 868 l 521 868 l 521 1042 l 694 1042 l 694 868 m 868 1042 l 694 1042 l 694 1215 l 868 1215 l 868 1042 z "},"Í":{"ha":1389,"x_min":0,"x_max":1215,"o":"m 694 868 l 1215 868 l 1215 694 l 868 694 l 868 174 l 1215 174 l 1215 0 l 0 0 l 0 174 l 347 174 l 347 694 l 0 694 l 0 868 l 521 868 l 521 1042 l 694 1042 l 694 868 m 868 1042 l 694 1042 l 694 1215 l 868 1215 l 868 1042 z "},"í":{"ha":1389,"x_min":0,"x_max":1215,"o":"m 694 868 l 868 868 l 868 174 l 1215 174 l 1215 0 l 0 0 l 0 174 l 521 174 l 521 694 l 174 694 l 174 868 l 521 868 l 521 1042 l 694 1042 l 694 868 m 868 1042 l 694 1042 l 694 1215 l 868 1215 l 868 1042 z "},"Ó":{"ha":1389,"x_min":0,"x_max":1215,"o":"m 868 694 l 347 694 l 347 174 l 868 174 l 868 694 m 694 868 l 1042 868 l 1042 694 l 1215 694 l 1215 174 l 1042 174 l 1042 0 l 174 0 l 174 174 l 0 174 l 0 694 l 174 694 l 174 868 l 521 868 l 521 1042 l 694 1042 l 694 868 m 868 1042 l 694 1042 l 694 1215 l 868 1215 l 868 1042 z "},"ó":{"ha":1389,"x_min":0,"x_max":1215,"o":"m 174 174 l 0 174 l 0 521 l 174 521 l 174 694 l 1042 694 l 1042 521 l 1215 521 l 1215 174 l 1042 174 l 1042 0 l 174 0 l 174 174 m 868 521 l 347 521 l 347 174 l 868 174 l 868 521 m 694 868 l 521 868 l 521 1042 l 694 1042 l 694 868 m 868 1042 l 694 1042 l 694 1215 l 868 1215 l 868 1042 z "},"Ú":{"ha":1389,"x_min":0,"x_max":1215,"o":"m 174 174 l 0 174 l 0 868 l 347 868 l 347 174 l 868 174 l 868 868 l 1215 868 l 1215 174 l 1042 174 l 1042 0 l 174 0 l 174 174 m 694 868 l 521 868 l 521 1042 l 694 1042 l 694 868 m 868 1042 l 694 1042 l 694 1215 l 868 1215 l 868 1042 z "},"ú":{"ha":1389,"x_min":0,"x_max":1215,"o":"m 174 174 l 0 174 l 0 694 l 347 694 l 347 174 l 868 174 l 868 694 l 1215 694 l 1215 174 l 1042 174 l 1042 0 l 174 0 l 174 174 m 694 868 l 521 868 l 521 1042 l 694 1042 l 694 868 m 868 1042 l 694 1042 l 694 1215 l 868 1215 l 868 1042 z "},"Ý":{"ha":1389,"x_min":0,"x_max":1215,"o":"m 174 521 l 0 521 l 0 868 l 347 868 l 347 521 l 868 521 l 868 868 l 1215 868 l 1215 521 l 1042 521 l 1042 347 l 868 347 l 868 0 l 347 0 l 347 347 l 174 347 l 174 521 m 694 868 l 521 868 l 521 1042 l 694 1042 l 694 868 m 868 1042 l 694 1042 l 694 1215 l 868 1215 l 868 1042 z "},"ý":{"ha":1389,"x_min":0,"x_max":1215,"o":"m 0 0 l 0 174 l 347 174 l 347 347 l 174 347 l 174 521 l 0 521 l 0 868 l 347 868 l 347 521 l 521 521 l 521 347 l 694 347 l 694 521 l 868 521 l 868 868 l 1215 868 l 1215 521 l 1042 521 l 1042 347 l 868 347 l 868 174 l 694 174 l 694 0 l 0 0 m 694 868 l 521 868 l 521 1042 l 694 1042 l 694 868 m 868 1042 l 694 1042 l 694 1215 l 868 1215 l 868 1042 z "},"Ć":{"ha":1389,"x_min":0,"x_max":1215,"o":"m 694 868 l 1042 868 l 1042 694 l 1215 694 l 1215 521 l 868 521 l 868 694 l 347 694 l 347 174 l 868 174 l 868 347 l 1215 347 l 1215 174 l 1042 174 l 1042 0 l 174 0 l 174 174 l 0 174 l 0 694 l 174 694 l 174 868 l 521 868 l 521 1042 l 694 1042 l 694 868 m 868 1042 l 694 1042 l 694 1215 l 868 1215 l 868 1042 z "},"ć":{"ha":1389,"x_min":0,"x_max":1215,"o":"m 174 174 l 0 174 l 0 521 l 174 521 l 174 694 l 1215 694 l 1215 521 l 347 521 l 347 174 l 1215 174 l 1215 0 l 174 0 l 174 174 m 694 868 l 521 868 l 521 1042 l 694 1042 l 694 868 m 868 1042 l 694 1042 l 694 1215 l 868 1215 l 868 1042 z "},"Ĺ":{"ha":1389,"x_min":0,"x_max":1215,"o":"m 0 0 l 0 868 l 347 868 l 347 174 l 1215 174 l 1215 0 l 0 0 m 694 868 l 521 868 l 521 1042 l 694 1042 l 694 868 m 868 1042 l 694 1042 l 694 1215 l 868 1215 l 868 1042 z "},"ĺ":{"ha":1389,"x_min":0,"x_max":1215,"o":"m 694 868 l 521 868 l 521 1042 l 694 1042 l 694 868 m 521 174 l 1215 174 l 1215 0 l 347 0 l 347 174 l 0 174 l 0 868 l 347 868 l 347 347 l 521 347 l 521 174 m 868 1042 l 694 1042 l 694 1215 l 868 1215 l 868 1042 z "},"Ń":{"ha":1389,"x_min":0,"x_max":1215,"o":"m 694 347 l 521 347 l 521 521 l 694 521 l 694 347 m 521 521 l 347 521 l 347 0 l 0 0 l 0 868 l 347 868 l 347 694 l 521 694 l 521 521 m 694 347 l 868 347 l 868 868 l 1215 868 l 1215 0 l 868 0 l 868 174 l 694 174 l 694 347 m 694 868 l 521 868 l 521 1042 l 694 1042 l 694 868 m 868 1042 l 694 1042 l 694 1215 l 868 1215 l 868 1042 z "},"ń":{"ha":1389,"x_min":0,"x_max":1215,"o":"m 694 868 l 1042 868 l 1042 694 l 1215 694 l 1215 0 l 868 0 l 868 694 l 347 694 l 347 0 l 0 0 l 0 868 l 521 868 l 521 1042 l 694 1042 l 694 868 m 868 1042 l 694 1042 l 694 1215 l 868 1215 l 868 1042 z "},"Ŕ":{"ha":1389,"x_min":0,"x_max":1215,"o":"m 347 521 l 868 521 l 868 694 l 347 694 l 347 521 m 694 868 l 1042 868 l 1042 694 l 1215 694 l 1215 521 l 1042 521 l 1042 347 l 868 347 l 868 174 l 1215 174 l 1215 0 l 694 0 l 694 174 l 521 174 l 521 347 l 347 347 l 347 0 l 0 0 l 0 868 l 521 868 l 521 1042 l 694 1042 l 694 868 m 868 1042 l 694 1042 l 694 1215 l 868 1215 l 868 1042 z "},"ŕ":{"ha":1389,"x_min":0,"x_max":1215,"o":"m 0 0 l 0 868 l 347 868 l 347 694 l 521 694 l 521 521 l 347 521 l 347 0 l 0 0 m 868 1042 l 694 1042 l 694 1215 l 868 1215 l 868 1042 m 694 868 l 1042 868 l 1042 694 l 1215 694 l 1215 521 l 868 521 l 868 694 l 521 694 l 521 1042 l 694 1042 l 694 868 z "},"Ś":{"ha":1389,"x_min":0,"x_max":1215,"o":"m 694 868 l 1215 868 l 1215 694 l 347 694 l 347 521 l 1215 521 l 1215 0 l 0 0 l 0 174 l 868 174 l 868 347 l 0 347 l 0 868 l 521 868 l 521 1042 l 694 1042 l 694 868 m 868 1042 l 694 1042 l 694 1215 l 868 1215 l 868 1042 z "},"ś":{"ha":1389,"x_min":0,"x_max":1215,"o":"m 694 868 l 1042 868 l 1042 694 l 347 694 l 347 521 l 1042 521 l 1042 347 l 1215 347 l 1215 174 l 1042 174 l 1042 0 l 174 0 l 174 174 l 868 174 l 868 347 l 174 347 l 174 521 l 0 521 l 0 694 l 174 694 l 174 868 l 521 868 l 521 1042 l 694 1042 l 694 868 m 868 1042 l 694 1042 l 694 1215 l 868 1215 l 868 1042 z "},"Ź":{"ha":1389,"x_min":0,"x_max":1215,"o":"m 694 868 l 1215 868 l 1215 694 l 1042 694 l 1042 521 l 868 521 l 868 347 l 694 347 l 694 174 l 1215 174 l 1215 0 l 0 0 l 0 174 l 174 174 l 174 347 l 347 347 l 347 521 l 521 521 l 521 694 l 0 694 l 0 868 l 521 868 l 521 1042 l 694 1042 l 694 868 m 868 1042 l 694 1042 l 694 1215 l 868 1215 l 868 1042 z "},"ź":{"ha":1389,"x_min":0,"x_max":1215,"o":"m 0 0 l 0 174 l 174 174 l 174 347 l 347 347 l 347 521 l 0 521 l 0 694 l 1215 694 l 1215 521 l 868 521 l 868 347 l 694 347 l 694 174 l 1215 174 l 1215 0 l 0 0 m 694 868 l 521 868 l 521 1042 l 694 1042 l 694 868 m 868 1042 l 694 1042 l 694 1215 l 868 1215 l 868 1042 z "},"Ǵ":{"ha":1389,"x_min":0,"x_max":1215,"o":"m 694 868 l 1215 868 l 1215 694 l 347 694 l 347 174 l 868 174 l 868 347 l 521 347 l 521 521 l 1215 521 l 1215 0 l 174 0 l 174 174 l 0 174 l 0 694 l 174 694 l 174 868 l 521 868 l 521 1042 l 694 1042 l 694 868 m 868 1042 l 694 1042 l 694 1215 l 868 1215 l 868 1042 z "},"ǵ":{"ha":1389,"x_min":0,"x_max":1215,"o":"m 868 521 l 868 694 l 347 694 l 347 521 l 868 521 m 694 868 l 1215 868 l 1215 174 l 1042 174 l 1042 0 l 174 0 l 174 174 l 868 174 l 868 347 l 174 347 l 174 521 l 0 521 l 0 694 l 174 694 l 174 868 l 521 868 l 521 1042 l 694 1042 l 694 868 m 868 1042 l 694 1042 l 694 1215 l 868 1215 l 868 1042 z "},"Ḱ":{"ha":1389,"x_min":0,"x_max":1215,"o":"m 0 0 l 0 868 l 347 868 l 347 521 l 694 521 l 694 694 l 868 694 l 868 868 l 1215 868 l 1215 694 l 1042 694 l 1042 521 l 868 521 l 868 347 l 1042 347 l 1042 174 l 1215 174 l 1215 0 l 868 0 l 868 174 l 694 174 l 694 347 l 347 347 l 347 0 l 0 0 m 694 868 l 521 868 l 521 1042 l 694 1042 l 694 868 m 868 1042 l 694 1042 l 694 1215 l 868 1215 l 868 1042 z "},"ḱ":{"ha":1389,"x_min":0,"x_max":1215,"o":"m 694 174 l 347 174 l 347 0 l 0 0 l 0 694 l 347 694 l 347 347 l 694 347 l 694 521 l 868 521 l 868 694 l 1215 694 l 1215 521 l 1042 521 l 1042 347 l 868 347 l 868 174 l 1215 174 l 1215 0 l 694 0 l 694 174 m 694 868 l 521 868 l 521 1042 l 694 1042 l 694 868 m 868 1042 l 694 1042 l 694 1215 l 868 1215 l 868 1042 z "},"Ḿ":{"ha":1389,"x_min":0,"x_max":1215,"o":"m 0 0 l 0 868 l 347 868 l 347 694 l 521 694 l 521 521 l 694 521 l 694 694 l 868 694 l 868 868 l 1215 868 l 1215 0 l 868 0 l 868 347 l 694 347 l 694 174 l 521 174 l 521 347 l 347 347 l 347 0 l 0 0 m 694 868 l 521 868 l 521 1042 l 694 1042 l 694 868 m 868 1042 l 694 1042 l 694 1215 l 868 1215 l 868 1042 z "},"ḿ":{"ha":1389,"x_min":0,"x_max":1215,"o":"m 694 868 l 1042 868 l 1042 694 l 1215 694 l 1215 0 l 868 0 l 868 694 l 694 694 l 694 0 l 521 0 l 521 694 l 347 694 l 347 0 l 0 0 l 0 868 l 521 868 l 521 1042 l 694 1042 l 694 868 m 868 1042 l 694 1042 l 694 1215 l 868 1215 l 868 1042 z "},"Ṕ":{"ha":1389,"x_min":0,"x_max":1215,"o":"m 868 521 l 868 694 l 347 694 l 347 521 l 868 521 m 694 868 l 1042 868 l 1042 694 l 1215 694 l 1215 521 l 1042 521 l 1042 347 l 347 347 l 347 0 l 0 0 l 0 868 l 521 868 l 521 1042 l 694 1042 l 694 868 m 868 1042 l 694 1042 l 694 1215 l 868 1215 l 868 1042 z "},"ṕ":{"ha":1389,"x_min":0,"x_max":1215,"o":"m 868 347 l 868 521 l 347 521 l 347 347 l 868 347 m 0 0 l 0 694 l 1042 694 l 1042 521 l 1215 521 l 1215 347 l 1042 347 l 1042 174 l 347 174 l 347 0 l 0 0 m 694 868 l 521 868 l 521 1042 l 694 1042 l 694 868 m 868 1042 l 694 1042 l 694 1215 l 868 1215 l 868 1042 z "},"Ẃ":{"ha":1389,"x_min":0,"x_max":1215,"o":"m 1215 868 l 1215 0 l 868 0 l 868 174 l 694 174 l 694 347 l 521 347 l 521 174 l 347 174 l 347 0 l 0 0 l 0 868 l 347 868 l 347 521 l 521 521 l 521 694 l 694 694 l 694 521 l 868 521 l 868 868 l 1215 868 m 694 868 l 521 868 l 521 1042 l 694 1042 l 694 868 m 868 1042 l 694 1042 l 694 1215 l 868 1215 l 868 1042 z "},"ẃ":{"ha":1389,"x_min":0,"x_max":1215,"o":"m 521 174 l 521 0 l 174 0 l 174 174 l 0 174 l 0 868 l 347 868 l 347 347 l 521 347 l 521 694 l 694 694 l 694 347 l 868 347 l 868 868 l 1215 868 l 1215 174 l 1042 174 l 1042 0 l 694 0 l 694 174 l 521 174 m 694 868 l 521 868 l 521 1042 l 694 1042 l 694 868 m 868 1042 l 694 1042 l 694 1215 l 868 1215 l 868 1042 z "},"₫":{"ha":1389,"x_min":0,"x_max":1215,"o":"m 347 521 l 868 521 l 868 694 l 347 694 l 347 521 m 1215 0 l 174 0 l 174 174 l 1215 174 l 1215 0 m 1042 1042 l 1042 347 l 174 347 l 174 521 l 0 521 l 0 694 l 174 694 l 174 868 l 868 868 l 868 1042 l 694 1042 l 694 1215 l 1215 1215 l 1215 1042 l 1042 1042 z "},"₣":{"ha":1389,"x_min":0,"x_max":1215,"o":"m 521 174 l 521 0 l 174 0 l 174 174 l 0 174 l 0 347 l 174 347 l 174 1215 l 1215 1215 l 1215 1042 l 521 1042 l 521 694 l 1042 694 l 1042 521 l 521 521 l 521 347 l 694 347 l 694 174 l 521 174 z "},"ˆ":{"ha":1389,"x_min":347,"x_max":868,"o":"m 694 1042 l 521 1042 l 521 1215 l 694 1215 l 694 1042 m 868 868 l 694 868 l 694 1042 l 868 1042 l 868 868 m 521 868 l 347 868 l 347 1042 l 521 1042 l 521 868 z "},"Â":{"ha":1389,"x_min":0,"x_max":1215,"o":"m 868 347 l 868 521 l 694 521 l 694 694 l 521 694 l 521 521 l 347 521 l 347 347 l 868 347 m 694 1042 l 521 1042 l 521 1215 l 694 1215 l 694 1042 m 694 868 l 694 1042 l 868 1042 l 868 694 l 1042 694 l 1042 521 l 1215 521 l 1215 0 l 868 0 l 868 174 l 347 174 l 347 0 l 0 0 l 0 521 l 174 521 l 174 694 l 347 694 l 347 1042 l 521 1042 l 521 868 l 694 868 z "},"â":{"ha":1389,"x_min":0,"x_max":1215,"o":"m 347 174 l 868 174 l 868 347 l 347 347 l 347 174 m 694 1042 l 521 1042 l 521 1215 l 694 1215 l 694 1042 m 694 868 l 694 1042 l 868 1042 l 868 868 l 1042 868 l 1042 694 l 1215 694 l 1215 0 l 174 0 l 174 174 l 0 174 l 0 347 l 174 347 l 174 521 l 868 521 l 868 694 l 174 694 l 174 868 l 347 868 l 347 1042 l 521 1042 l 521 868 l 694 868 z "},"Ê":{"ha":1389,"x_min":0,"x_max":1215,"o":"m 694 1042 l 521 1042 l 521 1215 l 694 1215 l 694 1042 m 694 868 l 694 1042 l 868 1042 l 868 868 l 1215 868 l 1215 694 l 347 694 l 347 521 l 868 521 l 868 347 l 347 347 l 347 174 l 1215 174 l 1215 0 l 0 0 l 0 868 l 347 868 l 347 1042 l 521 1042 l 521 868 l 694 868 z "},"ê":{"ha":1389,"x_min":0,"x_max":1215,"o":"m 868 521 l 868 694 l 347 694 l 347 521 l 868 521 m 694 1042 l 521 1042 l 521 1215 l 694 1215 l 694 1042 m 694 868 l 694 1042 l 868 1042 l 868 868 l 1042 868 l 1042 694 l 1215 694 l 1215 347 l 347 347 l 347 174 l 1042 174 l 1042 0 l 174 0 l 174 174 l 0 174 l 0 694 l 174 694 l 174 868 l 347 868 l 347 1042 l 521 1042 l 521 868 l 694 868 z "},"Î":{"ha":1389,"x_min":0,"x_max":1215,"o":"m 694 1042 l 521 1042 l 521 1215 l 694 1215 l 694 1042 m 694 868 l 694 1042 l 868 1042 l 868 868 l 1215 868 l 1215 694 l 868 694 l 868 174 l 1215 174 l 1215 0 l 0 0 l 0 174 l 347 174 l 347 694 l 0 694 l 0 868 l 347 868 l 347 1042 l 521 1042 l 521 868 l 694 868 z "},"î":{"ha":1389,"x_min":0,"x_max":1215,"o":"m 694 1042 l 521 1042 l 521 1215 l 694 1215 l 694 1042 m 694 868 l 694 1042 l 868 1042 l 868 174 l 1215 174 l 1215 0 l 0 0 l 0 174 l 521 174 l 521 694 l 174 694 l 174 868 l 347 868 l 347 1042 l 521 1042 l 521 868 l 694 868 z "},"Ô":{"ha":1389,"x_min":0,"x_max":1215,"o":"m 868 694 l 347 694 l 347 174 l 868 174 l 868 694 m 694 1042 l 521 1042 l 521 1215 l 694 1215 l 694 1042 m 694 868 l 694 1042 l 868 1042 l 868 868 l 1042 868 l 1042 694 l 1215 694 l 1215 174 l 1042 174 l 1042 0 l 174 0 l 174 174 l 0 174 l 0 694 l 174 694 l 174 868 l 347 868 l 347 1042 l 521 1042 l 521 868 l 694 868 z "},"ô":{"ha":1389,"x_min":0,"x_max":1215,"o":"m 174 174 l 0 174 l 0 521 l 174 521 l 174 694 l 1042 694 l 1042 521 l 1215 521 l 1215 174 l 1042 174 l 1042 0 l 174 0 l 174 174 m 868 521 l 347 521 l 347 174 l 868 174 l 868 521 m 694 1042 l 521 1042 l 521 1215 l 694 1215 l 694 1042 m 868 868 l 694 868 l 694 1042 l 868 1042 l 868 868 m 521 868 l 347 868 l 347 1042 l 521 1042 l 521 868 z "},"Û":{"ha":1389,"x_min":0,"x_max":1215,"o":"m 174 174 l 0 174 l 0 868 l 347 868 l 347 174 l 868 174 l 868 868 l 1215 868 l 1215 174 l 1042 174 l 1042 0 l 174 0 l 174 174 m 521 868 l 347 868 l 347 1042 l 521 1042 l 521 868 m 868 868 l 694 868 l 694 1042 l 868 1042 l 868 868 m 694 1042 l 521 1042 l 521 1215 l 694 1215 l 694 1042 z "},"û":{"ha":1389,"x_min":0,"x_max":1215,"o":"m 174 174 l 0 174 l 0 694 l 347 694 l 347 174 l 868 174 l 868 694 l 1215 694 l 1215 174 l 1042 174 l 1042 0 l 174 0 l 174 174 m 694 1042 l 521 1042 l 521 1215 l 694 1215 l 694 1042 m 868 868 l 694 868 l 694 1042 l 868 1042 l 868 868 m 521 868 l 347 868 l 347 1042 l 521 1042 l 521 868 z "},"Ĉ":{"ha":1389,"x_min":0,"x_max":1215,"o":"m 694 1042 l 521 1042 l 521 1215 l 694 1215 l 694 1042 m 694 868 l 694 1042 l 868 1042 l 868 868 l 1042 868 l 1042 694 l 1215 694 l 1215 521 l 868 521 l 868 694 l 347 694 l 347 174 l 868 174 l 868 347 l 1215 347 l 1215 174 l 1042 174 l 1042 0 l 174 0 l 174 174 l 0 174 l 0 694 l 174 694 l 174 868 l 347 868 l 347 1042 l 521 1042 l 521 868 l 694 868 z "},"ĉ":{"ha":1389,"x_min":0,"x_max":1215,"o":"m 174 174 l 0 174 l 0 521 l 174 521 l 174 694 l 1215 694 l 1215 521 l 347 521 l 347 174 l 1215 174 l 1215 0 l 174 0 l 174 174 m 694 1042 l 521 1042 l 521 1215 l 694 1215 l 694 1042 m 868 868 l 694 868 l 694 1042 l 868 1042 l 868 868 m 521 868 l 347 868 l 347 1042 l 521 1042 l 521 868 z "},"Ĝ":{"ha":1389,"x_min":0,"x_max":1215,"o":"m 694 1042 l 521 1042 l 521 1215 l 694 1215 l 694 1042 m 694 868 l 694 1042 l 868 1042 l 868 868 l 1215 868 l 1215 694 l 347 694 l 347 174 l 868 174 l 868 347 l 521 347 l 521 521 l 1215 521 l 1215 0 l 174 0 l 174 174 l 0 174 l 0 694 l 174 694 l 174 868 l 347 868 l 347 1042 l 521 1042 l 521 868 l 694 868 z "},"ĝ":{"ha":1389,"x_min":0,"x_max":1215,"o":"m 868 521 l 868 694 l 347 694 l 347 521 l 868 521 m 694 1042 l 521 1042 l 521 1215 l 694 1215 l 694 1042 m 694 868 l 694 1042 l 868 1042 l 868 868 l 1215 868 l 1215 174 l 1042 174 l 1042 0 l 174 0 l 174 174 l 868 174 l 868 347 l 174 347 l 174 521 l 0 521 l 0 694 l 174 694 l 174 868 l 347 868 l 347 1042 l 521 1042 l 521 868 l 694 868 z "},"Ĥ":{"ha":1389,"x_min":0,"x_max":1215,"o":"m 0 0 l 0 868 l 347 868 l 347 521 l 868 521 l 868 868 l 1215 868 l 1215 0 l 868 0 l 868 347 l 347 347 l 347 0 l 0 0 m 521 868 l 347 868 l 347 1042 l 521 1042 l 521 868 m 868 868 l 694 868 l 694 1042 l 868 1042 l 868 868 m 694 1042 l 521 1042 l 521 1215 l 694 1215 l 694 1042 z "},"ĥ":{"ha":1389,"x_min":0,"x_max":1215,"o":"m 0 0 l 0 868 l 347 868 l 347 521 l 1042 521 l 1042 347 l 1215 347 l 1215 0 l 868 0 l 868 347 l 347 347 l 347 0 l 0 0 m 521 868 l 347 868 l 347 1042 l 521 1042 l 521 868 m 868 868 l 694 868 l 694 1042 l 868 1042 l 868 868 m 694 1042 l 521 1042 l 521 1215 l 694 1215 l 694 1042 z "},"Ĵ":{"ha":1389,"x_min":0,"x_max":1215,"o":"m 1042 1042 l 868 1042 l 868 1215 l 1042 1215 l 1042 1042 m 868 868 l 694 868 l 694 1042 l 868 1042 l 868 868 m 1215 174 l 1042 174 l 1042 0 l 174 0 l 174 174 l 0 174 l 0 347 l 347 347 l 347 174 l 868 174 l 868 868 l 1042 868 l 1042 1042 l 1215 1042 l 1215 174 z "},"ĵ":{"ha":1389,"x_min":0,"x_max":1215,"o":"m 174 174 l 0 174 l 0 347 l 347 347 l 347 174 l 868 174 l 868 694 l 1215 694 l 1215 174 l 1042 174 l 1042 0 l 174 0 l 174 174 m 1042 1042 l 868 1042 l 868 1215 l 1042 1215 l 1042 1042 m 1215 868 l 1042 868 l 1042 1042 l 1215 1042 l 1215 868 m 868 868 l 694 868 l 694 1042 l 868 1042 l 868 868 z "},"Ŝ":{"ha":1389,"x_min":0,"x_max":1215,"o":"m 694 1042 l 521 1042 l 521 1215 l 694 1215 l 694 1042 m 694 868 l 694 1042 l 868 1042 l 868 868 l 1215 868 l 1215 694 l 347 694 l 347 521 l 1215 521 l 1215 0 l 0 0 l 0 174 l 868 174 l 868 347 l 0 347 l 0 868 l 347 868 l 347 1042 l 521 1042 l 521 868 l 694 868 z "},"ŝ":{"ha":1389,"x_min":0,"x_max":1215,"o":"m 694 1042 l 521 1042 l 521 1215 l 694 1215 l 694 1042 m 694 868 l 694 1042 l 868 1042 l 868 868 l 1042 868 l 1042 694 l 347 694 l 347 521 l 1042 521 l 1042 347 l 1215 347 l 1215 174 l 1042 174 l 1042 0 l 174 0 l 174 174 l 868 174 l 868 347 l 174 347 l 174 521 l 0 521 l 0 694 l 174 694 l 174 868 l 347 868 l 347 1042 l 521 1042 l 521 868 l 694 868 z "},"Ŵ":{"ha":1389,"x_min":0,"x_max":1215,"o":"m 1215 868 l 1215 0 l 868 0 l 868 174 l 694 174 l 694 347 l 521 347 l 521 174 l 347 174 l 347 0 l 0 0 l 0 868 l 347 868 l 347 521 l 521 521 l 521 694 l 694 694 l 694 521 l 868 521 l 868 868 l 1215 868 m 521 868 l 347 868 l 347 1042 l 521 1042 l 521 868 m 868 868 l 694 868 l 694 1042 l 868 1042 l 868 868 m 694 1042 l 521 1042 l 521 1215 l 694 1215 l 694 1042 z "},"ŵ":{"ha":1389,"x_min":0,"x_max":1215,"o":"m 521 174 l 521 0 l 174 0 l 174 174 l 0 174 l 0 868 l 347 868 l 347 347 l 521 347 l 521 694 l 694 694 l 694 347 l 868 347 l 868 868 l 1215 868 l 1215 174 l 1042 174 l 1042 0 l 694 0 l 694 174 l 521 174 m 521 868 l 347 868 l 347 1042 l 521 1042 l 521 868 m 868 868 l 694 868 l 694 1042 l 868 1042 l 868 868 m 694 1042 l 521 1042 l 521 1215 l 694 1215 l 694 1042 z "},"Ŷ":{"ha":1389,"x_min":0,"x_max":1215,"o":"m 174 521 l 0 521 l 0 868 l 347 868 l 347 521 l 868 521 l 868 868 l 1215 868 l 1215 521 l 1042 521 l 1042 347 l 868 347 l 868 0 l 347 0 l 347 347 l 174 347 l 174 521 m 521 868 l 347 868 l 347 1042 l 521 1042 l 521 868 m 868 868 l 694 868 l 694 1042 l 868 1042 l 868 868 m 694 1042 l 521 1042 l 521 1215 l 694 1215 l 694 1042 z "},"ŷ":{"ha":1389,"x_min":0,"x_max":1215,"o":"m 0 0 l 0 174 l 347 174 l 347 347 l 174 347 l 174 521 l 0 521 l 0 868 l 347 868 l 347 521 l 521 521 l 521 347 l 694 347 l 694 521 l 868 521 l 868 868 l 1215 868 l 1215 521 l 1042 521 l 1042 347 l 868 347 l 868 174 l 694 174 l 694 0 l 0 0 m 521 868 l 347 868 l 347 1042 l 521 1042 l 521 868 m 868 868 l 694 868 l 694 1042 l 868 1042 l 868 868 m 694 1042 l 521 1042 l 521 1215 l 694 1215 l 694 1042 z "},"Ẑ":{"ha":1389,"x_min":0,"x_max":1215,"o":"m 694 1042 l 521 1042 l 521 1215 l 694 1215 l 694 1042 m 694 868 l 694 1042 l 868 1042 l 868 868 l 1215 868 l 1215 694 l 1042 694 l 1042 521 l 868 521 l 868 347 l 694 347 l 694 174 l 1215 174 l 1215 0 l 0 0 l 0 174 l 174 174 l 174 347 l 347 347 l 347 521 l 521 521 l 521 694 l 0 694 l 0 868 l 347 868 l 347 1042 l 521 1042 l 521 868 l 694 868 z "},"ẑ":{"ha":1389,"x_min":0,"x_max":1215,"o":"m 0 0 l 0 174 l 174 174 l 174 347 l 347 347 l 347 521 l 0 521 l 0 694 l 1215 694 l 1215 521 l 868 521 l 868 347 l 694 347 l 694 174 l 1215 174 l 1215 0 l 0 0 m 694 1042 l 521 1042 l 521 1215 l 694 1215 l 694 1042 m 868 868 l 694 868 l 694 1042 l 868 1042 l 868 868 m 521 868 l 347 868 l 347 1042 l 521 1042 l 521 868 z "},"˜":{"ha":1389,"x_min":347,"x_max":1042,"o":"m 868 1042 l 868 868 l 694 868 l 694 1042 l 868 1042 m 521 1042 l 521 868 l 347 868 l 347 1042 l 521 1042 m 694 1042 l 521 1042 l 521 1215 l 694 1215 l 694 1042 m 868 1042 l 868 1215 l 1042 1215 l 1042 1042 l 868 1042 z "},"Ã":{"ha":1389,"x_min":0,"x_max":1215,"o":"m 868 347 l 868 521 l 694 521 l 694 694 l 521 694 l 521 521 l 347 521 l 347 347 l 868 347 m 694 868 l 694 1042 l 868 1042 l 868 694 l 1042 694 l 1042 521 l 1215 521 l 1215 0 l 868 0 l 868 174 l 347 174 l 347 0 l 0 0 l 0 521 l 174 521 l 174 694 l 347 694 l 347 1042 l 521 1042 l 521 868 l 694 868 m 868 1042 l 868 1215 l 1042 1215 l 1042 1042 l 868 1042 m 694 1042 l 521 1042 l 521 1215 l 694 1215 l 694 1042 z "},"ã":{"ha":1389,"x_min":0,"x_max":1215,"o":"m 347 174 l 868 174 l 868 347 l 347 347 l 347 174 m 694 868 l 694 1042 l 868 1042 l 868 868 l 1042 868 l 1042 694 l 1215 694 l 1215 0 l 174 0 l 174 174 l 0 174 l 0 347 l 174 347 l 174 521 l 868 521 l 868 694 l 174 694 l 174 868 l 347 868 l 347 1042 l 521 1042 l 521 868 l 694 868 m 868 1042 l 868 1215 l 1042 1215 l 1042 1042 l 868 1042 m 694 1042 l 521 1042 l 521 1215 l 694 1215 l 694 1042 z "},"Ñ":{"ha":1389,"x_min":0,"x_max":1215,"o":"m 694 347 l 521 347 l 521 521 l 694 521 l 694 347 m 521 521 l 347 521 l 347 0 l 0 0 l 0 868 l 347 868 l 347 694 l 521 694 l 521 521 m 694 347 l 868 347 l 868 868 l 1215 868 l 1215 0 l 868 0 l 868 174 l 694 174 l 694 347 m 868 1042 l 868 868 l 694 868 l 694 1042 l 868 1042 m 521 1042 l 521 868 l 347 868 l 347 1042 l 521 1042 m 694 1042 l 521 1042 l 521 1215 l 694 1215 l 694 1042 m 868 1042 l 868 1215 l 1042 1215 l 1042 1042 l 868 1042 z "},"ñ":{"ha":1389,"x_min":0,"x_max":1215,"o":"m 694 868 l 694 1042 l 868 1042 l 868 868 l 1042 868 l 1042 694 l 1215 694 l 1215 0 l 868 0 l 868 694 l 347 694 l 347 0 l 0 0 l 0 868 l 347 868 l 347 1042 l 521 1042 l 521 868 l 694 868 m 868 1042 l 868 1215 l 1042 1215 l 1042 1042 l 868 1042 m 694 1042 l 521 1042 l 521 1215 l 694 1215 l 694 1042 z "},"Õ":{"ha":1389,"x_min":0,"x_max":1215,"o":"m 868 694 l 347 694 l 347 174 l 868 174 l 868 694 m 694 868 l 694 1042 l 868 1042 l 868 868 l 1042 868 l 1042 694 l 1215 694 l 1215 174 l 1042 174 l 1042 0 l 174 0 l 174 174 l 0 174 l 0 694 l 174 694 l 174 868 l 347 868 l 347 1042 l 521 1042 l 521 868 l 694 868 m 868 1042 l 868 1215 l 1042 1215 l 1042 1042 l 868 1042 m 694 1042 l 521 1042 l 521 1215 l 694 1215 l 694 1042 z "},"õ":{"ha":1389,"x_min":0,"x_max":1215,"o":"m 174 174 l 0 174 l 0 521 l 174 521 l 174 694 l 1042 694 l 1042 521 l 1215 521 l 1215 174 l 1042 174 l 1042 0 l 174 0 l 174 174 m 868 521 l 347 521 l 347 174 l 868 174 l 868 521 m 868 1042 l 868 868 l 694 868 l 694 1042 l 868 1042 m 521 1042 l 521 868 l 347 868 l 347 1042 l 521 1042 m 694 1042 l 521 1042 l 521 1215 l 694 1215 l 694 1042 m 868 1042 l 868 1215 l 1042 1215 l 1042 1042 l 868 1042 z "},"Ĩ":{"ha":1389,"x_min":0,"x_max":1215,"o":"m 694 868 l 694 1042 l 868 1042 l 868 868 l 1215 868 l 1215 694 l 868 694 l 868 174 l 1215 174 l 1215 0 l 0 0 l 0 174 l 347 174 l 347 694 l 0 694 l 0 868 l 347 868 l 347 1042 l 521 1042 l 521 868 l 694 868 m 868 1042 l 868 1215 l 1042 1215 l 1042 1042 l 868 1042 m 694 1042 l 521 1042 l 521 1215 l 694 1215 l 694 1042 z "},"ĩ":{"ha":1389,"x_min":0,"x_max":1215,"o":"m 694 868 l 694 1042 l 868 1042 l 868 174 l 1215 174 l 1215 0 l 0 0 l 0 174 l 521 174 l 521 694 l 174 694 l 174 868 l 347 868 l 347 1042 l 521 1042 l 521 868 l 694 868 m 868 1042 l 868 1215 l 1042 1215 l 1042 1042 l 868 1042 m 694 1042 l 521 1042 l 521 1215 l 694 1215 l 694 1042 z "},"Ũ":{"ha":1389,"x_min":0,"x_max":1215,"o":"m 174 174 l 0 174 l 0 868 l 347 868 l 347 174 l 868 174 l 868 868 l 1215 868 l 1215 174 l 1042 174 l 1042 0 l 174 0 l 174 174 m 868 1042 l 868 868 l 694 868 l 694 1042 l 868 1042 m 521 1042 l 521 868 l 347 868 l 347 1042 l 521 1042 m 694 1042 l 521 1042 l 521 1215 l 694 1215 l 694 1042 m 868 1042 l 868 1215 l 1042 1215 l 1042 1042 l 868 1042 z "},"ũ":{"ha":1389,"x_min":0,"x_max":1215,"o":"m 174 174 l 0 174 l 0 694 l 347 694 l 347 174 l 868 174 l 868 694 l 1215 694 l 1215 174 l 1042 174 l 1042 0 l 174 0 l 174 174 m 868 1042 l 868 868 l 694 868 l 694 1042 l 868 1042 m 521 1042 l 521 868 l 347 868 l 347 1042 l 521 1042 m 694 1042 l 521 1042 l 521 1215 l 694 1215 l 694 1042 m 868 1042 l 868 1215 l 1042 1215 l 1042 1042 l 868 1042 z "},"Ṽ":{"ha":1389,"x_min":0,"x_max":1215,"o":"m 174 521 l 0 521 l 0 868 l 347 868 l 347 521 l 521 521 l 521 347 l 694 347 l 694 521 l 868 521 l 868 868 l 1215 868 l 1215 521 l 1042 521 l 1042 347 l 868 347 l 868 174 l 694 174 l 694 0 l 521 0 l 521 174 l 347 174 l 347 347 l 174 347 l 174 521 m 868 1042 l 868 868 l 694 868 l 694 1042 l 868 1042 m 521 1042 l 521 868 l 347 868 l 347 1042 l 521 1042 m 694 1042 l 521 1042 l 521 1215 l 694 1215 l 694 1042 m 868 1042 l 868 1215 l 1042 1215 l 1042 1042 l 868 1042 z "},"ṽ":{"ha":1389,"x_min":0,"x_max":1215,"o":"m 174 521 l 0 521 l 0 694 l 347 694 l 347 521 l 521 521 l 521 347 l 694 347 l 694 521 l 868 521 l 868 694 l 1215 694 l 1215 521 l 1042 521 l 1042 347 l 868 347 l 868 174 l 694 174 l 694 0 l 521 0 l 521 174 l 347 174 l 347 347 l 174 347 l 174 521 m 868 1042 l 868 868 l 694 868 l 694 1042 l 868 1042 m 521 1042 l 521 868 l 347 868 l 347 1042 l 521 1042 m 694 1042 l 521 1042 l 521 1215 l 694 1215 l 694 1042 m 868 1042 l 868 1215 l 1042 1215 l 1042 1042 l 868 1042 z "},"Ẽ":{"ha":1389,"x_min":0,"x_max":1215,"o":"m 694 868 l 694 1042 l 868 1042 l 868 868 l 1215 868 l 1215 694 l 347 694 l 347 521 l 868 521 l 868 347 l 347 347 l 347 174 l 1215 174 l 1215 0 l 0 0 l 0 868 l 347 868 l 347 1042 l 521 1042 l 521 868 l 694 868 m 868 1042 l 868 1215 l 1042 1215 l 1042 1042 l 868 1042 m 694 1042 l 521 1042 l 521 1215 l 694 1215 l 694 1042 z "},"ẽ":{"ha":1389,"x_min":0,"x_max":1215,"o":"m 868 521 l 868 694 l 347 694 l 347 521 l 868 521 m 694 868 l 694 1042 l 868 1042 l 868 868 l 1042 868 l 1042 694 l 1215 694 l 1215 347 l 347 347 l 347 174 l 1042 174 l 1042 0 l 174 0 l 174 174 l 0 174 l 0 694 l 174 694 l 174 868 l 347 868 l 347 1042 l 521 1042 l 521 868 l 694 868 m 868 1042 l 868 1215 l 1042 1215 l 1042 1042 l 868 1042 m 694 1042 l 521 1042 l 521 1215 l 694 1215 l 694 1042 z "},"Ỹ":{"ha":1389,"x_min":0,"x_max":1215,"o":"m 174 521 l 0 521 l 0 868 l 347 868 l 347 521 l 868 521 l 868 868 l 1215 868 l 1215 521 l 1042 521 l 1042 347 l 868 347 l 868 0 l 347 0 l 347 347 l 174 347 l 174 521 m 868 1042 l 868 868 l 694 868 l 694 1042 l 868 1042 m 521 1042 l 521 868 l 347 868 l 347 1042 l 521 1042 m 694 1042 l 521 1042 l 521 1215 l 694 1215 l 694 1042 m 868 1042 l 868 1215 l 1042 1215 l 1042 1042 l 868 1042 z "},"ỹ":{"ha":1389,"x_min":0,"x_max":1215,"o":"m 0 0 l 0 174 l 347 174 l 347 347 l 174 347 l 174 521 l 0 521 l 0 868 l 347 868 l 347 521 l 521 521 l 521 347 l 694 347 l 694 521 l 868 521 l 868 868 l 1215 868 l 1215 521 l 1042 521 l 1042 347 l 868 347 l 868 174 l 694 174 l 694 0 l 0 0 m 868 1042 l 868 868 l 694 868 l 694 1042 l 868 1042 m 521 1042 l 521 868 l 347 868 l 347 1042 l 521 1042 m 694 1042 l 521 1042 l 521 1215 l 694 1215 l 694 1042 m 868 1042 l 868 1215 l 1042 1215 l 1042 1042 l 868 1042 z "},"¸":{"ha":1389,"x_min":347,"x_max":694,"o":"m 521 0 l 347 0 l 347 174 l 521 174 l 521 0 m 694 174 l 521 174 l 521 347 l 694 347 l 694 174 z "},"Ç":{"ha":1389,"x_min":0,"x_max":1215,"o":"m 174 521 l 0 521 l 0 1042 l 174 1042 l 174 1215 l 1042 1215 l 1042 1042 l 1215 1042 l 1215 868 l 868 868 l 868 1042 l 347 1042 l 347 521 l 868 521 l 868 694 l 1215 694 l 1215 521 l 1042 521 l 1042 347 l 174 347 l 174 521 m 521 0 l 347 0 l 347 174 l 521 174 l 521 0 m 694 174 l 521 174 l 521 347 l 694 347 l 694 174 z "},"ç":{"ha":1389,"x_min":0,"x_max":1215,"o":"m 174 521 l 0 521 l 0 868 l 174 868 l 174 1042 l 1215 1042 l 1215 868 l 347 868 l 347 521 l 1215 521 l 1215 347 l 174 347 l 174 521 m 521 0 l 347 0 l 347 174 l 521 174 l 521 0 m 694 174 l 521 174 l 521 347 l 694 347 l 694 174 z "},"Ģ":{"ha":1389,"x_min":0,"x_max":1215,"o":"m 174 521 l 0 521 l 0 1042 l 174 1042 l 174 1215 l 1215 1215 l 1215 1042 l 347 1042 l 347 521 l 868 521 l 868 694 l 521 694 l 521 868 l 1215 868 l 1215 347 l 174 347 l 174 521 m 521 0 l 347 0 l 347 174 l 521 174 l 521 0 m 694 174 l 521 174 l 521 347 l 694 347 l 694 174 z "},"ģ":{"ha":1389,"x_min":0,"x_max":1215,"o":"m 868 521 l 868 694 l 347 694 l 347 521 l 868 521 m 694 868 l 1215 868 l 1215 174 l 1042 174 l 1042 0 l 174 0 l 174 174 l 868 174 l 868 347 l 174 347 l 174 521 l 0 521 l 0 694 l 174 694 l 174 868 l 521 868 l 521 1215 l 694 1215 l 694 868 z "},"Ķ":{"ha":1389,"x_min":0,"x_max":1215,"o":"m 0 347 l 0 1215 l 347 1215 l 347 868 l 694 868 l 694 1042 l 868 1042 l 868 1215 l 1215 1215 l 1215 1042 l 1042 1042 l 1042 868 l 868 868 l 868 694 l 1042 694 l 1042 521 l 1215 521 l 1215 347 l 868 347 l 868 521 l 694 521 l 694 694 l 347 694 l 347 347 l 0 347 m 521 0 l 347 0 l 347 174 l 521 174 l 521 0 m 694 174 l 521 174 l 521 347 l 694 347 l 694 174 z "},"ķ":{"ha":1389,"x_min":0,"x_max":1215,"o":"m 694 521 l 347 521 l 347 347 l 0 347 l 0 1042 l 347 1042 l 347 694 l 694 694 l 694 868 l 868 868 l 868 1042 l 1215 1042 l 1215 868 l 1042 868 l 1042 694 l 868 694 l 868 521 l 1215 521 l 1215 347 l 694 347 l 694 521 m 521 0 l 347 0 l 347 174 l 521 174 l 521 0 m 694 174 l 521 174 l 521 347 l 694 347 l 694 174 z "},"Ļ":{"ha":1389,"x_min":0,"x_max":1215,"o":"m 0 347 l 0 1215 l 347 1215 l 347 521 l 1215 521 l 1215 347 l 0 347 m 521 0 l 347 0 l 347 174 l 521 174 l 521 0 m 694 174 l 521 174 l 521 347 l 694 347 l 694 174 z "},"ļ":{"ha":1389,"x_min":0,"x_max":1215,"o":"m 521 521 l 1215 521 l 1215 347 l 347 347 l 347 521 l 0 521 l 0 1215 l 347 1215 l 347 694 l 521 694 l 521 521 m 521 0 l 347 0 l 347 174 l 521 174 l 521 0 m 694 174 l 521 174 l 521 347 l 694 347 l 694 174 z "},"Ņ":{"ha":1389,"x_min":0,"x_max":1215,"o":"m 694 694 l 521 694 l 521 868 l 694 868 l 694 694 m 521 868 l 347 868 l 347 347 l 0 347 l 0 1215 l 347 1215 l 347 1042 l 521 1042 l 521 868 m 694 694 l 868 694 l 868 1215 l 1215 1215 l 1215 347 l 868 347 l 868 521 l 694 521 l 694 694 m 521 0 l 347 0 l 347 174 l 521 174 l 521 0 m 694 174 l 521 174 l 521 347 l 694 347 l 694 174 z "},"ņ":{"ha":1389,"x_min":0,"x_max":1215,"o":"m 0 347 l 0 1215 l 1042 1215 l 1042 1042 l 1215 1042 l 1215 347 l 868 347 l 868 1042 l 347 1042 l 347 347 l 0 347 m 521 0 l 347 0 l 347 174 l 521 174 l 521 0 m 694 174 l 521 174 l 521 347 l 694 347 l 694 174 z "},"Ŗ":{"ha":1389,"x_min":0,"x_max":1215,"o":"m 347 868 l 868 868 l 868 1042 l 347 1042 l 347 868 m 1042 1215 l 1042 1042 l 1215 1042 l 1215 868 l 1042 868 l 1042 694 l 868 694 l 868 521 l 1215 521 l 1215 347 l 694 347 l 694 521 l 521 521 l 521 694 l 347 694 l 347 347 l 0 347 l 0 1215 l 1042 1215 m 521 0 l 347 0 l 347 174 l 521 174 l 521 0 m 694 174 l 521 174 l 521 347 l 694 347 l 694 174 z "},"ŗ":{"ha":1389,"x_min":0,"x_max":1215,"o":"m 0 347 l 0 1215 l 347 1215 l 347 1042 l 521 1042 l 521 868 l 347 868 l 347 347 l 0 347 m 1042 1042 l 1215 1042 l 1215 868 l 868 868 l 868 1042 l 521 1042 l 521 1215 l 1042 1215 l 1042 1042 m 521 0 l 347 0 l 347 174 l 521 174 l 521 0 m 694 174 l 521 174 l 521 347 l 694 347 l 694 174 z "},"Ş":{"ha":1389,"x_min":0,"x_max":1215,"o":"m 0 347 l 0 521 l 868 521 l 868 694 l 0 694 l 0 1215 l 1215 1215 l 1215 1042 l 347 1042 l 347 868 l 1215 868 l 1215 347 l 0 347 m 521 0 l 347 0 l 347 174 l 521 174 l 521 0 m 694 174 l 521 174 l 521 347 l 694 347 l 694 174 z "},"ş":{"ha":1389,"x_min":0,"x_max":1215,"o":"m 174 347 l 174 521 l 868 521 l 868 694 l 174 694 l 174 868 l 0 868 l 0 1042 l 174 1042 l 174 1215 l 1042 1215 l 1042 1042 l 347 1042 l 347 868 l 1042 868 l 1042 694 l 1215 694 l 1215 521 l 1042 521 l 1042 347 l 174 347 m 521 0 l 347 0 l 347 174 l 521 174 l 521 0 m 694 174 l 521 174 l 521 347 l 694 347 l 694 174 z "},"Ţ":{"ha":1389,"x_min":0,"x_max":1215,"o":"m 0 1042 l 0 1215 l 1215 1215 l 1215 1042 l 868 1042 l 868 347 l 347 347 l 347 1042 l 0 1042 m 521 0 l 347 0 l 347 174 l 521 174 l 521 0 m 694 174 l 521 174 l 521 347 l 694 347 l 694 174 z "},"ţ":{"ha":1389,"x_min":0,"x_max":1215,"o":"m 0 868 l 0 1042 l 347 1042 l 347 1215 l 694 1215 l 694 1042 l 1215 1042 l 1215 868 l 694 868 l 694 521 l 1215 521 l 1215 347 l 347 347 l 347 868 l 0 868 m 521 0 l 347 0 l 347 174 l 521 174 l 521 0 m 694 174 l 521 174 l 521 347 l 694 347 l 694 174 z "},"Ȩ":{"ha":1389,"x_min":0,"x_max":1215,"o":"m 0 347 l 0 1215 l 1215 1215 l 1215 1042 l 347 1042 l 347 868 l 868 868 l 868 694 l 347 694 l 347 521 l 1215 521 l 1215 347 l 0 347 m 521 0 l 347 0 l 347 174 l 521 174 l 521 0 m 694 174 l 521 174 l 521 347 l 694 347 l 694 174 z "},"ȩ":{"ha":1389,"x_min":0,"x_max":1215,"o":"m 868 868 l 868 1042 l 347 1042 l 347 868 l 868 868 m 174 521 l 0 521 l 0 1042 l 174 1042 l 174 1215 l 1042 1215 l 1042 1042 l 1215 1042 l 1215 694 l 347 694 l 347 521 l 1042 521 l 1042 347 l 174 347 l 174 521 m 521 0 l 347 0 l 347 174 l 521 174 l 521 0 m 694 174 l 521 174 l 521 347 l 694 347 l 694 174 z "},"Ḑ":{"ha":1389,"x_min":0,"x_max":1215,"o":"m 694 521 l 694 694 l 868 694 l 868 868 l 694 868 l 694 1042 l 347 1042 l 347 521 l 694 521 m 868 521 l 868 347 l 0 347 l 0 1215 l 868 1215 l 868 1042 l 1042 1042 l 1042 868 l 1215 868 l 1215 694 l 1042 694 l 1042 521 l 868 521 m 347 0 l 174 0 l 174 174 l 347 174 l 347 0 m 521 174 l 347 174 l 347 347 l 521 347 l 521 174 z "},"ḑ":{"ha":1389,"x_min":0,"x_max":1215,"o":"m 347 521 l 868 521 l 868 868 l 347 868 l 347 521 m 174 521 l 0 521 l 0 868 l 174 868 l 174 1042 l 868 1042 l 868 1215 l 1215 1215 l 1215 347 l 174 347 l 174 521 m 521 0 l 347 0 l 347 174 l 521 174 l 521 0 m 694 174 l 521 174 l 521 347 l 694 347 l 694 174 z "},"Ḩ":{"ha":1389,"x_min":0,"x_max":1215,"o":"m 0 347 l 0 1215 l 347 1215 l 347 868 l 868 868 l 868 1215 l 1215 1215 l 1215 347 l 868 347 l 868 694 l 347 694 l 347 347 l 0 347 m 521 0 l 347 0 l 347 174 l 521 174 l 521 0 m 694 174 l 521 174 l 521 347 l 694 347 l 694 174 z "},"ḩ":{"ha":1389,"x_min":0,"x_max":1215,"o":"m 0 347 l 0 1215 l 347 1215 l 347 868 l 1042 868 l 1042 694 l 1215 694 l 1215 347 l 868 347 l 868 694 l 347 694 l 347 347 l 0 347 m 521 0 l 347 0 l 347 174 l 521 174 l 521 0 m 694 174 l 521 174 l 521 347 l 694 347 l 694 174 z "},"Ș":{"ha":1389,"x_min":0,"x_max":1215,"o":"m 0 347 l 0 521 l 868 521 l 868 694 l 0 694 l 0 1215 l 1215 1215 l 1215 1042 l 347 1042 l 347 868 l 1215 868 l 1215 347 l 0 347 m 694 0 l 521 0 l 521 347 l 694 347 l 694 0 z "},"ș":{"ha":1389,"x_min":0,"x_max":1215,"o":"m 174 347 l 174 521 l 868 521 l 868 694 l 174 694 l 174 868 l 0 868 l 0 1042 l 174 1042 l 174 1215 l 1042 1215 l 1042 1042 l 347 1042 l 347 868 l 1042 868 l 1042 694 l 1215 694 l 1215 521 l 1042 521 l 1042 347 l 174 347 m 694 0 l 521 0 l 521 347 l 694 347 l 694 0 z "},"Ț":{"ha":1389,"x_min":0,"x_max":1215,"o":"m 0 1042 l 0 1215 l 1215 1215 l 1215 1042 l 868 1042 l 868 347 l 347 347 l 347 1042 l 0 1042 m 694 0 l 521 0 l 521 347 l 694 347 l 694 0 z "},"ț":{"ha":1389,"x_min":0,"x_max":1215,"o":"m 0 868 l 0 1042 l 347 1042 l 347 1215 l 694 1215 l 694 1042 l 1215 1042 l 1215 868 l 694 868 l 694 521 l 1215 521 l 1215 347 l 347 347 l 347 868 l 0 868 m 694 0 l 521 0 l 521 347 l 694 347 l 694 0 z "},"˛":{"ha":1389,"x_min":868,"x_max":1215,"o":"m 1215 174 l 1215 0 l 1042 0 l 1042 174 l 1215 174 m 1042 174 l 868 174 l 868 347 l 1042 347 l 1042 174 z "},"Ą":{"ha":1389,"x_min":0,"x_max":1215,"o":"m 868 694 l 868 868 l 694 868 l 694 1042 l 521 1042 l 521 868 l 347 868 l 347 694 l 868 694 m 1215 174 l 1215 0 l 1042 0 l 1042 174 l 1215 174 m 868 521 l 347 521 l 347 347 l 0 347 l 0 868 l 174 868 l 174 1042 l 347 1042 l 347 1215 l 868 1215 l 868 1042 l 1042 1042 l 1042 868 l 1215 868 l 1215 347 l 1042 347 l 1042 174 l 868 174 l 868 521 z "},"ą":{"ha":1389,"x_min":0,"x_max":1215,"o":"m 347 521 l 868 521 l 868 694 l 347 694 l 347 521 m 1215 174 l 1215 0 l 1042 0 l 1042 174 l 1215 174 m 868 347 l 174 347 l 174 521 l 0 521 l 0 694 l 174 694 l 174 868 l 868 868 l 868 1042 l 174 1042 l 174 1215 l 1042 1215 l 1042 1042 l 1215 1042 l 1215 347 l 1042 347 l 1042 174 l 868 174 l 868 347 z "},"Ę":{"ha":1389,"x_min":0,"x_max":1215,"o":"m 1215 174 l 1215 0 l 1042 0 l 1042 174 l 1215 174 m 868 347 l 0 347 l 0 1215 l 1215 1215 l 1215 1042 l 347 1042 l 347 868 l 868 868 l 868 694 l 347 694 l 347 521 l 1215 521 l 1215 347 l 1042 347 l 1042 174 l 868 174 l 868 347 z "},"ę":{"ha":1389,"x_min":0,"x_max":1215,"o":"m 868 868 l 868 1042 l 347 1042 l 347 868 l 868 868 m 1042 174 l 1042 0 l 868 0 l 868 174 l 1042 174 m 694 347 l 174 347 l 174 521 l 0 521 l 0 1042 l 174 1042 l 174 1215 l 1042 1215 l 1042 1042 l 1215 1042 l 1215 694 l 347 694 l 347 521 l 1042 521 l 1042 347 l 868 347 l 868 174 l 694 174 l 694 347 z "},"Į":{"ha":1389,"x_min":0,"x_max":1215,"o":"m 868 174 l 868 0 l 694 0 l 694 174 l 868 174 m 521 347 l 0 347 l 0 521 l 347 521 l 347 1042 l 0 1042 l 0 1215 l 1215 1215 l 1215 1042 l 868 1042 l 868 521 l 1215 521 l 1215 347 l 694 347 l 694 174 l 521 174 l 521 347 z "},"į":{"ha":1389,"x_min":0,"x_max":1215,"o":"m 868 174 l 868 0 l 694 0 l 694 174 l 868 174 m 521 347 l 0 347 l 0 521 l 521 521 l 521 1042 l 174 1042 l 174 1215 l 868 1215 l 868 521 l 1215 521 l 1215 347 l 694 347 l 694 174 l 521 174 l 521 347 z "},"Ų":{"ha":1389,"x_min":0,"x_max":1215,"o":"m 868 174 l 868 0 l 694 0 l 694 174 l 868 174 m 521 347 l 174 347 l 174 521 l 0 521 l 0 1215 l 347 1215 l 347 521 l 868 521 l 868 1215 l 1215 1215 l 1215 521 l 1042 521 l 1042 347 l 694 347 l 694 174 l 521 174 l 521 347 z "},"ų":{"ha":1389,"x_min":0,"x_max":1215,"o":"m 1042 174 l 1042 0 l 868 0 l 868 174 l 1042 174 m 694 347 l 174 347 l 174 521 l 0 521 l 0 1042 l 347 1042 l 347 521 l 868 521 l 868 1042 l 1215 1042 l 1215 521 l 1042 521 l 1042 347 l 868 347 l 868 174 l 694 174 l 694 347 z "},"Ǫ":{"ha":1389,"x_min":0,"x_max":1215,"o":"m 868 1042 l 347 1042 l 347 521 l 868 521 l 868 1042 m 1042 174 l 1042 0 l 868 0 l 868 174 l 1042 174 m 694 347 l 174 347 l 174 521 l 0 521 l 0 1042 l 174 1042 l 174 1215 l 1042 1215 l 1042 1042 l 1215 1042 l 1215 521 l 1042 521 l 1042 347 l 868 347 l 868 174 l 694 174 l 694 347 z "},"ǫ":{"ha":1389,"x_min":0,"x_max":1215,"o":"m 868 868 l 347 868 l 347 521 l 868 521 l 868 868 m 1042 174 l 1042 0 l 868 0 l 868 174 l 1042 174 m 694 347 l 174 347 l 174 521 l 0 521 l 0 868 l 174 868 l 174 1042 l 1042 1042 l 1042 868 l 1215 868 l 1215 521 l 1042 521 l 1042 347 l 868 347 l 868 174 l 694 174 l 694 347 z "},"Ő":{"ha":1389,"x_min":0,"x_max":1215,"o":"m 868 694 l 347 694 l 347 174 l 868 174 l 868 694 m 694 1042 l 868 1042 l 868 1215 l 1215 1215 l 1215 1042 l 1042 1042 l 1042 694 l 1215 694 l 1215 174 l 1042 174 l 1042 0 l 174 0 l 174 174 l 0 174 l 0 694 l 174 694 l 174 1042 l 347 1042 l 347 1215 l 694 1215 l 694 1042 m 694 1042 l 521 1042 l 521 868 l 694 868 l 694 1042 z "},"ő":{"ha":1389,"x_min":0,"x_max":1215,"o":"m 174 174 l 0 174 l 0 521 l 174 521 l 174 694 l 1042 694 l 1042 521 l 1215 521 l 1215 174 l 1042 174 l 1042 0 l 174 0 l 174 174 m 868 521 l 347 521 l 347 174 l 868 174 l 868 521 m 694 1215 l 694 1042 l 521 1042 l 521 868 l 174 868 l 174 1042 l 347 1042 l 347 1215 l 694 1215 m 694 868 l 694 1042 l 868 1042 l 868 1215 l 1215 1215 l 1215 1042 l 1042 1042 l 1042 868 l 694 868 z "},"Ű":{"ha":1389,"x_min":0,"x_max":1215,"o":"m 694 1042 l 868 1042 l 868 1215 l 1215 1215 l 1215 1042 l 1042 1042 l 1042 868 l 1215 868 l 1215 174 l 1042 174 l 1042 0 l 174 0 l 174 174 l 0 174 l 0 868 l 174 868 l 174 1042 l 347 1042 l 347 1215 l 694 1215 l 694 1042 m 694 1042 l 521 1042 l 521 868 l 347 868 l 347 174 l 868 174 l 868 868 l 694 868 l 694 1042 z "},"ű":{"ha":1389,"x_min":0,"x_max":1215,"o":"m 174 174 l 0 174 l 0 694 l 347 694 l 347 174 l 868 174 l 868 694 l 1215 694 l 1215 174 l 1042 174 l 1042 0 l 174 0 l 174 174 m 694 1215 l 694 1042 l 521 1042 l 521 868 l 174 868 l 174 1042 l 347 1042 l 347 1215 l 694 1215 m 694 868 l 694 1042 l 868 1042 l 868 1215 l 1215 1215 l 1215 1042 l 1042 1042 l 1042 868 l 694 868 z "},"Ł":{"ha":1389,"x_min":0,"x_max":1215,"o":"m 174 347 l 0 347 l 0 521 l 174 521 l 174 1215 l 521 1215 l 521 868 l 694 868 l 694 694 l 521 694 l 521 174 l 1215 174 l 1215 0 l 174 0 l 174 347 m 868 1042 l 868 868 l 694 868 l 694 1042 l 868 1042 z "},"ł":{"ha":1389,"x_min":0,"x_max":1215,"o":"m 0 347 l 0 521 l 174 521 l 174 1215 l 521 1215 l 521 868 l 694 868 l 694 694 l 521 694 l 521 347 l 694 347 l 694 174 l 1215 174 l 1215 0 l 521 0 l 521 174 l 347 174 l 347 347 l 0 347 m 694 868 l 694 1042 l 868 1042 l 868 868 l 694 868 z "},"İ":{"ha":1389,"x_min":174,"x_max":1215,"o":"m 174 0 l 174 174 l 521 174 l 521 694 l 174 694 l 174 868 l 1215 868 l 1215 694 l 868 694 l 868 174 l 1215 174 l 1215 0 l 174 0 m 521 1042 l 521 1215 l 868 1215 l 868 1042 l 521 1042 z "},"ı":{"ha":1389,"x_min":0,"x_max":1215,"o":"m 0 0 l 0 174 l 521 174 l 521 694 l 174 694 l 174 868 l 868 868 l 868 174 l 1215 174 l 1215 0 l 0 0 z "},"Ů":{"ha":1389,"x_min":0,"x_max":1215,"o":"m 174 174 l 0 174 l 0 868 l 174 868 l 174 347 l 347 347 l 347 174 l 868 174 l 868 347 l 1042 347 l 1042 868 l 1215 868 l 1215 174 l 1042 174 l 1042 0 l 174 0 l 174 174 m 521 1042 l 521 868 l 694 868 l 694 1042 l 521 1042 m 347 1215 l 868 1215 l 868 694 l 347 694 l 347 1215 z "},"ů":{"ha":1389,"x_min":0,"x_max":1215,"o":"m 521 1042 l 521 868 l 694 868 l 694 1042 l 521 1042 m 347 1215 l 868 1215 l 868 694 l 347 694 l 347 1215 m 174 174 l 0 174 l 0 694 l 174 694 l 174 347 l 347 347 l 347 174 l 868 174 l 868 347 l 1042 347 l 1042 694 l 1215 694 l 1215 174 l 1042 174 l 1042 0 l 174 0 l 174 174 z "},"Ə":{"ha":1389,"x_min":0,"x_max":1215,"o":"m 174 347 l 0 347 l 0 694 l 868 694 l 868 868 l 694 868 l 694 1042 l 347 1042 l 347 868 l 0 868 l 0 1042 l 174 1042 l 174 1215 l 868 1215 l 868 1042 l 1042 1042 l 1042 868 l 1215 868 l 1215 347 l 1042 347 l 1042 174 l 868 174 l 868 0 l 347 0 l 347 174 l 174 174 l 174 347 m 521 174 l 694 174 l 694 347 l 868 347 l 868 521 l 347 521 l 347 347 l 521 347 l 521 174 z "},"ə":{"ha":1389,"x_min":0,"x_max":1215,"o":"m 868 174 l 868 347 l 347 347 l 347 174 l 868 174 m 174 174 l 0 174 l 0 521 l 868 521 l 868 694 l 0 694 l 0 868 l 1042 868 l 1042 694 l 1215 694 l 1215 174 l 1042 174 l 1042 0 l 174 0 l 174 174 z "},"ʔ":{"ha":1389,"x_min":0,"x_max":1215,"o":"m 0 868 l 0 1042 l 174 1042 l 174 1215 l 1042 1215 l 1042 1042 l 1215 1042 l 1215 521 l 1042 521 l 1042 347 l 694 347 l 694 0 l 347 0 l 347 521 l 868 521 l 868 1042 l 347 1042 l 347 868 l 0 868 z "},"ʕ":{"ha":1389,"x_min":0,"x_max":1215,"o":"m 1215 868 l 868 868 l 868 1042 l 347 1042 l 347 521 l 868 521 l 868 0 l 521 0 l 521 347 l 174 347 l 174 521 l 0 521 l 0 1042 l 174 1042 l 174 1215 l 1042 1215 l 1042 1042 l 1215 1042 l 1215 868 z "},"ʖ":{"ha":1389,"x_min":0,"x_max":1215,"o":"m 0 347 l 347 347 l 347 174 l 868 174 l 868 694 l 347 694 l 347 1215 l 694 1215 l 694 868 l 1042 868 l 1042 694 l 1215 694 l 1215 174 l 1042 174 l 1042 0 l 174 0 l 174 174 l 0 174 l 0 347 z "},"Ɂ":{"ha":1389,"x_min":0,"x_max":1215,"o":"m 0 868 l 0 1042 l 174 1042 l 174 1215 l 1042 1215 l 1042 1042 l 1215 1042 l 1215 521 l 1042 521 l 1042 347 l 694 347 l 694 0 l 347 0 l 347 521 l 868 521 l 868 1042 l 347 1042 l 347 868 l 0 868 z "},"ɂ":{"ha":1389,"x_min":0,"x_max":1215,"o":"m 0 521 l 0 694 l 174 694 l 174 868 l 1042 868 l 1042 694 l 1215 694 l 1215 347 l 1042 347 l 1042 174 l 694 174 l 694 0 l 347 0 l 347 347 l 868 347 l 868 694 l 347 694 l 347 521 l 0 521 z "},"Ǝ":{"ha":1389,"x_min":0,"x_max":1215,"o":"m 1215 0 l 0 0 l 0 174 l 868 174 l 868 521 l 347 521 l 347 694 l 868 694 l 868 1042 l 0 1042 l 0 1215 l 1215 1215 l 1215 0 z "},"Ŋ":{"ha":1389,"x_min":0,"x_max":1215,"o":"m 0 0 l 0 1215 l 347 1215 l 347 1042 l 521 1042 l 521 1215 l 1042 1215 l 1042 1042 l 1215 1042 l 1215 174 l 1042 174 l 1042 0 l 521 0 l 521 347 l 694 347 l 694 174 l 868 174 l 868 1042 l 694 1042 l 694 868 l 347 868 l 347 0 l 0 0 z "},"ŋ":{"ha":1389,"x_min":0,"x_max":1215,"o":"m 868 174 l 868 1042 l 347 1042 l 347 347 l 0 347 l 0 1215 l 1042 1215 l 1042 1042 l 1215 1042 l 1215 174 l 1042 174 l 1042 0 l 521 0 l 521 174 l 868 174 z "},"Ħ":{"ha":1389,"x_min":0,"x_max":1215,"o":"m 1042 868 l 1042 0 l 694 0 l 694 521 l 521 521 l 521 0 l 174 0 l 174 868 l 0 868 l 0 1042 l 174 1042 l 174 1215 l 521 1215 l 521 1042 l 694 1042 l 694 1215 l 1042 1215 l 1042 1042 l 1215 1042 l 1215 868 l 1042 868 m 521 868 l 521 694 l 694 694 l 694 868 l 521 868 z "},"ħ":{"ha":1389,"x_min":0,"x_max":1215,"o":"m 521 868 l 521 694 l 1042 694 l 1042 521 l 1215 521 l 1215 0 l 868 0 l 868 521 l 521 521 l 521 0 l 174 0 l 174 868 l 0 868 l 0 1042 l 174 1042 l 174 1215 l 521 1215 l 521 1042 l 868 1042 l 868 868 l 521 868 z "},"Ŧ":{"ha":1389,"x_min":174,"x_max":1215,"o":"m 521 694 l 521 1042 l 174 1042 l 174 1215 l 1215 1215 l 1215 1042 l 868 1042 l 868 694 l 1042 694 l 1042 521 l 868 521 l 868 0 l 521 0 l 521 521 l 347 521 l 347 694 l 521 694 z "},"ŧ":{"ha":1389,"x_min":0,"x_max":1215,"o":"m 347 521 l 347 694 l 0 694 l 0 868 l 347 868 l 347 1215 l 694 1215 l 694 868 l 1215 868 l 1215 694 l 694 694 l 694 521 l 868 521 l 868 347 l 694 347 l 694 174 l 1215 174 l 1215 0 l 347 0 l 347 347 l 174 347 l 174 521 l 347 521 z "},"Đ":{"ha":1389,"x_min":0,"x_max":1215,"o":"m 174 694 l 174 1215 l 868 1215 l 868 1042 l 1042 1042 l 1042 868 l 1215 868 l 1215 347 l 1042 347 l 1042 174 l 868 174 l 868 0 l 174 0 l 174 521 l 0 521 l 0 694 l 174 694 m 521 694 l 694 694 l 694 521 l 521 521 l 521 174 l 694 174 l 694 347 l 868 347 l 868 868 l 694 868 l 694 1042 l 521 1042 l 521 694 z "},"đ":{"ha":1389,"x_min":0,"x_max":1215,"o":"m 347 174 l 694 174 l 694 521 l 347 521 l 347 174 m 1042 868 l 1042 0 l 174 0 l 174 174 l 0 174 l 0 521 l 174 521 l 174 694 l 694 694 l 694 868 l 521 868 l 521 1042 l 694 1042 l 694 1215 l 1042 1215 l 1042 1042 l 1215 1042 l 1215 868 l 1042 868 z "},"Ð":{"ha":1389,"x_min":0,"x_max":1215,"o":"m 174 694 l 174 1215 l 868 1215 l 868 1042 l 1042 1042 l 1042 868 l 1215 868 l 1215 347 l 1042 347 l 1042 174 l 868 174 l 868 0 l 174 0 l 174 521 l 0 521 l 0 694 l 174 694 m 521 694 l 694 694 l 694 521 l 521 521 l 521 174 l 694 174 l 694 347 l 868 347 l 868 868 l 694 868 l 694 1042 l 521 1042 l 521 694 z "},"ð":{"ha":1389,"x_min":0,"x_max":1215,"o":"m 868 694 l 347 694 l 347 174 l 868 174 l 868 694 m 1042 868 l 1215 868 l 1215 174 l 1042 174 l 1042 0 l 174 0 l 174 174 l 0 174 l 0 694 l 174 694 l 174 868 l 694 868 l 694 1042 l 521 1042 l 521 1215 l 868 1215 l 868 1042 l 1042 1042 l 1042 868 z "},"Ɖ":{"ha":1389,"x_min":0,"x_max":1215,"o":"m 174 694 l 174 1215 l 868 1215 l 868 1042 l 1042 1042 l 1042 868 l 1215 868 l 1215 347 l 1042 347 l 1042 174 l 868 174 l 868 0 l 174 0 l 174 521 l 0 521 l 0 694 l 174 694 m 521 694 l 694 694 l 694 521 l 521 521 l 521 174 l 694 174 l 694 347 l 868 347 l 868 868 l 694 868 l 694 1042 l 521 1042 l 521 694 z "},"ɖ":{"ha":1389,"x_min":0,"x_max":1215,"o":"m 347 521 l 694 521 l 694 868 l 347 868 l 347 521 m 174 521 l 0 521 l 0 868 l 174 868 l 174 1042 l 694 1042 l 694 1215 l 1042 1215 l 1042 174 l 1215 174 l 1215 0 l 694 0 l 694 347 l 174 347 l 174 521 z "},"Ɨ":{"ha":1389,"x_min":174,"x_max":1215,"o":"m 868 521 l 868 174 l 1215 174 l 1215 0 l 174 0 l 174 174 l 521 174 l 521 521 l 347 521 l 347 694 l 521 694 l 521 1042 l 174 1042 l 174 1215 l 1215 1215 l 1215 1042 l 868 1042 l 868 694 l 1042 694 l 1042 521 l 868 521 z "},"ɨ":{"ha":1389,"x_min":0,"x_max":1215,"o":"m 521 1042 l 521 1215 l 868 1215 l 868 1042 l 521 1042 m 868 347 l 868 174 l 1215 174 l 1215 0 l 0 0 l 0 174 l 521 174 l 521 347 l 174 347 l 174 521 l 521 521 l 521 694 l 174 694 l 174 868 l 868 868 l 868 521 l 1042 521 l 1042 347 l 868 347 z "},"Ʉ":{"ha":1389,"x_min":0,"x_max":1215,"o":"m 1042 694 l 1042 174 l 868 174 l 868 0 l 347 0 l 347 174 l 174 174 l 174 694 l 0 694 l 0 868 l 174 868 l 174 1215 l 521 1215 l 521 868 l 694 868 l 694 1215 l 1042 1215 l 1042 868 l 1215 868 l 1215 694 l 1042 694 m 521 694 l 521 174 l 694 174 l 694 694 l 521 694 z "},"ʉ":{"ha":1389,"x_min":0,"x_max":1215,"o":"m 1042 521 l 1042 174 l 868 174 l 868 0 l 347 0 l 347 174 l 174 174 l 174 521 l 0 521 l 0 694 l 174 694 l 174 868 l 521 868 l 521 694 l 694 694 l 694 868 l 1042 868 l 1042 694 l 1215 694 l 1215 521 l 1042 521 m 521 521 l 521 174 l 694 174 l 694 521 l 521 521 z "},"˘":{"ha":1389,"x_min":347,"x_max":868,"o":"m 694 1042 l 694 1215 l 868 1215 l 868 868 l 347 868 l 347 1215 l 521 1215 l 521 1042 l 694 1042 z "},"Ă":{"ha":1389,"x_min":0,"x_max":1215,"o":"m 868 347 l 868 521 l 694 521 l 694 694 l 521 694 l 521 521 l 347 521 l 347 347 l 868 347 m 868 694 l 1042 694 l 1042 521 l 1215 521 l 1215 0 l 868 0 l 868 174 l 347 174 l 347 0 l 0 0 l 0 521 l 174 521 l 174 694 l 347 694 l 347 1215 l 521 1215 l 521 1042 l 694 1042 l 694 1215 l 868 1215 l 868 694 z "},"ă":{"ha":1389,"x_min":0,"x_max":1215,"o":"m 347 174 l 868 174 l 868 347 l 347 347 l 347 174 m 868 868 l 1042 868 l 1042 694 l 1215 694 l 1215 0 l 174 0 l 174 174 l 0 174 l 0 347 l 174 347 l 174 521 l 868 521 l 868 694 l 174 694 l 174 868 l 347 868 l 347 1215 l 521 1215 l 521 1042 l 694 1042 l 694 1215 l 868 1215 l 868 868 z "},"Ĕ":{"ha":1389,"x_min":0,"x_max":1215,"o":"m 868 868 l 1215 868 l 1215 694 l 347 694 l 347 521 l 868 521 l 868 347 l 347 347 l 347 174 l 1215 174 l 1215 0 l 0 0 l 0 868 l 347 868 l 347 1215 l 521 1215 l 521 1042 l 694 1042 l 694 1215 l 868 1215 l 868 868 z "},"ĕ":{"ha":1389,"x_min":0,"x_max":1215,"o":"m 868 521 l 868 694 l 347 694 l 347 521 l 868 521 m 868 868 l 1042 868 l 1042 694 l 1215 694 l 1215 347 l 347 347 l 347 174 l 1042 174 l 1042 0 l 174 0 l 174 174 l 0 174 l 0 694 l 174 694 l 174 868 l 347 868 l 347 1215 l 521 1215 l 521 1042 l 694 1042 l 694 1215 l 868 1215 l 868 868 z "},"Ğ":{"ha":1389,"x_min":0,"x_max":1215,"o":"m 868 868 l 1215 868 l 1215 694 l 347 694 l 347 174 l 868 174 l 868 347 l 521 347 l 521 521 l 1215 521 l 1215 0 l 174 0 l 174 174 l 0 174 l 0 694 l 174 694 l 174 868 l 347 868 l 347 1215 l 521 1215 l 521 1042 l 694 1042 l 694 1215 l 868 1215 l 868 868 z "},"ğ":{"ha":1389,"x_min":0,"x_max":1215,"o":"m 868 521 l 868 694 l 347 694 l 347 521 l 868 521 m 868 868 l 1215 868 l 1215 174 l 1042 174 l 1042 0 l 174 0 l 174 174 l 868 174 l 868 347 l 174 347 l 174 521 l 0 521 l 0 694 l 174 694 l 174 868 l 347 868 l 347 1215 l 521 1215 l 521 1042 l 694 1042 l 694 1215 l 868 1215 l 868 868 z "},"Ĭ":{"ha":1389,"x_min":0,"x_max":1215,"o":"m 868 868 l 1215 868 l 1215 694 l 868 694 l 868 174 l 1215 174 l 1215 0 l 0 0 l 0 174 l 347 174 l 347 694 l 0 694 l 0 868 l 347 868 l 347 1215 l 521 1215 l 521 1042 l 694 1042 l 694 1215 l 868 1215 l 868 868 z "},"ĭ":{"ha":1389,"x_min":0,"x_max":1215,"o":"m 868 174 l 1215 174 l 1215 0 l 0 0 l 0 174 l 521 174 l 521 694 l 174 694 l 174 868 l 347 868 l 347 1215 l 521 1215 l 521 1042 l 694 1042 l 694 1215 l 868 1215 l 868 174 z "},"Ŏ":{"ha":1389,"x_min":0,"x_max":1215,"o":"m 868 694 l 347 694 l 347 174 l 868 174 l 868 694 m 868 868 l 1042 868 l 1042 694 l 1215 694 l 1215 174 l 1042 174 l 1042 0 l 174 0 l 174 174 l 0 174 l 0 694 l 174 694 l 174 868 l 347 868 l 347 1215 l 521 1215 l 521 1042 l 694 1042 l 694 1215 l 868 1215 l 868 868 z "},"ŏ":{"ha":1389,"x_min":0,"x_max":1215,"o":"m 174 174 l 0 174 l 0 521 l 174 521 l 174 694 l 1042 694 l 1042 521 l 1215 521 l 1215 174 l 1042 174 l 1042 0 l 174 0 l 174 174 m 868 521 l 347 521 l 347 174 l 868 174 l 868 521 m 694 1042 l 694 1215 l 868 1215 l 868 868 l 347 868 l 347 1215 l 521 1215 l 521 1042 l 694 1042 z "},"Ŭ":{"ha":1389,"x_min":0,"x_max":1215,"o":"m 174 174 l 0 174 l 0 868 l 347 868 l 347 174 l 868 174 l 868 868 l 1215 868 l 1215 174 l 1042 174 l 1042 0 l 174 0 l 174 174 m 694 1042 l 694 1215 l 868 1215 l 868 868 l 347 868 l 347 1215 l 521 1215 l 521 1042 l 694 1042 z "},"ŭ":{"ha":1389,"x_min":0,"x_max":1215,"o":"m 174 174 l 0 174 l 0 694 l 347 694 l 347 174 l 868 174 l 868 694 l 1215 694 l 1215 174 l 1042 174 l 1042 0 l 174 0 l 174 174 m 694 1042 l 694 1215 l 868 1215 l 868 868 l 347 868 l 347 1215 l 521 1215 l 521 1042 l 694 1042 z "},"Ʋ":{"ha":1389,"x_min":0,"x_max":1215,"o":"m 1042 1215 l 1042 1042 l 1215 1042 l 1215 174 l 1042 174 l 1042 0 l 174 0 l 174 174 l 0 174 l 0 1215 l 347 1215 l 347 174 l 868 174 l 868 868 l 694 868 l 694 1042 l 521 1042 l 521 1215 l 1042 1215 z "},"ʋ":{"ha":1389,"x_min":0,"x_max":1215,"o":"m 1042 868 l 1042 694 l 1215 694 l 1215 174 l 1042 174 l 1042 0 l 174 0 l 174 174 l 0 174 l 0 868 l 347 868 l 347 174 l 868 174 l 868 521 l 694 521 l 694 694 l 521 694 l 521 868 l 1042 868 z "},"Ƒ":{"ha":1389,"x_min":0,"x_max":1215,"o":"m 174 0 l 174 1215 l 1215 1215 l 1215 1042 l 521 1042 l 521 868 l 1042 868 l 1042 694 l 521 694 l 521 0 l 174 0 m 174 0 l 0 0 l 0 174 l 174 174 l 174 0 z "},"ƒ":{"ha":1389,"x_min":0,"x_max":1215,"o":"m 0 0 l 0 174 l 347 174 l 347 347 l 521 347 l 521 694 l 174 694 l 174 868 l 521 868 l 521 1042 l 694 1042 l 694 1215 l 1215 1215 l 1215 1042 l 868 1042 l 868 868 l 1215 868 l 1215 694 l 868 694 l 868 347 l 694 347 l 694 174 l 521 174 l 521 0 l 0 0 z "},"Ạ":{"ha":1389,"x_min":0,"x_max":1215,"o":"m 868 694 l 868 868 l 694 868 l 694 1042 l 521 1042 l 521 868 l 347 868 l 347 694 l 868 694 m 0 347 l 0 868 l 174 868 l 174 1042 l 347 1042 l 347 1215 l 868 1215 l 868 1042 l 1042 1042 l 1042 868 l 1215 868 l 1215 347 l 868 347 l 868 521 l 347 521 l 347 347 l 0 347 m 694 0 l 521 0 l 521 174 l 694 174 l 694 0 z "},"ạ":{"ha":1389,"x_min":0,"x_max":1215,"o":"m 174 521 l 0 521 l 0 694 l 174 694 l 174 868 l 868 868 l 868 1042 l 174 1042 l 174 1215 l 1042 1215 l 1042 1042 l 1215 1042 l 1215 347 l 174 347 l 174 521 m 347 521 l 868 521 l 868 694 l 347 694 l 347 521 m 694 0 l 521 0 l 521 174 l 694 174 l 694 0 z "},"Ḍ":{"ha":1389,"x_min":0,"x_max":1215,"o":"m 694 521 l 694 694 l 868 694 l 868 868 l 694 868 l 694 1042 l 347 1042 l 347 521 l 694 521 m 868 521 l 868 347 l 0 347 l 0 1215 l 868 1215 l 868 1042 l 1042 1042 l 1042 868 l 1215 868 l 1215 694 l 1042 694 l 1042 521 l 868 521 m 521 0 l 347 0 l 347 174 l 521 174 l 521 0 z "},"ḍ":{"ha":1389,"x_min":0,"x_max":1215,"o":"m 347 521 l 868 521 l 868 868 l 347 868 l 347 521 m 174 521 l 0 521 l 0 868 l 174 868 l 174 1042 l 868 1042 l 868 1215 l 1215 1215 l 1215 347 l 174 347 l 174 521 m 694 0 l 521 0 l 521 174 l 694 174 l 694 0 z "},"Ẹ":{"ha":1389,"x_min":0,"x_max":1215,"o":"m 0 347 l 0 1215 l 1215 1215 l 1215 1042 l 347 1042 l 347 868 l 868 868 l 868 694 l 347 694 l 347 521 l 1215 521 l 1215 347 l 0 347 m 694 0 l 521 0 l 521 174 l 694 174 l 694 0 z "},"ẹ":{"ha":1389,"x_min":0,"x_max":1215,"o":"m 868 868 l 868 1042 l 347 1042 l 347 868 l 868 868 m 174 521 l 0 521 l 0 1042 l 174 1042 l 174 1215 l 1042 1215 l 1042 1042 l 1215 1042 l 1215 694 l 347 694 l 347 521 l 1042 521 l 1042 347 l 174 347 l 174 521 m 694 0 l 521 0 l 521 174 l 694 174 l 694 0 z "},"Ḥ":{"ha":1389,"x_min":0,"x_max":1215,"o":"m 0 347 l 0 1215 l 347 1215 l 347 868 l 868 868 l 868 1215 l 1215 1215 l 1215 347 l 868 347 l 868 694 l 347 694 l 347 347 l 0 347 m 694 0 l 521 0 l 521 174 l 694 174 l 694 0 z "},"ḥ":{"ha":1389,"x_min":0,"x_max":1215,"o":"m 0 347 l 0 1215 l 347 1215 l 347 868 l 1042 868 l 1042 694 l 1215 694 l 1215 347 l 868 347 l 868 694 l 347 694 l 347 347 l 0 347 m 694 0 l 521 0 l 521 174 l 694 174 l 694 0 z "},"Ị":{"ha":1389,"x_min":0,"x_max":1215,"o":"m 0 347 l 0 521 l 347 521 l 347 1042 l 0 1042 l 0 1215 l 1215 1215 l 1215 1042 l 868 1042 l 868 521 l 1215 521 l 1215 347 l 0 347 m 694 0 l 521 0 l 521 174 l 694 174 l 694 0 z "},"ị":{"ha":1389,"x_min":0,"x_max":1215,"o":"m 0 347 l 0 521 l 521 521 l 521 1042 l 174 1042 l 174 1215 l 868 1215 l 868 521 l 1215 521 l 1215 347 l 0 347 m 694 0 l 521 0 l 521 174 l 694 174 l 694 0 z "},"Ọ":{"ha":1389,"x_min":0,"x_max":1215,"o":"m 174 521 l 0 521 l 0 1042 l 174 1042 l 174 1215 l 1042 1215 l 1042 1042 l 1215 1042 l 1215 521 l 1042 521 l 1042 347 l 174 347 l 174 521 m 868 1042 l 347 1042 l 347 521 l 868 521 l 868 1042 m 694 0 l 521 0 l 521 174 l 694 174 l 694 0 z "},"ọ":{"ha":1389,"x_min":0,"x_max":1215,"o":"m 174 521 l 0 521 l 0 868 l 174 868 l 174 1042 l 1042 1042 l 1042 868 l 1215 868 l 1215 521 l 1042 521 l 1042 347 l 174 347 l 174 521 m 868 868 l 347 868 l 347 521 l 868 521 l 868 868 m 694 0 l 521 0 l 521 174 l 694 174 l 694 0 z "},"Ṛ":{"ha":1389,"x_min":0,"x_max":1215,"o":"m 347 868 l 868 868 l 868 1042 l 347 1042 l 347 868 m 1042 1215 l 1042 1042 l 1215 1042 l 1215 868 l 1042 868 l 1042 694 l 868 694 l 868 521 l 1215 521 l 1215 347 l 694 347 l 694 521 l 521 521 l 521 694 l 347 694 l 347 347 l 0 347 l 0 1215 l 1042 1215 m 694 0 l 521 0 l 521 174 l 694 174 l 694 0 z "},"ṛ":{"ha":1389,"x_min":0,"x_max":1215,"o":"m 0 347 l 0 1215 l 347 1215 l 347 1042 l 521 1042 l 521 868 l 347 868 l 347 347 l 0 347 m 1042 1042 l 1215 1042 l 1215 868 l 868 868 l 868 1042 l 521 1042 l 521 1215 l 1042 1215 l 1042 1042 m 694 0 l 521 0 l 521 174 l 694 174 l 694 0 z "},"Ṣ":{"ha":1389,"x_min":0,"x_max":1215,"o":"m 0 347 l 0 521 l 868 521 l 868 694 l 0 694 l 0 1215 l 1215 1215 l 1215 1042 l 347 1042 l 347 868 l 1215 868 l 1215 347 l 0 347 m 694 0 l 521 0 l 521 174 l 694 174 l 694 0 z "},"ṣ":{"ha":1389,"x_min":0,"x_max":1215,"o":"m 174 347 l 174 521 l 868 521 l 868 694 l 174 694 l 174 868 l 0 868 l 0 1042 l 174 1042 l 174 1215 l 1042 1215 l 1042 1042 l 347 1042 l 347 868 l 1042 868 l 1042 694 l 1215 694 l 1215 521 l 1042 521 l 1042 347 l 174 347 m 694 0 l 521 0 l 521 174 l 694 174 l 694 0 z "},"Ụ":{"ha":1389,"x_min":0,"x_max":1215,"o":"m 174 521 l 0 521 l 0 1215 l 347 1215 l 347 521 l 868 521 l 868 1215 l 1215 1215 l 1215 521 l 1042 521 l 1042 347 l 174 347 l 174 521 m 694 0 l 521 0 l 521 174 l 694 174 l 694 0 z "},"ụ":{"ha":1389,"x_min":0,"x_max":1215,"o":"m 174 521 l 0 521 l 0 1042 l 347 1042 l 347 521 l 868 521 l 868 1042 l 1215 1042 l 1215 521 l 1042 521 l 1042 347 l 174 347 l 174 521 m 694 0 l 521 0 l 521 174 l 694 174 l 694 0 z "},"Ỵ":{"ha":1389,"x_min":0,"x_max":1215,"o":"m 174 868 l 0 868 l 0 1215 l 347 1215 l 347 868 l 868 868 l 868 1215 l 1215 1215 l 1215 868 l 1042 868 l 1042 694 l 868 694 l 868 347 l 347 347 l 347 694 l 174 694 l 174 868 m 694 0 l 521 0 l 521 174 l 694 174 l 694 0 z "},"ỵ":{"ha":1389,"x_min":0,"x_max":1215,"o":"m 0 0 l 0 174 l 347 174 l 347 347 l 174 347 l 174 521 l 0 521 l 0 868 l 347 868 l 347 521 l 521 521 l 521 347 l 694 347 l 694 521 l 868 521 l 868 868 l 1215 868 l 1215 521 l 1042 521 l 1042 347 l 868 347 l 868 174 l 694 174 l 694 0 l 0 0 m 1215 0 l 1042 0 l 1042 174 l 1215 174 l 1215 0 z "},"Ẓ":{"ha":1389,"x_min":0,"x_max":1215,"o":"m 0 347 l 0 521 l 174 521 l 174 694 l 347 694 l 347 868 l 521 868 l 521 1042 l 0 1042 l 0 1215 l 1215 1215 l 1215 1042 l 1042 1042 l 1042 868 l 868 868 l 868 694 l 694 694 l 694 521 l 1215 521 l 1215 347 l 0 347 m 694 0 l 521 0 l 521 174 l 694 174 l 694 0 z "},"ẓ":{"ha":1389,"x_min":0,"x_max":1215,"o":"m 0 521 l 0 694 l 174 694 l 174 868 l 347 868 l 347 1042 l 0 1042 l 0 1215 l 1215 1215 l 1215 1042 l 868 1042 l 868 868 l 694 868 l 694 694 l 1215 694 l 1215 521 l 0 521 m 694 0 l 521 0 l 521 174 l 694 174 l 694 0 z "},"Ċ":{"ha":1389,"x_min":0,"x_max":1215,"o":"m 174 174 l 0 174 l 0 694 l 174 694 l 174 868 l 1042 868 l 1042 694 l 1215 694 l 1215 521 l 868 521 l 868 694 l 347 694 l 347 174 l 868 174 l 868 347 l 1215 347 l 1215 174 l 1042 174 l 1042 0 l 174 0 l 174 174 m 694 1042 l 521 1042 l 521 1215 l 694 1215 l 694 1042 z "},"ċ":{"ha":1389,"x_min":0,"x_max":1215,"o":"m 174 174 l 0 174 l 0 521 l 174 521 l 174 694 l 1215 694 l 1215 521 l 347 521 l 347 174 l 1215 174 l 1215 0 l 174 0 l 174 174 m 694 868 l 521 868 l 521 1042 l 694 1042 l 694 868 z "},"Ġ":{"ha":1389,"x_min":0,"x_max":1215,"o":"m 174 174 l 0 174 l 0 694 l 174 694 l 174 868 l 1215 868 l 1215 694 l 347 694 l 347 174 l 868 174 l 868 347 l 521 347 l 521 521 l 1215 521 l 1215 0 l 174 0 l 174 174 m 694 1042 l 521 1042 l 521 1215 l 694 1215 l 694 1042 z "},"ġ":{"ha":1389,"x_min":0,"x_max":1215,"o":"m 868 521 l 868 694 l 347 694 l 347 521 l 868 521 m 174 521 l 0 521 l 0 694 l 174 694 l 174 868 l 1215 868 l 1215 174 l 1042 174 l 1042 0 l 174 0 l 174 174 l 868 174 l 868 347 l 174 347 l 174 521 m 694 1042 l 521 1042 l 521 1215 l 694 1215 l 694 1042 z "},"Ḷ":{"ha":1389,"x_min":0,"x_max":1215,"o":"m 0 347 l 0 1215 l 347 1215 l 347 521 l 1215 521 l 1215 347 l 0 347 m 694 0 l 521 0 l 521 174 l 694 174 l 694 0 z "},"ḷ":{"ha":1389,"x_min":0,"x_max":1215,"o":"m 521 521 l 1215 521 l 1215 347 l 347 347 l 347 521 l 0 521 l 0 1215 l 347 1215 l 347 694 l 521 694 l 521 521 m 694 0 l 521 0 l 521 174 l 694 174 l 694 0 z "},"Ṅ":{"ha":1389,"x_min":0,"x_max":1215,"o":"m 694 347 l 521 347 l 521 521 l 694 521 l 694 347 m 521 521 l 347 521 l 347 0 l 0 0 l 0 868 l 347 868 l 347 694 l 521 694 l 521 521 m 694 347 l 868 347 l 868 868 l 1215 868 l 1215 0 l 868 0 l 868 174 l 694 174 l 694 347 m 694 1042 l 521 1042 l 521 1215 l 694 1215 l 694 1042 z "},"ṅ":{"ha":1389,"x_min":0,"x_max":1215,"o":"m 0 0 l 0 868 l 1042 868 l 1042 694 l 1215 694 l 1215 0 l 868 0 l 868 694 l 347 694 l 347 0 l 0 0 m 694 1042 l 521 1042 l 521 1215 l 694 1215 l 694 1042 z "},"Ṭ":{"ha":1389,"x_min":0,"x_max":1215,"o":"m 0 1042 l 0 1215 l 1215 1215 l 1215 1042 l 868 1042 l 868 347 l 347 347 l 347 1042 l 0 1042 m 694 0 l 521 0 l 521 174 l 694 174 l 694 0 z "},"ṭ":{"ha":1389,"x_min":0,"x_max":1215,"o":"m 0 868 l 0 1042 l 347 1042 l 347 1215 l 694 1215 l 694 1042 l 1215 1042 l 1215 868 l 694 868 l 694 521 l 1215 521 l 1215 347 l 347 347 l 347 868 l 0 868 m 694 0 l 521 0 l 521 174 l 694 174 l 694 0 z "},"Ḻ":{"ha":1389,"x_min":0,"x_max":1215,"o":"m 0 347 l 0 1215 l 347 1215 l 347 521 l 1215 521 l 1215 347 l 0 347 m 1042 174 l 1042 0 l 174 0 l 174 174 l 1042 174 z "},"ḻ":{"ha":1389,"x_min":0,"x_max":1215,"o":"m 521 521 l 1215 521 l 1215 347 l 347 347 l 347 521 l 0 521 l 0 1215 l 347 1215 l 347 694 l 521 694 l 521 521 m 1042 174 l 1042 0 l 174 0 l 174 174 l 1042 174 z "},"Ṉ":{"ha":1389,"x_min":0,"x_max":1215,"o":"m 694 694 l 521 694 l 521 868 l 694 868 l 694 694 m 521 868 l 347 868 l 347 347 l 0 347 l 0 1215 l 347 1215 l 347 1042 l 521 1042 l 521 868 m 694 694 l 868 694 l 868 1215 l 1215 1215 l 1215 347 l 868 347 l 868 521 l 694 521 l 694 694 m 1042 174 l 1042 0 l 174 0 l 174 174 l 1042 174 z "},"ṉ":{"ha":1389,"x_min":0,"x_max":1215,"o":"m 0 347 l 0 1215 l 1042 1215 l 1042 1042 l 1215 1042 l 1215 347 l 868 347 l 868 1042 l 347 1042 l 347 347 l 0 347 m 1042 174 l 1042 0 l 174 0 l 174 174 l 1042 174 z "},"Ꞌ":{"ha":1389,"x_min":174,"x_max":868,"o":"m 347 174 l 347 347 l 174 347 l 174 1042 l 347 1042 l 347 1215 l 694 1215 l 694 1042 l 868 1042 l 868 347 l 694 347 l 694 174 l 347 174 z "},"ꞌ":{"ha":1389,"x_min":174,"x_max":868,"o":"m 347 347 l 347 521 l 174 521 l 174 1042 l 347 1042 l 347 1215 l 694 1215 l 694 1042 l 868 1042 l 868 521 l 694 521 l 694 347 l 347 347 z "},"Ŀ":{"ha":1389,"x_min":0,"x_max":1215,"o":"m 0 0 l 0 1215 l 347 1215 l 347 174 l 1215 174 l 1215 0 l 0 0 m 694 521 l 521 521 l 521 694 l 694 694 l 694 521 z "},"ŀ":{"ha":1389,"x_min":0,"x_max":1215,"o":"m 174 347 l 0 347 l 0 1215 l 347 1215 l 347 347 l 694 347 l 694 174 l 1215 174 l 1215 0 l 521 0 l 521 174 l 174 174 l 174 347 m 694 521 l 521 521 l 521 694 l 694 694 l 694 521 z "},"Ʒ":{"ha":1389,"x_min":0,"x_max":1215,"o":"m 174 174 l 0 174 l 0 521 l 347 521 l 347 174 l 868 174 l 868 521 l 521 521 l 521 868 l 694 868 l 694 1042 l 0 1042 l 0 1215 l 1042 1215 l 1042 868 l 868 868 l 868 694 l 1042 694 l 1042 521 l 1215 521 l 1215 174 l 1042 174 l 1042 0 l 174 0 l 174 174 z "},"ʒ":{"ha":1389,"x_min":0,"x_max":1215,"o":"m 174 174 l 0 174 l 0 347 l 347 347 l 347 174 l 868 174 l 868 347 l 521 347 l 521 521 l 694 521 l 694 694 l 0 694 l 0 868 l 1042 868 l 1042 694 l 868 694 l 868 521 l 1042 521 l 1042 347 l 1215 347 l 1215 174 l 1042 174 l 1042 0 l 174 0 l 174 174 z "},"Ƹ":{"ha":1389,"x_min":0,"x_max":1215,"o":"m 1042 174 l 1042 0 l 174 0 l 174 174 l 0 174 l 0 521 l 174 521 l 174 694 l 347 694 l 347 868 l 174 868 l 174 1215 l 1215 1215 l 1215 1042 l 521 1042 l 521 868 l 694 868 l 694 521 l 347 521 l 347 174 l 868 174 l 868 521 l 1215 521 l 1215 174 l 1042 174 z "},"ƹ":{"ha":1389,"x_min":0,"x_max":1215,"o":"m 1042 174 l 1042 0 l 174 0 l 174 174 l 0 174 l 0 347 l 174 347 l 174 521 l 347 521 l 347 694 l 174 694 l 174 868 l 1215 868 l 1215 694 l 521 694 l 521 521 l 694 521 l 694 347 l 347 347 l 347 174 l 868 174 l 868 347 l 1215 347 l 1215 174 l 1042 174 z "},"₿":{"ha":1389,"x_min":0,"x_max":1215,"o":"m 521 694 l 868 694 l 868 868 l 521 868 l 521 694 m 868 347 l 868 521 l 521 521 l 521 347 l 868 347 m 0 174 l 0 347 l 174 347 l 174 868 l 0 868 l 0 1042 l 347 1042 l 347 1215 l 521 1215 l 521 1042 l 694 1042 l 694 1215 l 868 1215 l 868 1042 l 1042 1042 l 1042 868 l 1215 868 l 1215 694 l 1042 694 l 1042 521 l 1215 521 l 1215 347 l 1042 347 l 1042 174 l 868 174 l 868 0 l 694 0 l 694 174 l 521 174 l 521 0 l 347 0 l 347 174 l 0 174 z "},"←":{"ha":1389,"x_min":0,"x_max":1215,"o":"m 347 347 l 174 347 l 174 521 l 0 521 l 0 694 l 174 694 l 174 868 l 347 868 l 347 1042 l 694 1042 l 694 868 l 521 868 l 521 694 l 1215 694 l 1215 521 l 521 521 l 521 347 l 694 347 l 694 174 l 347 174 l 347 347 z "},"↑":{"ha":1389,"x_min":174,"x_max":1042,"o":"m 347 868 l 347 1042 l 521 1042 l 521 1215 l 694 1215 l 694 1042 l 868 1042 l 868 868 l 1042 868 l 1042 521 l 868 521 l 868 694 l 694 694 l 694 0 l 521 0 l 521 694 l 347 694 l 347 521 l 174 521 l 174 868 l 347 868 z "},"→":{"ha":1389,"x_min":0,"x_max":1215,"o":"m 1042 521 l 1042 347 l 868 347 l 868 174 l 521 174 l 521 347 l 694 347 l 694 521 l 0 521 l 0 694 l 694 694 l 694 868 l 521 868 l 521 1042 l 868 1042 l 868 868 l 1042 868 l 1042 694 l 1215 694 l 1215 521 l 1042 521 z "},"↓":{"ha":1389,"x_min":174,"x_max":1042,"o":"m 868 347 l 868 174 l 694 174 l 694 0 l 521 0 l 521 174 l 347 174 l 347 347 l 174 347 l 174 694 l 347 694 l 347 521 l 521 521 l 521 1215 l 694 1215 l 694 521 l 868 521 l 868 694 l 1042 694 l 1042 347 l 868 347 z "},"↔":{"ha":1389,"x_min":0,"x_max":1215,"o":"m 521 174 l 347 174 l 347 347 l 521 347 l 521 174 m 694 868 l 694 1042 l 868 1042 l 868 868 l 694 868 m 694 174 l 694 347 l 868 347 l 868 174 l 694 174 m 174 521 l 0 521 l 0 694 l 174 694 l 174 868 l 347 868 l 347 694 l 868 694 l 868 868 l 1042 868 l 1042 694 l 1215 694 l 1215 521 l 1042 521 l 1042 347 l 868 347 l 868 521 l 347 521 l 347 347 l 174 347 l 174 521 m 521 868 l 347 868 l 347 1042 l 521 1042 l 521 868 z "},"↕":{"ha":1389,"x_min":174,"x_max":1042,"o":"m 1042 521 l 1042 347 l 868 347 l 868 521 l 1042 521 m 347 694 l 174 694 l 174 868 l 347 868 l 347 694 m 1042 694 l 868 694 l 868 868 l 1042 868 l 1042 694 m 694 174 l 694 0 l 521 0 l 521 174 l 347 174 l 347 347 l 521 347 l 521 868 l 347 868 l 347 1042 l 521 1042 l 521 1215 l 694 1215 l 694 1042 l 868 1042 l 868 868 l 694 868 l 694 347 l 868 347 l 868 174 l 694 174 m 347 521 l 347 347 l 174 347 l 174 521 l 347 521 z "},"↨":{"ha":1389,"x_min":174,"x_max":1042,"o":"m 347 347 l 347 521 l 521 521 l 521 1042 l 347 1042 l 347 1215 l 868 1215 l 868 1042 l 694 1042 l 694 521 l 868 521 l 868 347 l 347 347 m 1042 174 l 1042 0 l 174 0 l 174 174 l 1042 174 m 347 868 l 174 868 l 174 1042 l 347 1042 l 347 868 m 1042 868 l 868 868 l 868 1042 l 1042 1042 l 1042 868 m 347 521 l 174 521 l 174 694 l 347 694 l 347 521 m 1042 521 l 868 521 l 868 694 l 1042 694 l 1042 521 z "},"█":{"ha":1389,"x_min":0,"x_max":1389,"o":"m 0 0 l 0 1389 l 1389 1389 l 1389 0 l 0 0 z "},"■":{"ha":1389,"x_min":174,"x_max":1042,"o":"m 174 174 l 174 1042 l 1042 1042 l 1042 174 l 174 174 z "},"□":{"ha":1389,"x_min":174,"x_max":1042,"o":"m 174 174 l 174 1042 l 1042 1042 l 1042 174 l 174 174 m 347 347 l 868 347 l 868 868 l 347 868 l 347 347 z "},"●":{"ha":1389,"x_min":174,"x_max":1042,"o":"m 694 347 l 694 174 l 521 174 l 521 347 l 347 347 l 347 521 l 174 521 l 174 694 l 347 694 l 347 868 l 521 868 l 521 1042 l 694 1042 l 694 868 l 868 868 l 868 694 l 1042 694 l 1042 521 l 868 521 l 868 347 l 694 347 z "},"◦":{"ha":1389,"x_min":174,"x_max":1042,"o":"m 694 174 l 521 174 l 521 347 l 694 347 l 694 174 m 694 868 l 521 868 l 521 1042 l 694 1042 l 694 868 m 521 694 l 347 694 l 347 868 l 521 868 l 521 694 m 868 694 l 694 694 l 694 868 l 868 868 l 868 694 m 1042 521 l 868 521 l 868 694 l 1042 694 l 1042 521 m 347 521 l 174 521 l 174 694 l 347 694 l 347 521 m 521 347 l 347 347 l 347 521 l 521 521 l 521 347 m 868 347 l 694 347 l 694 521 l 868 521 l 868 347 z "},"☺":{"ha":1389,"x_min":0,"x_max":1215,"o":"m 174 174 l 0 174 l 0 1042 l 174 1042 l 174 174 m 1042 1215 l 1042 1042 l 174 1042 l 174 1215 l 1042 1215 m 1215 174 l 1042 174 l 1042 1042 l 1215 1042 l 1215 174 m 521 694 l 347 694 l 347 868 l 521 868 l 521 694 m 868 694 l 694 694 l 694 868 l 868 868 l 868 694 m 868 521 l 868 347 l 347 347 l 347 521 l 868 521 m 174 0 l 174 174 l 1042 174 l 1042 0 l 174 0 z "},"☻":{"ha":1389,"x_min":0,"x_max":1215,"o":"m 174 174 l 0 174 l 0 1042 l 174 1042 l 174 1215 l 1042 1215 l 1042 1042 l 1215 1042 l 1215 174 l 1042 174 l 1042 0 l 174 0 l 174 174 m 694 694 l 868 694 l 868 868 l 694 868 l 694 694 m 347 694 l 521 694 l 521 868 l 347 868 l 347 694 m 347 347 l 868 347 l 868 521 l 347 521 l 347 347 z "},"☼":{"ha":1389,"x_min":0,"x_max":1215,"o":"m 694 0 l 521 0 l 521 347 l 694 347 l 694 0 m 347 174 l 174 174 l 174 347 l 347 347 l 347 174 m 1042 868 l 868 868 l 868 1042 l 1042 1042 l 1042 868 m 1042 174 l 868 174 l 868 347 l 1042 347 l 1042 174 m 347 868 l 174 868 l 174 1042 l 347 1042 l 347 868 m 694 868 l 521 868 l 521 1215 l 694 1215 l 694 868 m 521 694 l 347 694 l 347 868 l 521 868 l 521 694 m 868 694 l 694 694 l 694 868 l 868 868 l 868 694 m 1215 521 l 868 521 l 868 694 l 1215 694 l 1215 521 m 347 521 l 0 521 l 0 694 l 347 694 l 347 521 m 521 347 l 347 347 l 347 521 l 521 521 l 521 347 m 868 347 l 694 347 l 694 521 l 868 521 l 868 347 z "},"™":{"ha":1389,"x_min":0,"x_max":1215,"o":"m 868 521 l 694 521 l 694 1215 l 868 1215 l 868 1042 l 1042 1042 l 1042 1215 l 1215 1215 l 1215 521 l 1042 521 l 1042 868 l 868 868 l 868 521 m 174 1042 l 0 1042 l 0 1215 l 521 1215 l 521 1042 l 347 1042 l 347 521 l 174 521 l 174 1042 z "},"‰":{"ha":1389,"x_min":0,"x_max":1215,"o":"m 174 868 l 0 868 l 0 1042 l 174 1042 l 174 868 m 1215 0 l 1042 0 l 1042 521 l 1215 521 l 1215 0 m 347 1042 l 174 1042 l 174 1215 l 347 1215 l 347 1042 m 1215 1215 l 1215 1042 l 1042 1042 l 1042 868 l 868 868 l 868 694 l 694 694 l 694 521 l 521 521 l 521 347 l 347 347 l 347 174 l 174 174 l 174 0 l 0 0 l 0 347 l 174 347 l 174 521 l 347 521 l 347 694 l 521 694 l 521 868 l 694 868 l 694 1042 l 868 1042 l 868 1215 l 1215 1215 m 347 694 l 174 694 l 174 868 l 347 868 l 347 694 m 521 868 l 347 868 l 347 1042 l 521 1042 l 521 868 m 868 0 l 694 0 l 694 521 l 868 521 l 868 0 z "},"Ɓ":{"ha":1389,"x_min":0,"x_max":1215,"o":"m 521 694 l 868 694 l 868 1042 l 521 1042 l 521 694 m 868 174 l 868 521 l 521 521 l 521 174 l 868 174 m 1042 1215 l 1042 1042 l 1215 1042 l 1215 694 l 1042 694 l 1042 521 l 1215 521 l 1215 174 l 1042 174 l 1042 0 l 174 0 l 174 1042 l 0 1042 l 0 1215 l 1042 1215 z "},"ɓ":{"ha":1389,"x_min":0,"x_max":1215,"o":"m 347 174 l 868 174 l 868 694 l 347 694 l 347 174 m 347 1042 l 347 868 l 1042 868 l 1042 694 l 1215 694 l 1215 174 l 1042 174 l 1042 0 l 0 0 l 0 1215 l 521 1215 l 521 1042 l 347 1042 z "},"Ɗ":{"ha":1389,"x_min":0,"x_max":1215,"o":"m 694 174 l 694 347 l 868 347 l 868 868 l 694 868 l 694 1042 l 521 1042 l 521 174 l 694 174 m 868 1215 l 868 1042 l 1042 1042 l 1042 868 l 1215 868 l 1215 347 l 1042 347 l 1042 174 l 868 174 l 868 0 l 174 0 l 174 1042 l 0 1042 l 0 1215 l 868 1215 z "},"ɗ":{"ha":1389,"x_min":0,"x_max":1215,"o":"m 347 174 l 694 174 l 694 694 l 347 694 l 347 174 m 1042 1042 l 1042 0 l 174 0 l 174 174 l 0 174 l 0 694 l 174 694 l 174 868 l 694 868 l 694 1215 l 1215 1215 l 1215 1042 l 1042 1042 z "},"ŉ":{"ha":1389,"x_min":0,"x_max":1215,"o":"m 347 0 l 347 868 l 1042 868 l 1042 694 l 1215 694 l 1215 0 l 868 0 l 868 694 l 694 694 l 694 0 l 347 0 m 174 694 l 0 694 l 0 868 l 174 868 l 174 694 m 174 1042 l 0 1042 l 0 1215 l 347 1215 l 347 868 l 174 868 l 174 1042 z "},"Ɲ":{"ha":1389,"x_min":0,"x_max":1215,"o":"m 174 174 l 174 1215 l 521 1215 l 521 868 l 694 868 l 694 694 l 868 694 l 868 1215 l 1215 1215 l 1215 0 l 868 0 l 868 347 l 694 347 l 694 521 l 521 521 l 521 0 l 0 0 l 0 174 l 174 174 z "},"ɲ":{"ha":1389,"x_min":0,"x_max":1215,"o":"m 174 174 l 174 868 l 1042 868 l 1042 694 l 1215 694 l 1215 0 l 868 0 l 868 694 l 521 694 l 521 0 l 0 0 l 0 174 l 174 174 z "},"Ƴ":{"ha":1389,"x_min":0,"x_max":1215,"o":"m 1042 1042 l 1042 694 l 868 694 l 868 521 l 694 521 l 694 0 l 347 0 l 347 521 l 174 521 l 174 694 l 0 694 l 0 1215 l 347 1215 l 347 694 l 694 694 l 694 1215 l 1215 1215 l 1215 1042 l 1042 1042 z "},"ƴ":{"ha":1389,"x_min":0,"x_max":1215,"o":"m 1042 694 l 1042 521 l 868 521 l 868 174 l 694 174 l 694 0 l 0 0 l 0 174 l 347 174 l 347 347 l 174 347 l 174 521 l 0 521 l 0 868 l 347 868 l 347 521 l 521 521 l 521 347 l 694 347 l 694 868 l 1215 868 l 1215 694 l 1042 694 z "},"Ɠ":{"ha":1389,"x_min":0,"x_max":1215,"o":"m 1042 1042 l 347 1042 l 347 174 l 868 174 l 868 521 l 521 521 l 521 694 l 1215 694 l 1215 0 l 174 0 l 174 174 l 0 174 l 0 1042 l 174 1042 l 174 1215 l 1215 1215 l 1215 868 l 1042 868 l 1042 1042 z "},"ɠ":{"ha":1389,"x_min":0,"x_max":1215,"o":"m 868 521 l 868 694 l 347 694 l 347 521 l 868 521 m 1215 174 l 1042 174 l 1042 0 l 174 0 l 174 174 l 868 174 l 868 347 l 174 347 l 174 521 l 0 521 l 0 694 l 174 694 l 174 868 l 1042 868 l 1042 1042 l 1215 1042 l 1215 174 z "},"Ƙ":{"ha":1389,"x_min":0,"x_max":1215,"o":"m 1042 1042 l 868 1042 l 868 868 l 694 868 l 694 521 l 868 521 l 868 347 l 1042 347 l 1042 174 l 1215 174 l 1215 0 l 868 0 l 868 174 l 694 174 l 694 347 l 521 347 l 521 521 l 347 521 l 347 0 l 0 0 l 0 1215 l 347 1215 l 347 694 l 521 694 l 521 1042 l 694 1042 l 694 1215 l 1215 1215 l 1215 868 l 1042 868 l 1042 1042 z "},"ƙ":{"ha":1389,"x_min":0,"x_max":1215,"o":"m 347 1042 l 347 521 l 694 521 l 694 694 l 868 694 l 868 868 l 1215 868 l 1215 694 l 1042 694 l 1042 521 l 868 521 l 868 347 l 1042 347 l 1042 174 l 1215 174 l 1215 0 l 868 0 l 868 174 l 694 174 l 694 347 l 347 347 l 347 0 l 0 0 l 0 1215 l 521 1215 l 521 1042 l 347 1042 z "},"Ḃ":{"ha":1389,"x_min":0,"x_max":1215,"o":"m 347 521 l 868 521 l 868 694 l 347 694 l 347 521 m 1042 347 l 1215 347 l 1215 174 l 1042 174 l 1042 0 l 0 0 l 0 868 l 1042 868 l 1042 694 l 1215 694 l 1215 521 l 1042 521 l 1042 347 m 868 174 l 868 347 l 347 347 l 347 174 l 868 174 m 521 1042 l 521 1215 l 694 1215 l 694 1042 l 521 1042 z "},"ḃ":{"ha":1389,"x_min":0,"x_max":1215,"o":"m 0 0 l 0 1215 l 347 1215 l 347 868 l 1042 868 l 1042 694 l 1215 694 l 1215 174 l 1042 174 l 1042 0 l 0 0 m 347 174 l 868 174 l 868 694 l 347 694 l 347 174 m 521 1042 l 521 1215 l 694 1215 l 694 1042 l 521 1042 z "},"Ḋ":{"ha":1389,"x_min":0,"x_max":1215,"o":"m 694 174 l 694 347 l 868 347 l 868 521 l 694 521 l 694 694 l 347 694 l 347 174 l 694 174 m 868 174 l 868 0 l 0 0 l 0 868 l 868 868 l 868 694 l 1042 694 l 1042 521 l 1215 521 l 1215 347 l 1042 347 l 1042 174 l 868 174 m 347 1042 l 347 1215 l 521 1215 l 521 1042 l 347 1042 z "},"ḋ":{"ha":1389,"x_min":0,"x_max":1215,"o":"m 347 174 l 868 174 l 868 694 l 347 694 l 347 174 m 174 174 l 0 174 l 0 694 l 174 694 l 174 868 l 868 868 l 868 1215 l 1215 1215 l 1215 0 l 174 0 l 174 174 m 521 1042 l 521 1215 l 694 1215 l 694 1042 l 521 1042 z "},"Ḟ":{"ha":1389,"x_min":0,"x_max":1215,"o":"m 0 0 l 0 868 l 1215 868 l 1215 694 l 347 694 l 347 521 l 868 521 l 868 347 l 347 347 l 347 0 l 0 0 m 521 1042 l 521 1215 l 694 1215 l 694 1042 l 521 1042 z "},"ḟ":{"ha":1389,"x_min":0,"x_max":1215,"o":"m 0 347 l 0 521 l 347 521 l 347 868 l 1042 868 l 1042 694 l 694 694 l 694 521 l 1215 521 l 1215 347 l 694 347 l 694 0 l 347 0 l 347 347 l 0 347 m 521 1042 l 521 1215 l 694 1215 l 694 1042 l 521 1042 z "},"Ṁ":{"ha":1389,"x_min":0,"x_max":1215,"o":"m 0 0 l 0 1042 l 347 1042 l 347 868 l 521 868 l 521 694 l 694 694 l 694 868 l 868 868 l 868 1042 l 1215 1042 l 1215 0 l 868 0 l 868 521 l 694 521 l 694 347 l 521 347 l 521 521 l 347 521 l 347 0 l 0 0 m 521 1042 l 521 1215 l 694 1215 l 694 1042 l 521 1042 z "},"ṁ":{"ha":1389,"x_min":0,"x_max":1215,"o":"m 1042 868 l 1042 694 l 1215 694 l 1215 0 l 868 0 l 868 694 l 694 694 l 694 0 l 521 0 l 521 694 l 347 694 l 347 0 l 0 0 l 0 868 l 1042 868 m 521 1042 l 521 1215 l 694 1215 l 694 1042 l 521 1042 z "},"Ṗ":{"ha":1389,"x_min":0,"x_max":1215,"o":"m 868 521 l 868 694 l 347 694 l 347 521 l 868 521 m 1042 868 l 1042 694 l 1215 694 l 1215 521 l 1042 521 l 1042 347 l 347 347 l 347 0 l 0 0 l 0 868 l 1042 868 m 521 1042 l 521 1215 l 694 1215 l 694 1042 l 521 1042 z "},"ṗ":{"ha":1389,"x_min":0,"x_max":1215,"o":"m 868 347 l 868 521 l 347 521 l 347 347 l 868 347 m 0 0 l 0 694 l 1042 694 l 1042 521 l 1215 521 l 1215 347 l 1042 347 l 1042 174 l 347 174 l 347 0 l 0 0 m 521 868 l 521 1042 l 694 1042 l 694 868 l 521 868 z "},"Ṡ":{"ha":1389,"x_min":0,"x_max":1215,"o":"m 1215 868 l 1215 694 l 347 694 l 347 521 l 1215 521 l 1215 0 l 0 0 l 0 174 l 868 174 l 868 347 l 0 347 l 0 868 l 1215 868 m 521 1042 l 521 1215 l 694 1215 l 694 1042 l 521 1042 z "},"ṡ":{"ha":1389,"x_min":0,"x_max":1215,"o":"m 1042 868 l 1042 694 l 347 694 l 347 521 l 1042 521 l 1042 347 l 1215 347 l 1215 174 l 1042 174 l 1042 0 l 174 0 l 174 174 l 868 174 l 868 347 l 174 347 l 174 521 l 0 521 l 0 694 l 174 694 l 174 868 l 1042 868 m 521 1042 l 521 1215 l 694 1215 l 694 1042 l 521 1042 z "},"Ṫ":{"ha":1389,"x_min":0,"x_max":1215,"o":"m 0 694 l 0 868 l 1215 868 l 1215 694 l 868 694 l 868 0 l 347 0 l 347 694 l 0 694 m 521 1042 l 521 1215 l 694 1215 l 694 1042 l 521 1042 z "},"ṫ":{"ha":1389,"x_min":0,"x_max":1215,"o":"m 0 521 l 0 694 l 347 694 l 347 868 l 694 868 l 694 694 l 1215 694 l 1215 521 l 694 521 l 694 174 l 1215 174 l 1215 0 l 347 0 l 347 521 l 0 521 m 521 1042 l 521 1215 l 694 1215 l 694 1042 l 521 1042 z "},"А":{"ha":1389,"x_min":0,"x_max":1215,"o":"m 868 521 l 868 868 l 694 868 l 694 1042 l 521 1042 l 521 868 l 347 868 l 347 521 l 868 521 m 0 0 l 0 868 l 174 868 l 174 1042 l 347 1042 l 347 1215 l 868 1215 l 868 1042 l 1042 1042 l 1042 868 l 1215 868 l 1215 0 l 868 0 l 868 347 l 347 347 l 347 0 l 0 0 z "},"Б":{"ha":1389,"x_min":0,"x_max":1215,"o":"m 0 0 l 0 1215 l 1042 1215 l 1042 1042 l 347 1042 l 347 694 l 1042 694 l 1042 521 l 1215 521 l 1215 174 l 1042 174 l 1042 0 l 0 0 m 347 174 l 868 174 l 868 521 l 347 521 l 347 174 z "},"В":{"ha":1389,"x_min":0,"x_max":1215,"o":"m 347 694 l 868 694 l 868 1042 l 347 1042 l 347 694 m 1042 521 l 1215 521 l 1215 174 l 1042 174 l 1042 0 l 0 0 l 0 1215 l 1042 1215 l 1042 1042 l 1215 1042 l 1215 694 l 1042 694 l 1042 521 m 868 174 l 868 521 l 347 521 l 347 174 l 868 174 z "},"Г":{"ha":1389,"x_min":0,"x_max":1215,"o":"m 0 0 l 0 1215 l 1215 1215 l 1215 1042 l 347 1042 l 347 0 l 0 0 z "},"Д":{"ha":1389,"x_min":0,"x_max":1215,"o":"m 0 0 l 0 347 l 174 347 l 174 1215 l 1042 1215 l 1042 347 l 1215 347 l 1215 0 l 868 0 l 868 174 l 347 174 l 347 0 l 0 0 m 521 347 l 694 347 l 694 1042 l 521 1042 l 521 347 z "},"Е":{"ha":1389,"x_min":0,"x_max":1215,"o":"m 0 0 l 0 1215 l 1215 1215 l 1215 1042 l 347 1042 l 347 694 l 1042 694 l 1042 521 l 347 521 l 347 174 l 1215 174 l 1215 0 l 0 0 z "},"Ж":{"ha":1389,"x_min":0,"x_max":1215,"o":"m 0 0 l 0 347 l 174 347 l 174 521 l 347 521 l 347 694 l 174 694 l 174 868 l 0 868 l 0 1215 l 347 1215 l 347 868 l 521 868 l 521 1215 l 694 1215 l 694 868 l 868 868 l 868 1215 l 1215 1215 l 1215 868 l 1042 868 l 1042 694 l 868 694 l 868 521 l 1042 521 l 1042 347 l 1215 347 l 1215 0 l 868 0 l 868 347 l 694 347 l 694 0 l 521 0 l 521 347 l 347 347 l 347 0 l 0 0 z "},"З":{"ha":1389,"x_min":0,"x_max":1215,"o":"m 174 174 l 0 174 l 0 347 l 347 347 l 347 174 l 868 174 l 868 521 l 521 521 l 521 694 l 868 694 l 868 1042 l 347 1042 l 347 868 l 0 868 l 0 1042 l 174 1042 l 174 1215 l 1042 1215 l 1042 1042 l 1215 1042 l 1215 694 l 1042 694 l 1042 521 l 1215 521 l 1215 174 l 1042 174 l 1042 0 l 174 0 l 174 174 z "},"И":{"ha":1389,"x_min":0,"x_max":1215,"o":"m 1215 0 l 868 0 l 868 694 l 694 694 l 694 347 l 521 347 l 521 174 l 347 174 l 347 0 l 0 0 l 0 1215 l 347 1215 l 347 521 l 521 521 l 521 868 l 694 868 l 694 1042 l 868 1042 l 868 1215 l 1215 1215 l 1215 0 z "},"Й":{"ha":1389,"x_min":0,"x_max":1215,"o":"m 1215 0 l 868 0 l 868 347 l 694 347 l 694 174 l 521 174 l 521 0 l 0 0 l 0 868 l 347 868 l 347 347 l 521 347 l 521 521 l 694 521 l 694 694 l 868 694 l 868 868 l 1215 868 l 1215 0 m 694 868 l 521 868 l 521 1042 l 694 1042 l 694 868 m 868 1042 l 694 1042 l 694 1215 l 868 1215 l 868 1042 m 521 1042 l 347 1042 l 347 1215 l 521 1215 l 521 1042 z "},"К":{"ha":1389,"x_min":0,"x_max":1215,"o":"m 0 0 l 0 1215 l 347 1215 l 347 694 l 521 694 l 521 868 l 694 868 l 694 1042 l 868 1042 l 868 1215 l 1215 1215 l 1215 1042 l 1042 1042 l 1042 868 l 868 868 l 868 694 l 694 694 l 694 521 l 868 521 l 868 347 l 1042 347 l 1042 174 l 1215 174 l 1215 0 l 868 0 l 868 174 l 694 174 l 694 347 l 521 347 l 521 521 l 347 521 l 347 0 l 0 0 z "},"Л":{"ha":1389,"x_min":0,"x_max":1215,"o":"m 0 0 l 0 174 l 174 174 l 174 1215 l 1215 1215 l 1215 0 l 868 0 l 868 1042 l 521 1042 l 521 174 l 347 174 l 347 0 l 0 0 z "},"М":{"ha":1389,"x_min":0,"x_max":1215,"o":"m 0 0 l 0 1215 l 347 1215 l 347 1042 l 521 1042 l 521 868 l 694 868 l 694 1042 l 868 1042 l 868 1215 l 1215 1215 l 1215 0 l 868 0 l 868 694 l 694 694 l 694 521 l 521 521 l 521 694 l 347 694 l 347 0 l 0 0 z "},"Н":{"ha":1389,"x_min":0,"x_max":1215,"o":"m 0 0 l 0 1215 l 347 1215 l 347 694 l 868 694 l 868 1215 l 1215 1215 l 1215 0 l 868 0 l 868 521 l 347 521 l 347 0 l 0 0 z "},"О":{"ha":1389,"x_min":0,"x_max":1215,"o":"m 174 174 l 0 174 l 0 1042 l 174 1042 l 174 1215 l 1042 1215 l 1042 1042 l 1215 1042 l 1215 174 l 1042 174 l 1042 0 l 174 0 l 174 174 m 347 174 l 868 174 l 868 1042 l 347 1042 l 347 174 z "},"П":{"ha":1389,"x_min":0,"x_max":1215,"o":"m 0 0 l 0 1215 l 1215 1215 l 1215 0 l 868 0 l 868 1042 l 347 1042 l 347 0 l 0 0 z "},"Р":{"ha":1389,"x_min":0,"x_max":1215,"o":"m 1042 1042 l 1215 1042 l 1215 694 l 1042 694 l 1042 521 l 347 521 l 347 0 l 0 0 l 0 1215 l 1042 1215 l 1042 1042 m 868 694 l 868 1042 l 347 1042 l 347 694 l 868 694 z "},"С":{"ha":1389,"x_min":0,"x_max":1215,"o":"m 174 174 l 0 174 l 0 1042 l 174 1042 l 174 1215 l 1042 1215 l 1042 1042 l 1215 1042 l 1215 868 l 868 868 l 868 1042 l 347 1042 l 347 174 l 868 174 l 868 347 l 1215 347 l 1215 174 l 1042 174 l 1042 0 l 174 0 l 174 174 z "},"Т":{"ha":1389,"x_min":174,"x_max":1215,"o":"m 174 1042 l 174 1215 l 1215 1215 l 1215 1042 l 868 1042 l 868 0 l 521 0 l 521 1042 l 174 1042 z "},"У":{"ha":1389,"x_min":0,"x_max":1215,"o":"m 0 0 l 0 174 l 347 174 l 347 347 l 521 347 l 521 521 l 347 521 l 347 694 l 174 694 l 174 868 l 0 868 l 0 1215 l 347 1215 l 347 868 l 521 868 l 521 694 l 694 694 l 694 868 l 868 868 l 868 1215 l 1215 1215 l 1215 868 l 1042 868 l 1042 521 l 868 521 l 868 347 l 694 347 l 694 174 l 521 174 l 521 0 l 0 0 z "},"Ф":{"ha":1389,"x_min":0,"x_max":1215,"o":"m 174 347 l 0 347 l 0 868 l 174 868 l 174 1042 l 521 1042 l 521 1215 l 694 1215 l 694 1042 l 1042 1042 l 1042 868 l 1215 868 l 1215 347 l 1042 347 l 1042 174 l 694 174 l 694 0 l 521 0 l 521 174 l 174 174 l 174 347 m 694 347 l 868 347 l 868 868 l 694 868 l 694 347 m 347 347 l 521 347 l 521 868 l 347 868 l 347 347 z "},"Х":{"ha":1389,"x_min":0,"x_max":1215,"o":"m 0 0 l 0 347 l 174 347 l 174 521 l 347 521 l 347 694 l 174 694 l 174 868 l 0 868 l 0 1215 l 347 1215 l 347 1042 l 521 1042 l 521 868 l 694 868 l 694 1042 l 868 1042 l 868 1215 l 1215 1215 l 1215 868 l 1042 868 l 1042 694 l 868 694 l 868 521 l 1042 521 l 1042 347 l 1215 347 l 1215 0 l 868 0 l 868 174 l 694 174 l 694 347 l 521 347 l 521 174 l 347 174 l 347 0 l 0 0 z "},"Ц":{"ha":1389,"x_min":0,"x_max":1215,"o":"m 0 174 l 0 1215 l 347 1215 l 347 347 l 694 347 l 694 1215 l 1042 1215 l 1042 347 l 1215 347 l 1215 0 l 868 0 l 868 174 l 0 174 z "},"Ч":{"ha":1389,"x_min":0,"x_max":1215,"o":"m 0 521 l 0 1215 l 347 1215 l 347 694 l 868 694 l 868 1215 l 1215 1215 l 1215 0 l 868 0 l 868 521 l 0 521 z "},"Ш":{"ha":1389,"x_min":0,"x_max":1215,"o":"m 0 0 l 0 1215 l 347 1215 l 347 174 l 521 174 l 521 1215 l 694 1215 l 694 174 l 868 174 l 868 1215 l 1215 1215 l 1215 0 l 0 0 z "},"Щ":{"ha":1389,"x_min":0,"x_max":1215,"o":"m 0 174 l 0 1215 l 347 1215 l 347 347 l 521 347 l 521 1215 l 694 1215 l 694 347 l 868 347 l 868 1215 l 1215 1215 l 1215 0 l 868 0 l 868 174 l 0 174 z "},"Ъ":{"ha":1389,"x_min":0,"x_max":1215,"o":"m 0 1042 l 0 1215 l 521 1215 l 521 868 l 1042 868 l 1042 694 l 1215 694 l 1215 174 l 1042 174 l 1042 0 l 174 0 l 174 1042 l 0 1042 m 521 174 l 868 174 l 868 694 l 521 694 l 521 174 z "},"Ы":{"ha":1389,"x_min":0,"x_max":1215,"o":"m 868 0 l 868 1215 l 1215 1215 l 1215 0 l 868 0 m 0 1215 l 347 1215 l 347 694 l 521 694 l 521 521 l 347 521 l 347 174 l 521 174 l 521 0 l 0 0 l 0 1215 m 521 521 l 694 521 l 694 174 l 521 174 l 521 521 z "},"Ь":{"ha":1389,"x_min":0,"x_max":1215,"o":"m 0 0 l 0 1215 l 347 1215 l 347 694 l 1042 694 l 1042 521 l 1215 521 l 1215 174 l 1042 174 l 1042 0 l 0 0 m 347 174 l 868 174 l 868 521 l 347 521 l 347 174 z "},"Э":{"ha":1389,"x_min":0,"x_max":1215,"o":"m 174 174 l 0 174 l 0 347 l 347 347 l 347 174 l 868 174 l 868 521 l 521 521 l 521 694 l 868 694 l 868 1042 l 347 1042 l 347 868 l 0 868 l 0 1042 l 174 1042 l 174 1215 l 1042 1215 l 1042 1042 l 1215 1042 l 1215 174 l 1042 174 l 1042 0 l 174 0 l 174 174 z "},"Ю":{"ha":1389,"x_min":0,"x_max":1215,"o":"m 174 0 l 0 0 l 0 1215 l 174 1215 l 174 694 l 347 694 l 347 1042 l 521 1042 l 521 1215 l 1042 1215 l 1042 1042 l 1215 1042 l 1215 174 l 1042 174 l 1042 0 l 521 0 l 521 174 l 347 174 l 347 521 l 174 521 l 174 0 m 694 174 l 868 174 l 868 1042 l 694 1042 l 694 174 z "},"Я":{"ha":1389,"x_min":0,"x_max":1215,"o":"m 1215 0 l 868 0 l 868 521 l 694 521 l 694 347 l 521 347 l 521 174 l 347 174 l 347 0 l 0 0 l 0 174 l 174 174 l 174 347 l 347 347 l 347 521 l 174 521 l 174 694 l 0 694 l 0 1042 l 174 1042 l 174 1215 l 1215 1215 l 1215 0 m 868 694 l 868 1042 l 347 1042 l 347 694 l 868 694 z "},"а":{"ha":1389,"x_min":0,"x_max":1215,"o":"m 174 174 l 0 174 l 0 347 l 174 347 l 174 521 l 868 521 l 868 694 l 174 694 l 174 868 l 1042 868 l 1042 694 l 1215 694 l 1215 0 l 174 0 l 174 174 m 347 174 l 868 174 l 868 347 l 347 347 l 347 174 z "},"б":{"ha":1389,"x_min":0,"x_max":1215,"o":"m 174 174 l 0 174 l 0 1042 l 174 1042 l 174 1215 l 1042 1215 l 1042 1042 l 347 1042 l 347 868 l 1042 868 l 1042 694 l 1215 694 l 1215 174 l 1042 174 l 1042 0 l 174 0 l 174 174 m 347 174 l 868 174 l 868 694 l 347 694 l 347 174 z "},"в":{"ha":1389,"x_min":0,"x_max":1215,"o":"m 347 521 l 868 521 l 868 694 l 347 694 l 347 521 m 1042 347 l 1215 347 l 1215 174 l 1042 174 l 1042 0 l 0 0 l 0 868 l 1042 868 l 1042 694 l 1215 694 l 1215 521 l 1042 521 l 1042 347 m 868 174 l 868 347 l 347 347 l 347 174 l 868 174 z "},"г":{"ha":1389,"x_min":0,"x_max":1215,"o":"m 0 0 l 0 868 l 1215 868 l 1215 694 l 347 694 l 347 0 l 0 0 z "},"д":{"ha":1389,"x_min":0,"x_max":1215,"o":"m 0 0 l 0 347 l 174 347 l 174 868 l 1042 868 l 1042 347 l 1215 347 l 1215 0 l 868 0 l 868 174 l 347 174 l 347 0 l 0 0 m 521 347 l 694 347 l 694 694 l 521 694 l 521 347 z "},"е":{"ha":1389,"x_min":0,"x_max":1215,"o":"m 868 521 l 868 694 l 347 694 l 347 521 l 868 521 m 174 174 l 0 174 l 0 694 l 174 694 l 174 868 l 1042 868 l 1042 694 l 1215 694 l 1215 347 l 347 347 l 347 174 l 1042 174 l 1042 0 l 174 0 l 174 174 z "},"ж":{"ha":1389,"x_min":0,"x_max":1215,"o":"m 174 521 l 0 521 l 0 868 l 347 868 l 347 521 l 521 521 l 521 868 l 694 868 l 694 521 l 868 521 l 868 868 l 1215 868 l 1215 521 l 1042 521 l 1042 347 l 1215 347 l 1215 0 l 868 0 l 868 347 l 694 347 l 694 0 l 521 0 l 521 347 l 347 347 l 347 0 l 0 0 l 0 347 l 174 347 l 174 521 z "},"з":{"ha":1389,"x_min":0,"x_max":1215,"o":"m 174 174 l 0 174 l 0 347 l 347 347 l 347 174 l 868 174 l 868 347 l 521 347 l 521 521 l 868 521 l 868 694 l 347 694 l 347 521 l 0 521 l 0 694 l 174 694 l 174 868 l 1042 868 l 1042 694 l 1215 694 l 1215 521 l 1042 521 l 1042 347 l 1215 347 l 1215 174 l 1042 174 l 1042 0 l 174 0 l 174 174 z "},"и":{"ha":1389,"x_min":0,"x_max":1215,"o":"m 1215 0 l 868 0 l 868 347 l 694 347 l 694 174 l 521 174 l 521 0 l 0 0 l 0 868 l 347 868 l 347 347 l 521 347 l 521 521 l 694 521 l 694 694 l 868 694 l 868 868 l 1215 868 l 1215 0 z "},"й":{"ha":1389,"x_min":0,"x_max":1215,"o":"m 1215 0 l 868 0 l 868 347 l 694 347 l 694 174 l 521 174 l 521 0 l 0 0 l 0 694 l 347 694 l 347 347 l 521 347 l 521 521 l 694 521 l 694 694 l 1215 694 l 1215 0 m 521 1042 l 347 1042 l 347 1215 l 521 1215 l 521 1042 m 868 1042 l 694 1042 l 694 1215 l 868 1215 l 868 1042 m 694 868 l 521 868 l 521 1042 l 694 1042 l 694 868 z "},"к":{"ha":1389,"x_min":0,"x_max":1215,"o":"m 0 0 l 0 868 l 347 868 l 347 521 l 694 521 l 694 694 l 868 694 l 868 868 l 1215 868 l 1215 694 l 1042 694 l 1042 521 l 868 521 l 868 347 l 1042 347 l 1042 174 l 1215 174 l 1215 0 l 868 0 l 868 174 l 694 174 l 694 347 l 347 347 l 347 0 l 0 0 z "},"л":{"ha":1389,"x_min":0,"x_max":1215,"o":"m 0 0 l 0 174 l 174 174 l 174 868 l 1215 868 l 1215 0 l 868 0 l 868 694 l 521 694 l 521 174 l 347 174 l 347 0 l 0 0 z "},"м":{"ha":1389,"x_min":0,"x_max":1215,"o":"m 0 0 l 0 868 l 347 868 l 347 694 l 521 694 l 521 521 l 694 521 l 694 694 l 868 694 l 868 868 l 1215 868 l 1215 0 l 868 0 l 868 347 l 694 347 l 694 174 l 521 174 l 521 347 l 347 347 l 347 0 l 0 0 z "},"н":{"ha":1389,"x_min":0,"x_max":1215,"o":"m 0 0 l 0 868 l 347 868 l 347 521 l 868 521 l 868 868 l 1215 868 l 1215 0 l 868 0 l 868 347 l 347 347 l 347 0 l 0 0 z "},"о":{"ha":1389,"x_min":0,"x_max":1215,"o":"m 174 174 l 0 174 l 0 694 l 174 694 l 174 868 l 1042 868 l 1042 694 l 1215 694 l 1215 174 l 1042 174 l 1042 0 l 174 0 l 174 174 m 868 694 l 347 694 l 347 174 l 868 174 l 868 694 z "},"п":{"ha":1389,"x_min":0,"x_max":1215,"o":"m 0 0 l 0 868 l 1215 868 l 1215 0 l 868 0 l 868 694 l 347 694 l 347 0 l 0 0 z "},"р":{"ha":1389,"x_min":0,"x_max":1215,"o":"m 868 521 l 868 694 l 347 694 l 347 521 l 868 521 m 0 0 l 0 868 l 1042 868 l 1042 694 l 1215 694 l 1215 521 l 1042 521 l 1042 347 l 347 347 l 347 0 l 0 0 z "},"с":{"ha":1389,"x_min":0,"x_max":1215,"o":"m 174 174 l 0 174 l 0 694 l 174 694 l 174 868 l 1042 868 l 1042 694 l 1215 694 l 1215 521 l 868 521 l 868 694 l 347 694 l 347 174 l 868 174 l 868 347 l 1215 347 l 1215 174 l 1042 174 l 1042 0 l 174 0 l 174 174 z "},"т":{"ha":1389,"x_min":174,"x_max":1215,"o":"m 174 694 l 174 868 l 1215 868 l 1215 694 l 868 694 l 868 0 l 521 0 l 521 694 l 174 694 z "},"у":{"ha":1389,"x_min":0,"x_max":1215,"o":"m 0 0 l 0 174 l 521 174 l 521 347 l 347 347 l 347 521 l 174 521 l 174 694 l 0 694 l 0 868 l 347 868 l 347 694 l 521 694 l 521 521 l 694 521 l 694 694 l 868 694 l 868 868 l 1215 868 l 1215 694 l 1042 694 l 1042 347 l 868 347 l 868 174 l 694 174 l 694 0 l 0 0 z "},"ф":{"ha":1389,"x_min":0,"x_max":1215,"o":"m 174 347 l 0 347 l 0 694 l 174 694 l 174 868 l 521 868 l 521 1042 l 694 1042 l 694 868 l 1042 868 l 1042 694 l 1215 694 l 1215 347 l 1042 347 l 1042 174 l 694 174 l 694 0 l 521 0 l 521 174 l 174 174 l 174 347 m 694 347 l 868 347 l 868 694 l 694 694 l 694 347 m 347 347 l 521 347 l 521 694 l 347 694 l 347 347 z "},"х":{"ha":1389,"x_min":0,"x_max":1215,"o":"m 0 0 l 0 174 l 174 174 l 174 347 l 347 347 l 347 521 l 174 521 l 174 694 l 0 694 l 0 868 l 521 868 l 521 694 l 694 694 l 694 868 l 1215 868 l 1215 694 l 1042 694 l 1042 521 l 868 521 l 868 347 l 1042 347 l 1042 174 l 1215 174 l 1215 0 l 694 0 l 694 174 l 521 174 l 521 0 l 0 0 z "},"ц":{"ha":1389,"x_min":0,"x_max":1215,"o":"m 0 174 l 0 868 l 347 868 l 347 347 l 694 347 l 694 868 l 1042 868 l 1042 347 l 1215 347 l 1215 0 l 868 0 l 868 174 l 0 174 z "},"ч":{"ha":1389,"x_min":0,"x_max":1215,"o":"m 0 347 l 0 868 l 347 868 l 347 521 l 868 521 l 868 868 l 1215 868 l 1215 0 l 868 0 l 868 347 l 0 347 z "},"ш":{"ha":1389,"x_min":0,"x_max":1215,"o":"m 0 0 l 0 868 l 347 868 l 347 174 l 521 174 l 521 868 l 694 868 l 694 174 l 868 174 l 868 868 l 1215 868 l 1215 0 l 0 0 z "},"щ":{"ha":1389,"x_min":0,"x_max":1215,"o":"m 0 174 l 0 868 l 347 868 l 347 347 l 521 347 l 521 868 l 694 868 l 694 347 l 868 347 l 868 868 l 1215 868 l 1215 0 l 868 0 l 868 174 l 0 174 z "},"ъ":{"ha":1389,"x_min":0,"x_max":1215,"o":"m 0 694 l 0 868 l 521 868 l 521 521 l 1042 521 l 1042 347 l 1215 347 l 1215 174 l 1042 174 l 1042 0 l 174 0 l 174 694 l 0 694 m 521 174 l 868 174 l 868 347 l 521 347 l 521 174 z "},"ы":{"ha":1389,"x_min":0,"x_max":1215,"o":"m 868 0 l 868 868 l 1215 868 l 1215 0 l 868 0 m 0 868 l 347 868 l 347 521 l 521 521 l 521 347 l 347 347 l 347 174 l 521 174 l 521 0 l 0 0 l 0 868 m 521 347 l 694 347 l 694 174 l 521 174 l 521 347 z "},"ь":{"ha":1389,"x_min":0,"x_max":1215,"o":"m 0 0 l 0 868 l 347 868 l 347 521 l 1042 521 l 1042 347 l 1215 347 l 1215 174 l 1042 174 l 1042 0 l 0 0 m 347 174 l 868 174 l 868 347 l 347 347 l 347 174 z "},"э":{"ha":1389,"x_min":0,"x_max":1215,"o":"m 174 174 l 0 174 l 0 347 l 347 347 l 347 174 l 868 174 l 868 347 l 521 347 l 521 521 l 868 521 l 868 694 l 347 694 l 347 521 l 0 521 l 0 694 l 174 694 l 174 868 l 1042 868 l 1042 694 l 1215 694 l 1215 174 l 1042 174 l 1042 0 l 174 0 l 174 174 z "},"ю":{"ha":1389,"x_min":0,"x_max":1215,"o":"m 174 0 l 0 0 l 0 868 l 174 868 l 174 521 l 347 521 l 347 694 l 521 694 l 521 868 l 1042 868 l 1042 694 l 1215 694 l 1215 174 l 1042 174 l 1042 0 l 521 0 l 521 174 l 347 174 l 347 347 l 174 347 l 174 0 m 694 174 l 868 174 l 868 694 l 694 694 l 694 174 z "},"я":{"ha":1389,"x_min":0,"x_max":1215,"o":"m 868 521 l 868 694 l 347 694 l 347 521 l 868 521 m 347 347 l 174 347 l 174 521 l 0 521 l 0 694 l 174 694 l 174 868 l 1215 868 l 1215 0 l 868 0 l 868 347 l 694 347 l 694 174 l 521 174 l 521 0 l 174 0 l 174 174 l 347 174 l 347 347 z "},"Ё":{"ha":1389,"x_min":0,"x_max":1215,"o":"m 0 0 l 0 868 l 1215 868 l 1215 694 l 347 694 l 347 521 l 1042 521 l 1042 347 l 347 347 l 347 174 l 1215 174 l 1215 0 l 0 0 m 174 1042 l 174 1215 l 521 1215 l 521 1042 l 174 1042 m 694 1042 l 694 1215 l 1042 1215 l 1042 1042 l 694 1042 z "},"ё":{"ha":1389,"x_min":0,"x_max":1215,"o":"m 868 521 l 868 694 l 347 694 l 347 521 l 868 521 m 174 174 l 0 174 l 0 694 l 174 694 l 174 868 l 1042 868 l 1042 694 l 1215 694 l 1215 347 l 347 347 l 347 174 l 1042 174 l 1042 0 l 174 0 l 174 174 m 174 1042 l 174 1215 l 521 1215 l 521 1042 l 174 1042 m 694 1042 l 694 1215 l 1042 1215 l 1042 1042 l 694 1042 z "},"Ђ":{"ha":1389,"x_min":0,"x_max":1215,"o":"m 174 0 l 174 1042 l 0 1042 l 0 1215 l 868 1215 l 868 1042 l 521 1042 l 521 868 l 1042 868 l 1042 694 l 1215 694 l 1215 174 l 1042 174 l 1042 0 l 694 0 l 694 174 l 868 174 l 868 694 l 521 694 l 521 0 l 174 0 z "},"ђ":{"ha":1389,"x_min":0,"x_max":1215,"o":"m 174 174 l 174 1042 l 0 1042 l 0 1215 l 694 1215 l 694 1042 l 521 1042 l 521 868 l 1042 868 l 1042 694 l 1215 694 l 1215 174 l 1042 174 l 1042 0 l 694 0 l 694 174 l 868 174 l 868 694 l 521 694 l 521 174 l 174 174 z "},"Ј":{"ha":1389,"x_min":0,"x_max":1215,"o":"m 174 174 l 0 174 l 0 521 l 347 521 l 347 174 l 868 174 l 868 1042 l 521 1042 l 521 1215 l 1215 1215 l 1215 174 l 1042 174 l 1042 0 l 174 0 l 174 174 z "},"ј":{"ha":1389,"x_min":0,"x_max":1215,"o":"m 174 174 l 0 174 l 0 347 l 347 347 l 347 174 l 868 174 l 868 868 l 1215 868 l 1215 174 l 1042 174 l 1042 0 l 174 0 l 174 174 m 1215 1215 l 1215 1042 l 868 1042 l 868 1215 l 1215 1215 z "},"Љ":{"ha":1389,"x_min":0,"x_max":1215,"o":"m 1215 174 l 1042 174 l 1042 0 l 521 0 l 521 1042 l 347 1042 l 347 0 l 0 0 l 0 1215 l 868 1215 l 868 694 l 1042 694 l 1042 521 l 1215 521 l 1215 174 m 1042 174 l 1042 521 l 868 521 l 868 174 l 1042 174 z "},"љ":{"ha":1389,"x_min":0,"x_max":1215,"o":"m 1215 174 l 1042 174 l 1042 0 l 521 0 l 521 694 l 347 694 l 347 0 l 0 0 l 0 868 l 868 868 l 868 521 l 1042 521 l 1042 347 l 1215 347 l 1215 174 m 1042 174 l 1042 347 l 868 347 l 868 174 l 1042 174 z "},"Њ":{"ha":1389,"x_min":0,"x_max":1215,"o":"m 1215 174 l 1042 174 l 1042 0 l 521 0 l 521 521 l 347 521 l 347 0 l 0 0 l 0 1215 l 347 1215 l 347 694 l 521 694 l 521 1215 l 868 1215 l 868 694 l 1042 694 l 1042 521 l 1215 521 l 1215 174 m 1042 174 l 1042 521 l 868 521 l 868 174 l 1042 174 z "},"њ":{"ha":1389,"x_min":0,"x_max":1215,"o":"m 1215 174 l 1042 174 l 1042 0 l 521 0 l 521 347 l 347 347 l 347 0 l 0 0 l 0 868 l 347 868 l 347 521 l 521 521 l 521 868 l 868 868 l 868 521 l 1042 521 l 1042 347 l 1215 347 l 1215 174 m 1042 174 l 1042 347 l 868 347 l 868 174 l 1042 174 z "},"Ћ":{"ha":1389,"x_min":0,"x_max":1215,"o":"m 174 0 l 174 1042 l 0 1042 l 0 1215 l 868 1215 l 868 1042 l 521 1042 l 521 868 l 1042 868 l 1042 694 l 1215 694 l 1215 0 l 868 0 l 868 694 l 521 694 l 521 0 l 174 0 z "},"ћ":{"ha":1389,"x_min":0,"x_max":1215,"o":"m 174 0 l 174 868 l 0 868 l 0 1042 l 174 1042 l 174 1215 l 521 1215 l 521 1042 l 694 1042 l 694 868 l 521 868 l 521 694 l 1042 694 l 1042 521 l 1215 521 l 1215 0 l 868 0 l 868 521 l 521 521 l 521 0 l 174 0 z "},"Џ":{"ha":1389,"x_min":0,"x_max":1215,"o":"m 0 347 l 0 1215 l 347 1215 l 347 521 l 868 521 l 868 1215 l 1215 1215 l 1215 347 l 868 347 l 868 0 l 347 0 l 347 347 l 0 347 z "},"џ":{"ha":1389,"x_min":0,"x_max":1215,"o":"m 0 174 l 0 868 l 347 868 l 347 347 l 868 347 l 868 868 l 1215 868 l 1215 174 l 868 174 l 868 0 l 347 0 l 347 174 l 0 174 z "},"І":{"ha":1389,"x_min":174,"x_max":1215,"o":"m 174 0 l 174 174 l 521 174 l 521 1042 l 174 1042 l 174 1215 l 1215 1215 l 1215 1042 l 868 1042 l 868 174 l 1215 174 l 1215 0 l 174 0 z "},"і":{"ha":1389,"x_min":0,"x_max":1215,"o":"m 0 0 l 0 174 l 521 174 l 521 694 l 174 694 l 174 868 l 868 868 l 868 174 l 1215 174 l 1215 0 l 0 0 m 521 1042 l 521 1215 l 868 1215 l 868 1042 l 521 1042 z "},"Ў":{"ha":1389,"x_min":0,"x_max":1215,"o":"m 0 0 l 0 174 l 521 174 l 521 347 l 347 347 l 347 521 l 174 521 l 174 694 l 0 694 l 0 868 l 347 868 l 347 694 l 521 694 l 521 521 l 694 521 l 694 694 l 868 694 l 868 868 l 1215 868 l 1215 694 l 1042 694 l 1042 347 l 868 347 l 868 174 l 694 174 l 694 0 l 0 0 m 694 868 l 521 868 l 521 1042 l 694 1042 l 694 868 m 868 1042 l 694 1042 l 694 1215 l 868 1215 l 868 1042 m 521 1042 l 347 1042 l 347 1215 l 521 1215 l 521 1042 z "},"ў":{"ha":1389,"x_min":0,"x_max":1042,"o":"m 0 0 l 0 174 l 521 174 l 521 347 l 347 347 l 347 521 l 174 521 l 174 694 l 521 694 l 521 521 l 694 521 l 694 694 l 1042 694 l 1042 347 l 868 347 l 868 174 l 694 174 l 694 0 l 0 0 m 694 868 l 521 868 l 521 1042 l 694 1042 l 694 868 m 868 1042 l 694 1042 l 694 1215 l 868 1215 l 868 1042 m 521 1042 l 347 1042 l 347 1215 l 521 1215 l 521 1042 z "},"Ѝ":{"ha":1389,"x_min":0,"x_max":1215,"o":"m 1215 0 l 868 0 l 868 347 l 694 347 l 694 174 l 521 174 l 521 0 l 0 0 l 0 868 l 347 868 l 347 347 l 521 347 l 521 521 l 694 521 l 694 694 l 868 694 l 868 868 l 1215 868 l 1215 0 m 694 868 l 521 868 l 521 1042 l 694 1042 l 694 868 m 521 1042 l 347 1042 l 347 1215 l 521 1215 l 521 1042 z "},"ѝ":{"ha":1389,"x_min":0,"x_max":1215,"o":"m 694 868 l 521 868 l 521 1042 l 694 1042 l 694 868 m 521 1042 l 347 1042 l 347 1215 l 521 1215 l 521 1042 m 1215 0 l 868 0 l 868 347 l 694 347 l 694 174 l 521 174 l 521 0 l 0 0 l 0 694 l 347 694 l 347 347 l 521 347 l 521 521 l 694 521 l 694 694 l 1215 694 l 1215 0 z "},"Ґ":{"ha":1389,"x_min":0,"x_max":1215,"o":"m 1215 868 l 347 868 l 347 0 l 0 0 l 0 1042 l 1042 1042 l 1042 1215 l 1215 1215 l 1215 868 z "},"ґ":{"ha":1389,"x_min":0,"x_max":1215,"o":"m 1215 694 l 347 694 l 347 0 l 0 0 l 0 868 l 1042 868 l 1042 1042 l 1215 1042 l 1215 694 z "},"Є":{"ha":1389,"x_min":0,"x_max":1215,"o":"m 1042 174 l 1042 0 l 174 0 l 174 174 l 0 174 l 0 1042 l 174 1042 l 174 1215 l 1042 1215 l 1042 1042 l 1215 1042 l 1215 868 l 868 868 l 868 1042 l 347 1042 l 347 694 l 694 694 l 694 521 l 347 521 l 347 174 l 868 174 l 868 347 l 1215 347 l 1215 174 l 1042 174 z "},"є":{"ha":1389,"x_min":0,"x_max":1215,"o":"m 1042 174 l 1042 0 l 174 0 l 174 174 l 0 174 l 0 694 l 174 694 l 174 868 l 1042 868 l 1042 694 l 1215 694 l 1215 521 l 868 521 l 868 694 l 347 694 l 347 521 l 694 521 l 694 347 l 347 347 l 347 174 l 868 174 l 868 347 l 1215 347 l 1215 174 l 1042 174 z "},"Ї":{"ha":1389,"x_min":0,"x_max":1215,"o":"m 0 0 l 0 174 l 347 174 l 347 694 l 0 694 l 0 868 l 1215 868 l 1215 694 l 868 694 l 868 174 l 1215 174 l 1215 0 l 0 0 m 174 1042 l 174 1215 l 521 1215 l 521 1042 l 174 1042 m 694 1042 l 694 1215 l 1042 1215 l 1042 1042 l 694 1042 z "},"ї":{"ha":1389,"x_min":0,"x_max":1215,"o":"m 0 0 l 0 174 l 521 174 l 521 694 l 174 694 l 174 868 l 868 868 l 868 174 l 1215 174 l 1215 0 l 0 0 m 174 1042 l 174 1215 l 521 1215 l 521 1042 l 174 1042 m 694 1042 l 694 1215 l 1042 1215 l 1042 1042 l 694 1042 z "},"Ѕ":{"ha":1389,"x_min":0,"x_max":1215,"o":"m 174 174 l 0 174 l 0 347 l 347 347 l 347 174 l 868 174 l 868 521 l 174 521 l 174 694 l 0 694 l 0 1042 l 174 1042 l 174 1215 l 1042 1215 l 1042 1042 l 1215 1042 l 1215 868 l 868 868 l 868 1042 l 347 1042 l 347 694 l 1042 694 l 1042 521 l 1215 521 l 1215 174 l 1042 174 l 1042 0 l 174 0 l 174 174 z "},"ѕ":{"ha":1389,"x_min":0,"x_max":1215,"o":"m 0 0 l 0 174 l 868 174 l 868 347 l 0 347 l 0 694 l 174 694 l 174 868 l 1215 868 l 1215 694 l 347 694 l 347 521 l 1215 521 l 1215 174 l 1042 174 l 1042 0 l 0 0 z "},"Ѓ":{"ha":1389,"x_min":0,"x_max":1215,"o":"m 694 868 l 1215 868 l 1215 694 l 347 694 l 347 0 l 0 0 l 0 868 l 521 868 l 521 1042 l 694 1042 l 694 868 m 868 1042 l 694 1042 l 694 1215 l 868 1215 l 868 1042 z "},"ѓ":{"ha":1389,"x_min":0,"x_max":1215,"o":"m 0 0 l 0 694 l 1215 694 l 1215 521 l 347 521 l 347 0 l 0 0 m 694 868 l 521 868 l 521 1042 l 694 1042 l 694 868 m 868 1042 l 694 1042 l 694 1215 l 868 1215 l 868 1042 z "},"Ќ":{"ha":1389,"x_min":0,"x_max":1215,"o":"m 0 0 l 0 868 l 347 868 l 347 521 l 694 521 l 694 694 l 868 694 l 868 868 l 1215 868 l 1215 694 l 1042 694 l 1042 521 l 868 521 l 868 347 l 1042 347 l 1042 174 l 1215 174 l 1215 0 l 868 0 l 868 174 l 694 174 l 694 347 l 347 347 l 347 0 l 0 0 m 694 868 l 521 868 l 521 1042 l 694 1042 l 694 868 m 868 1042 l 694 1042 l 694 1215 l 868 1215 l 868 1042 z "},"ќ":{"ha":1389,"x_min":0,"x_max":1215,"o":"m 694 174 l 347 174 l 347 0 l 0 0 l 0 694 l 347 694 l 347 347 l 694 347 l 694 521 l 868 521 l 868 694 l 1215 694 l 1215 521 l 1042 521 l 1042 347 l 868 347 l 868 174 l 1215 174 l 1215 0 l 694 0 l 694 174 m 694 868 l 521 868 l 521 1042 l 694 1042 l 694 868 m 868 1042 l 694 1042 l 694 1215 l 868 1215 l 868 1042 z "},"Ѐ":{"ha":1389,"x_min":0,"x_max":1215,"o":"m 694 868 l 1215 868 l 1215 694 l 347 694 l 347 521 l 1042 521 l 1042 347 l 347 347 l 347 174 l 1215 174 l 1215 0 l 0 0 l 0 868 l 521 868 l 521 1042 l 694 1042 l 694 868 m 521 1042 l 347 1042 l 347 1215 l 521 1215 l 521 1042 z "},"ѐ":{"ha":1389,"x_min":0,"x_max":1215,"o":"m 868 521 l 868 694 l 347 694 l 347 521 l 868 521 m 694 868 l 1042 868 l 1042 694 l 1215 694 l 1215 347 l 347 347 l 347 174 l 1042 174 l 1042 0 l 174 0 l 174 174 l 0 174 l 0 694 l 174 694 l 174 868 l 521 868 l 521 1042 l 694 1042 l 694 868 m 521 1042 l 347 1042 l 347 1215 l 521 1215 l 521 1042 z "},"Α":{"ha":1389,"x_min":0,"x_max":1215,"o":"m 868 521 l 868 868 l 694 868 l 694 1042 l 521 1042 l 521 868 l 347 868 l 347 521 l 868 521 m 0 0 l 0 868 l 174 868 l 174 1042 l 347 1042 l 347 1215 l 868 1215 l 868 1042 l 1042 1042 l 1042 868 l 1215 868 l 1215 0 l 868 0 l 868 347 l 347 347 l 347 0 l 0 0 z "},"α":{"ha":1389,"x_min":0,"x_max":1215,"o":"m 1215 0 l 1042 0 l 1042 174 l 868 174 l 868 694 l 1042 694 l 1042 868 l 1215 868 l 1215 0 m 868 174 l 868 0 l 174 0 l 174 174 l 0 174 l 0 694 l 174 694 l 174 868 l 868 868 l 868 694 l 347 694 l 347 174 l 868 174 z "},"Β":{"ha":1389,"x_min":0,"x_max":1215,"o":"m 347 694 l 868 694 l 868 1042 l 347 1042 l 347 694 m 1042 521 l 1215 521 l 1215 174 l 1042 174 l 1042 0 l 0 0 l 0 1215 l 1042 1215 l 1042 1042 l 1215 1042 l 1215 694 l 1042 694 l 1042 521 m 868 174 l 868 521 l 347 521 l 347 174 l 868 174 z "},"β":{"ha":1389,"x_min":0,"x_max":1215,"o":"m 347 347 l 868 347 l 868 694 l 521 694 l 521 868 l 868 868 l 868 1042 l 347 1042 l 347 347 m 0 0 l 0 1042 l 174 1042 l 174 1215 l 1042 1215 l 1042 1042 l 1215 1042 l 1215 868 l 1042 868 l 1042 694 l 1215 694 l 1215 347 l 1042 347 l 1042 174 l 347 174 l 347 0 l 0 0 z "},"Γ":{"ha":1389,"x_min":0,"x_max":1215,"o":"m 0 0 l 0 1215 l 1215 1215 l 1215 1042 l 347 1042 l 347 0 l 0 0 z "},"γ":{"ha":1389,"x_min":0,"x_max":1215,"o":"m 174 521 l 0 521 l 0 868 l 347 868 l 347 521 l 868 521 l 868 868 l 1215 868 l 1215 521 l 1042 521 l 1042 347 l 868 347 l 868 0 l 347 0 l 347 347 l 174 347 l 174 521 z "},"Δ":{"ha":1389,"x_min":0,"x_max":1215,"o":"m 0 0 l 0 521 l 174 521 l 174 1042 l 347 1042 l 347 1215 l 868 1215 l 868 1042 l 1042 1042 l 1042 521 l 1215 521 l 1215 0 l 0 0 m 347 174 l 868 174 l 868 521 l 694 521 l 694 1042 l 521 1042 l 521 521 l 347 521 l 347 174 z "},"δ":{"ha":1389,"x_min":0,"x_max":1215,"o":"m 868 521 l 347 521 l 347 174 l 868 174 l 868 521 m 694 694 l 1042 694 l 1042 521 l 1215 521 l 1215 174 l 1042 174 l 1042 0 l 174 0 l 174 174 l 0 174 l 0 521 l 174 521 l 174 694 l 347 694 l 347 868 l 174 868 l 174 1042 l 0 1042 l 0 1215 l 1042 1215 l 1042 1042 l 521 1042 l 521 868 l 694 868 l 694 694 z "},"Ε":{"ha":1389,"x_min":0,"x_max":1215,"o":"m 0 0 l 0 1215 l 1215 1215 l 1215 1042 l 347 1042 l 347 694 l 1042 694 l 1042 521 l 347 521 l 347 174 l 1215 174 l 1215 0 l 0 0 z "},"ε":{"ha":1389,"x_min":0,"x_max":1215,"o":"m 1042 174 l 1042 0 l 174 0 l 174 174 l 0 174 l 0 347 l 174 347 l 174 521 l 0 521 l 0 694 l 174 694 l 174 868 l 1042 868 l 1042 694 l 1215 694 l 1215 521 l 868 521 l 868 694 l 347 694 l 347 521 l 694 521 l 694 347 l 347 347 l 347 174 l 868 174 l 868 347 l 1215 347 l 1215 174 l 1042 174 z "},"Ζ":{"ha":1389,"x_min":0,"x_max":1215,"o":"m 0 0 l 0 347 l 174 347 l 174 521 l 347 521 l 347 694 l 521 694 l 521 868 l 694 868 l 694 1042 l 0 1042 l 0 1215 l 1215 1215 l 1215 868 l 1042 868 l 1042 694 l 868 694 l 868 521 l 694 521 l 694 347 l 521 347 l 521 174 l 1215 174 l 1215 0 l 0 0 z "},"ζ":{"ha":1389,"x_min":0,"x_max":1215,"o":"m 0 347 l 0 694 l 174 694 l 174 868 l 521 868 l 521 1042 l 0 1042 l 0 1215 l 868 1215 l 868 868 l 694 868 l 694 694 l 347 694 l 347 521 l 1042 521 l 1042 347 l 1215 347 l 1215 174 l 1042 174 l 1042 0 l 521 0 l 521 174 l 868 174 l 868 347 l 0 347 z "},"Η":{"ha":1389,"x_min":0,"x_max":1215,"o":"m 0 0 l 0 1215 l 347 1215 l 347 694 l 868 694 l 868 1215 l 1215 1215 l 1215 0 l 868 0 l 868 521 l 347 521 l 347 0 l 0 0 z "},"η":{"ha":1389,"x_min":0,"x_max":1215,"o":"m 0 174 l 0 868 l 1042 868 l 1042 694 l 1215 694 l 1215 0 l 868 0 l 868 694 l 347 694 l 347 174 l 0 174 z "},"Θ":{"ha":1389,"x_min":0,"x_max":1215,"o":"m 347 521 l 347 694 l 868 694 l 868 521 l 347 521 m 174 174 l 0 174 l 0 1042 l 174 1042 l 174 1215 l 1042 1215 l 1042 1042 l 1215 1042 l 1215 174 l 1042 174 l 1042 0 l 174 0 l 174 174 m 174 347 l 347 347 l 347 174 l 868 174 l 868 347 l 1042 347 l 1042 868 l 868 868 l 868 1042 l 347 1042 l 347 868 l 174 868 l 174 347 z "},"θ":{"ha":1389,"x_min":0,"x_max":1215,"o":"m 347 347 l 347 174 l 868 174 l 868 347 l 347 347 m 868 521 l 868 694 l 347 694 l 347 521 l 868 521 m 174 174 l 0 174 l 0 694 l 174 694 l 174 868 l 1042 868 l 1042 694 l 1215 694 l 1215 174 l 1042 174 l 1042 0 l 174 0 l 174 174 z "},"Ι":{"ha":1389,"x_min":174,"x_max":1215,"o":"m 174 0 l 174 174 l 521 174 l 521 1042 l 174 1042 l 174 1215 l 1215 1215 l 1215 1042 l 868 1042 l 868 174 l 1215 174 l 1215 0 l 174 0 z "},"ι":{"ha":1389,"x_min":174,"x_max":1215,"o":"m 521 0 l 521 694 l 174 694 l 174 868 l 868 868 l 868 174 l 1215 174 l 1215 0 l 521 0 z "},"Κ":{"ha":1389,"x_min":0,"x_max":1215,"o":"m 0 0 l 0 1215 l 347 1215 l 347 694 l 521 694 l 521 868 l 694 868 l 694 1042 l 868 1042 l 868 1215 l 1215 1215 l 1215 1042 l 1042 1042 l 1042 868 l 868 868 l 868 694 l 694 694 l 694 521 l 868 521 l 868 347 l 1042 347 l 1042 174 l 1215 174 l 1215 0 l 868 0 l 868 174 l 694 174 l 694 347 l 521 347 l 521 521 l 347 521 l 347 0 l 0 0 z "},"κ":{"ha":1389,"x_min":0,"x_max":1215,"o":"m 0 0 l 0 868 l 347 868 l 347 521 l 694 521 l 694 694 l 868 694 l 868 868 l 1215 868 l 1215 694 l 1042 694 l 1042 521 l 868 521 l 868 347 l 1042 347 l 1042 174 l 1215 174 l 1215 0 l 868 0 l 868 174 l 694 174 l 694 347 l 347 347 l 347 0 l 0 0 z "},"Λ":{"ha":1389,"x_min":0,"x_max":1215,"o":"m 0 0 l 0 521 l 174 521 l 174 868 l 347 868 l 347 1215 l 868 1215 l 868 868 l 1042 868 l 1042 521 l 1215 521 l 1215 0 l 868 0 l 868 521 l 694 521 l 694 868 l 521 868 l 521 521 l 347 521 l 347 0 l 0 0 z "},"λ":{"ha":1389,"x_min":0,"x_max":1215,"o":"m 0 0 l 0 347 l 174 347 l 174 521 l 347 521 l 347 868 l 174 868 l 174 1042 l 0 1042 l 0 1215 l 347 1215 l 347 1042 l 521 1042 l 521 868 l 694 868 l 694 694 l 868 694 l 868 521 l 1042 521 l 1042 347 l 1215 347 l 1215 0 l 868 0 l 868 347 l 694 347 l 694 521 l 521 521 l 521 347 l 347 347 l 347 0 l 0 0 z "},"Μ":{"ha":1389,"x_min":0,"x_max":1215,"o":"m 0 0 l 0 1215 l 347 1215 l 347 1042 l 521 1042 l 521 868 l 694 868 l 694 1042 l 868 1042 l 868 1215 l 1215 1215 l 1215 0 l 868 0 l 868 694 l 694 694 l 694 521 l 521 521 l 521 694 l 347 694 l 347 0 l 0 0 z "},"μ":{"ha":1389,"x_min":0,"x_max":1215,"o":"m 347 0 l 0 0 l 0 868 l 347 868 l 347 347 l 868 347 l 868 868 l 1215 868 l 1215 347 l 1042 347 l 1042 174 l 347 174 l 347 0 z "},"Ν":{"ha":1389,"x_min":0,"x_max":1215,"o":"m 0 0 l 0 1215 l 347 1215 l 347 1042 l 521 1042 l 521 868 l 694 868 l 694 694 l 868 694 l 868 1215 l 1215 1215 l 1215 0 l 868 0 l 868 347 l 694 347 l 694 521 l 521 521 l 521 694 l 347 694 l 347 0 l 0 0 z "},"ν":{"ha":1389,"x_min":0,"x_max":1215,"o":"m 174 521 l 0 521 l 0 868 l 347 868 l 347 521 l 521 521 l 521 347 l 694 347 l 694 521 l 868 521 l 868 868 l 1215 868 l 1215 521 l 1042 521 l 1042 347 l 868 347 l 868 174 l 694 174 l 694 0 l 521 0 l 521 174 l 347 174 l 347 347 l 174 347 l 174 521 z "},"Ξ":{"ha":1389,"x_min":0,"x_max":1215,"o":"m 0 0 l 0 174 l 1215 174 l 1215 0 l 0 0 m 0 1042 l 0 1215 l 1215 1215 l 1215 1042 l 0 1042 m 174 521 l 174 694 l 1042 694 l 1042 521 l 174 521 z "},"ξ":{"ha":1389,"x_min":0,"x_max":1215,"o":"m 174 521 l 0 521 l 0 694 l 174 694 l 174 868 l 0 868 l 0 1042 l 174 1042 l 174 1215 l 868 1215 l 868 1042 l 347 1042 l 347 868 l 694 868 l 694 694 l 347 694 l 347 521 l 1042 521 l 1042 347 l 1215 347 l 1215 174 l 1042 174 l 1042 0 l 694 0 l 694 174 l 868 174 l 868 347 l 174 347 l 174 521 z "},"Ο":{"ha":1389,"x_min":0,"x_max":1215,"o":"m 174 174 l 0 174 l 0 1042 l 174 1042 l 174 1215 l 1042 1215 l 1042 1042 l 1215 1042 l 1215 174 l 1042 174 l 1042 0 l 174 0 l 174 174 m 347 174 l 868 174 l 868 1042 l 347 1042 l 347 174 z "},"ο":{"ha":1389,"x_min":0,"x_max":1215,"o":"m 174 174 l 0 174 l 0 694 l 174 694 l 174 868 l 1042 868 l 1042 694 l 1215 694 l 1215 174 l 1042 174 l 1042 0 l 174 0 l 174 174 m 868 694 l 347 694 l 347 174 l 868 174 l 868 694 z "},"Π":{"ha":1389,"x_min":0,"x_max":1215,"o":"m 0 0 l 0 1215 l 1215 1215 l 1215 0 l 868 0 l 868 1042 l 347 1042 l 347 0 l 0 0 z "},"π":{"ha":1389,"x_min":0,"x_max":1215,"o":"m 521 694 l 521 0 l 174 0 l 174 694 l 0 694 l 0 868 l 1215 868 l 1215 694 l 1042 694 l 1042 0 l 694 0 l 694 694 l 521 694 z "},"Ρ":{"ha":1389,"x_min":0,"x_max":1215,"o":"m 1042 1042 l 1215 1042 l 1215 694 l 1042 694 l 1042 521 l 347 521 l 347 0 l 0 0 l 0 1215 l 1042 1215 l 1042 1042 m 868 694 l 868 1042 l 347 1042 l 347 694 l 868 694 z "},"ρ":{"ha":1389,"x_min":0,"x_max":1215,"o":"m 0 0 l 0 694 l 174 694 l 174 868 l 1042 868 l 1042 694 l 1215 694 l 1215 347 l 1042 347 l 1042 174 l 347 174 l 347 0 l 0 0 m 347 347 l 868 347 l 868 694 l 347 694 l 347 347 z "},"Σ":{"ha":1389,"x_min":0,"x_max":1215,"o":"m 0 0 l 0 174 l 174 174 l 174 347 l 347 347 l 347 521 l 521 521 l 521 694 l 347 694 l 347 868 l 174 868 l 174 1042 l 0 1042 l 0 1215 l 1215 1215 l 1215 1042 l 521 1042 l 521 868 l 694 868 l 694 694 l 868 694 l 868 521 l 694 521 l 694 347 l 521 347 l 521 174 l 1215 174 l 1215 0 l 0 0 z "},"σ":{"ha":1389,"x_min":0,"x_max":1215,"o":"m 174 174 l 0 174 l 0 694 l 174 694 l 174 868 l 1215 868 l 1215 694 l 1042 694 l 1042 174 l 868 174 l 868 0 l 174 0 l 174 174 m 347 174 l 694 174 l 694 694 l 347 694 l 347 174 z "},"ς":{"ha":1389,"x_min":0,"x_max":1215,"o":"m 174 521 l 0 521 l 0 694 l 174 694 l 174 868 l 1215 868 l 1215 694 l 347 694 l 347 521 l 1042 521 l 1042 347 l 1215 347 l 1215 174 l 1042 174 l 1042 0 l 521 0 l 521 174 l 868 174 l 868 347 l 174 347 l 174 521 z "},"Τ":{"ha":1389,"x_min":174,"x_max":1215,"o":"m 174 1042 l 174 1215 l 1215 1215 l 1215 1042 l 868 1042 l 868 0 l 521 0 l 521 1042 l 174 1042 z "},"τ":{"ha":1389,"x_min":174,"x_max":1215,"o":"m 174 694 l 174 868 l 1215 868 l 1215 694 l 868 694 l 868 0 l 521 0 l 521 694 l 174 694 z "},"Υ":{"ha":1389,"x_min":174,"x_max":1215,"o":"m 347 694 l 174 694 l 174 1215 l 521 1215 l 521 694 l 868 694 l 868 1215 l 1215 1215 l 1215 694 l 1042 694 l 1042 521 l 868 521 l 868 0 l 521 0 l 521 521 l 347 521 l 347 694 z "},"υ":{"ha":1389,"x_min":0,"x_max":1215,"o":"m 174 174 l 0 174 l 0 868 l 347 868 l 347 174 l 868 174 l 868 868 l 1215 868 l 1215 174 l 1042 174 l 1042 0 l 174 0 l 174 174 z "},"Φ":{"ha":1389,"x_min":0,"x_max":1215,"o":"m 174 347 l 0 347 l 0 868 l 174 868 l 174 1042 l 521 1042 l 521 1215 l 694 1215 l 694 1042 l 1042 1042 l 1042 868 l 1215 868 l 1215 347 l 1042 347 l 1042 174 l 694 174 l 694 0 l 521 0 l 521 174 l 174 174 l 174 347 m 694 347 l 868 347 l 868 868 l 694 868 l 694 347 m 347 347 l 521 347 l 521 868 l 347 868 l 347 347 z "},"φ":{"ha":1389,"x_min":0,"x_max":1215,"o":"m 694 347 l 868 347 l 868 694 l 694 694 l 694 347 m 521 868 l 1042 868 l 1042 694 l 1215 694 l 1215 347 l 1042 347 l 1042 174 l 694 174 l 694 0 l 521 0 l 521 174 l 174 174 l 174 347 l 0 347 l 0 694 l 174 694 l 174 868 l 347 868 l 347 347 l 521 347 l 521 868 z "},"Χ":{"ha":1389,"x_min":0,"x_max":1215,"o":"m 0 0 l 0 347 l 174 347 l 174 521 l 347 521 l 347 694 l 174 694 l 174 868 l 0 868 l 0 1215 l 347 1215 l 347 1042 l 521 1042 l 521 868 l 694 868 l 694 1042 l 868 1042 l 868 1215 l 1215 1215 l 1215 868 l 1042 868 l 1042 694 l 868 694 l 868 521 l 1042 521 l 1042 347 l 1215 347 l 1215 0 l 868 0 l 868 174 l 694 174 l 694 347 l 521 347 l 521 174 l 347 174 l 347 0 l 0 0 z "},"χ":{"ha":1389,"x_min":0,"x_max":1215,"o":"m 0 0 l 0 174 l 174 174 l 174 347 l 347 347 l 347 521 l 174 521 l 174 694 l 0 694 l 0 868 l 521 868 l 521 694 l 694 694 l 694 868 l 1215 868 l 1215 694 l 1042 694 l 1042 521 l 868 521 l 868 347 l 1042 347 l 1042 174 l 1215 174 l 1215 0 l 694 0 l 694 174 l 521 174 l 521 0 l 0 0 z "},"Ψ":{"ha":1389,"x_min":0,"x_max":1215,"o":"m 174 694 l 0 694 l 0 1215 l 347 1215 l 347 694 l 521 694 l 521 1215 l 694 1215 l 694 694 l 868 694 l 868 1215 l 1215 1215 l 1215 694 l 1042 694 l 1042 521 l 868 521 l 868 347 l 694 347 l 694 0 l 521 0 l 521 347 l 347 347 l 347 521 l 174 521 l 174 694 z "},"ψ":{"ha":1389,"x_min":0,"x_max":1215,"o":"m 174 521 l 0 521 l 0 868 l 347 868 l 347 521 l 521 521 l 521 868 l 694 868 l 694 521 l 868 521 l 868 868 l 1215 868 l 1215 521 l 1042 521 l 1042 347 l 694 347 l 694 0 l 521 0 l 521 347 l 174 347 l 174 521 z "},"Ω":{"ha":1389,"x_min":0,"x_max":1215,"o":"m 0 0 l 0 174 l 174 174 l 174 347 l 0 347 l 0 1042 l 174 1042 l 174 1215 l 1042 1215 l 1042 1042 l 1215 1042 l 1215 347 l 1042 347 l 1042 174 l 1215 174 l 1215 0 l 694 0 l 694 347 l 868 347 l 868 1042 l 347 1042 l 347 347 l 521 347 l 521 0 l 0 0 z "},"ω":{"ha":1389,"x_min":0,"x_max":1215,"o":"m 174 347 l 0 347 l 0 694 l 174 694 l 174 868 l 347 868 l 347 347 l 521 347 l 521 694 l 694 694 l 694 347 l 868 347 l 868 868 l 1042 868 l 1042 694 l 1215 694 l 1215 347 l 1042 347 l 1042 174 l 868 174 l 868 0 l 694 0 l 694 174 l 521 174 l 521 0 l 347 0 l 347 174 l 174 174 l 174 347 z "},"Ϊ":{"ha":1389,"x_min":0,"x_max":1215,"o":"m 0 0 l 0 174 l 347 174 l 347 694 l 0 694 l 0 868 l 1215 868 l 1215 694 l 868 694 l 868 174 l 1215 174 l 1215 0 l 0 0 m 174 1042 l 174 1215 l 521 1215 l 521 1042 l 174 1042 m 694 1042 l 694 1215 l 1042 1215 l 1042 1042 l 694 1042 z "},"ϊ":{"ha":1389,"x_min":174,"x_max":1215,"o":"m 521 0 l 521 694 l 174 694 l 174 868 l 868 868 l 868 174 l 1215 174 l 1215 0 l 521 0 m 174 1042 l 174 1215 l 521 1215 l 521 1042 l 174 1042 m 694 1042 l 694 1215 l 1042 1215 l 1042 1042 l 694 1042 z "},"Ϋ":{"ha":1389,"x_min":0,"x_max":1215,"o":"m 174 521 l 0 521 l 0 868 l 347 868 l 347 521 l 868 521 l 868 868 l 1215 868 l 1215 521 l 1042 521 l 1042 347 l 868 347 l 868 0 l 347 0 l 347 347 l 174 347 l 174 521 m 174 1042 l 174 1215 l 521 1215 l 521 1042 l 174 1042 m 694 1042 l 694 1215 l 1042 1215 l 1042 1042 l 694 1042 z "},"ϋ":{"ha":1389,"x_min":0,"x_max":1215,"o":"m 174 174 l 0 174 l 0 694 l 347 694 l 347 174 l 868 174 l 868 694 l 1215 694 l 1215 174 l 1042 174 l 1042 0 l 174 0 l 174 174 m 174 868 l 174 1042 l 521 1042 l 521 868 l 174 868 m 694 868 l 694 1042 l 1042 1042 l 1042 868 l 694 868 z "},"Ά":{"ha":1389,"x_min":0,"x_max":1215,"o":"m 868 521 l 868 868 l 521 868 l 521 521 l 868 521 m 174 0 l 174 868 l 347 868 l 347 1042 l 521 1042 l 521 1215 l 868 1215 l 868 1042 l 1042 1042 l 1042 868 l 1215 868 l 1215 0 l 868 0 l 868 347 l 521 347 l 521 0 l 174 0 m 174 868 l 0 868 l 0 1215 l 174 1215 l 174 868 z "},"ά":{"ha":1389,"x_min":0,"x_max":1215,"o":"m 1215 0 l 1042 0 l 1042 174 l 868 174 l 868 521 l 1042 521 l 1042 694 l 1215 694 l 1215 0 m 868 174 l 868 0 l 174 0 l 174 174 l 0 174 l 0 521 l 174 521 l 174 694 l 868 694 l 868 521 l 347 521 l 347 174 l 868 174 m 694 868 l 521 868 l 521 1042 l 694 1042 l 694 868 m 868 1042 l 694 1042 l 694 1215 l 868 1215 l 868 1042 z "},"Έ":{"ha":1389,"x_min":0,"x_max":1215,"o":"m 347 0 l 347 1215 l 1215 1215 l 1215 1042 l 694 1042 l 694 694 l 1042 694 l 1042 521 l 694 521 l 694 174 l 1215 174 l 1215 0 l 347 0 m 174 868 l 0 868 l 0 1215 l 174 1215 l 174 868 z "},"έ":{"ha":1389,"x_min":0,"x_max":1215,"o":"m 694 868 l 1042 868 l 1042 694 l 1215 694 l 1215 521 l 868 521 l 868 694 l 347 694 l 347 521 l 694 521 l 694 347 l 347 347 l 347 174 l 868 174 l 868 347 l 1215 347 l 1215 174 l 1042 174 l 1042 0 l 174 0 l 174 174 l 0 174 l 0 347 l 174 347 l 174 521 l 0 521 l 0 694 l 174 694 l 174 868 l 521 868 l 521 1042 l 694 1042 l 694 868 m 868 1042 l 694 1042 l 694 1215 l 868 1215 l 868 1042 z "},"Ή":{"ha":1389,"x_min":0,"x_max":1215,"o":"m 347 0 l 347 1215 l 694 1215 l 694 694 l 868 694 l 868 1215 l 1215 1215 l 1215 0 l 868 0 l 868 521 l 694 521 l 694 0 l 347 0 m 174 868 l 0 868 l 0 1215 l 174 1215 l 174 868 z "},"ή":{"ha":1389,"x_min":0,"x_max":1215,"o":"m 0 174 l 0 694 l 1042 694 l 1042 521 l 1215 521 l 1215 0 l 868 0 l 868 521 l 347 521 l 347 174 l 0 174 m 694 868 l 521 868 l 521 1042 l 694 1042 l 694 868 m 868 1042 l 694 1042 l 694 1215 l 868 1215 l 868 1042 z "},"Ί":{"ha":1389,"x_min":0,"x_max":1215,"o":"m 174 0 l 174 174 l 521 174 l 521 1042 l 347 1042 l 347 1215 l 1215 1215 l 1215 1042 l 868 1042 l 868 174 l 1215 174 l 1215 0 l 174 0 m 174 868 l 0 868 l 0 1215 l 174 1215 l 174 868 z "},"ί":{"ha":1389,"x_min":174,"x_max":1215,"o":"m 521 0 l 521 521 l 174 521 l 174 694 l 868 694 l 868 174 l 1215 174 l 1215 0 l 521 0 m 694 868 l 521 868 l 521 1042 l 694 1042 l 694 868 m 868 1042 l 694 1042 l 694 1215 l 868 1215 l 868 1042 z "},"Ό":{"ha":1389,"x_min":0,"x_max":1215,"o":"m 521 174 l 347 174 l 347 1042 l 521 1042 l 521 1215 l 1042 1215 l 1042 1042 l 1215 1042 l 1215 174 l 1042 174 l 1042 0 l 521 0 l 521 174 m 694 174 l 868 174 l 868 1042 l 694 1042 l 694 174 m 174 868 l 0 868 l 0 1215 l 174 1215 l 174 868 z "},"ό":{"ha":1389,"x_min":0,"x_max":1215,"o":"m 174 174 l 0 174 l 0 521 l 174 521 l 174 694 l 1042 694 l 1042 521 l 1215 521 l 1215 174 l 1042 174 l 1042 0 l 174 0 l 174 174 m 868 521 l 347 521 l 347 174 l 868 174 l 868 521 m 694 868 l 521 868 l 521 1042 l 694 1042 l 694 868 m 868 1042 l 694 1042 l 694 1215 l 868 1215 l 868 1042 z "},"Ύ":{"ha":1389,"x_min":0,"x_max":1215,"o":"m 521 694 l 347 694 l 347 1215 l 694 1215 l 694 694 l 868 694 l 868 1215 l 1215 1215 l 1215 694 l 1042 694 l 1042 521 l 868 521 l 868 0 l 694 0 l 694 521 l 521 521 l 521 694 m 174 868 l 0 868 l 0 1215 l 174 1215 l 174 868 z "},"ύ":{"ha":1389,"x_min":0,"x_max":1215,"o":"m 174 174 l 0 174 l 0 868 l 347 868 l 347 174 l 868 174 l 868 868 l 1215 868 l 1215 174 l 1042 174 l 1042 0 l 174 0 l 174 174 m 694 868 l 521 868 l 521 1042 l 694 1042 l 694 868 m 868 1042 l 694 1042 l 694 1215 l 868 1215 l 868 1042 z "},"Ώ":{"ha":1389,"x_min":0,"x_max":1215,"o":"m 347 0 l 347 174 l 521 174 l 521 347 l 347 347 l 347 1042 l 521 1042 l 521 1215 l 1042 1215 l 1042 1042 l 1215 1042 l 1215 347 l 1042 347 l 1042 174 l 1215 174 l 1215 0 l 868 0 l 868 1042 l 694 1042 l 694 0 l 347 0 m 174 868 l 0 868 l 0 1215 l 174 1215 l 174 868 z "},"ώ":{"ha":1389,"x_min":0,"x_max":1215,"o":"m 174 347 l 0 347 l 0 694 l 174 694 l 174 868 l 347 868 l 347 347 l 521 347 l 521 694 l 694 694 l 694 347 l 868 347 l 868 868 l 1042 868 l 1042 694 l 1215 694 l 1215 347 l 1042 347 l 1042 174 l 868 174 l 868 0 l 694 0 l 694 174 l 521 174 l 521 0 l 347 0 l 347 174 l 174 174 l 174 347 m 694 868 l 521 868 l 521 1042 l 694 1042 l 694 868 m 868 1042 l 694 1042 l 694 1215 l 868 1215 l 868 1042 z "},"ΐ":{"ha":1389,"x_min":174,"x_max":1215,"o":"m 521 0 l 521 521 l 174 521 l 174 694 l 868 694 l 868 174 l 1215 174 l 1215 0 l 521 0 m 694 868 l 521 868 l 521 1215 l 694 1215 l 694 868 m 1042 868 l 868 868 l 868 1042 l 1042 1042 l 1042 868 m 347 868 l 174 868 l 174 1042 l 347 1042 l 347 868 z "},"ΰ":{"ha":1389,"x_min":0,"x_max":1215,"o":"m 174 174 l 0 174 l 0 694 l 347 694 l 347 174 l 868 174 l 868 694 l 1215 694 l 1215 174 l 1042 174 l 1042 0 l 174 0 l 174 174 m 694 868 l 521 868 l 521 1215 l 694 1215 l 694 868 m 1042 868 l 868 868 l 868 1042 l 1042 1042 l 1042 868 m 347 868 l 174 868 l 174 1042 l 347 1042 l 347 868 z "},"ὴ":{"ha":1389,"x_min":0,"x_max":1215,"o":"m 0 174 l 0 694 l 1042 694 l 1042 521 l 1215 521 l 1215 0 l 868 0 l 868 521 l 347 521 l 347 174 l 0 174 m 694 868 l 521 868 l 521 1042 l 694 1042 l 694 868 m 521 1042 l 347 1042 l 347 1215 l 521 1215 l 521 1042 z "},"ῆ":{"ha":1389,"x_min":0,"x_max":1215,"o":"m 0 174 l 0 694 l 1042 694 l 1042 521 l 1215 521 l 1215 0 l 868 0 l 868 521 l 347 521 l 347 174 l 0 174 m 868 1042 l 868 868 l 694 868 l 694 1042 l 868 1042 m 521 1042 l 521 868 l 347 868 l 347 1042 l 521 1042 m 694 1042 l 521 1042 l 521 1215 l 694 1215 l 694 1042 m 868 1042 l 868 1215 l 1042 1215 l 1042 1042 l 868 1042 z "},"ῶ":{"ha":1389,"x_min":0,"x_max":1215,"o":"m 174 347 l 0 347 l 0 521 l 174 521 l 174 694 l 347 694 l 347 347 l 521 347 l 521 521 l 694 521 l 694 347 l 868 347 l 868 694 l 1042 694 l 1042 521 l 1215 521 l 1215 347 l 1042 347 l 1042 174 l 868 174 l 868 0 l 694 0 l 694 174 l 521 174 l 521 0 l 347 0 l 347 174 l 174 174 l 174 347 m 868 1042 l 868 868 l 694 868 l 694 1042 l 868 1042 m 521 1042 l 521 868 l 347 868 l 347 1042 l 521 1042 m 694 1042 l 521 1042 l 521 1215 l 694 1215 l 694 1042 m 868 1042 l 868 1215 l 1042 1215 l 1042 1042 l 868 1042 z "},"ὸ":{"ha":1389,"x_min":0,"x_max":1215,"o":"m 174 174 l 0 174 l 0 521 l 174 521 l 174 694 l 1042 694 l 1042 521 l 1215 521 l 1215 174 l 1042 174 l 1042 0 l 174 0 l 174 174 m 868 521 l 347 521 l 347 174 l 868 174 l 868 521 m 694 868 l 521 868 l 521 1042 l 694 1042 l 694 868 m 521 1042 l 347 1042 l 347 1215 l 521 1215 l 521 1042 z "},"☡":{"ha":1389,"x_min":0,"x_max":1215,"o":"m 868 1215 l 868 174 l 1215 174 l 1215 0 l 521 0 l 521 868 l 347 868 l 347 0 l 0 0 l 0 868 l 174 868 l 174 1042 l 347 1042 l 347 1215 l 868 1215 z "},"√":{"ha":1389,"x_min":0,"x_max":1215,"o":"m 174 521 l 0 521 l 0 694 l 347 694 l 347 347 l 521 347 l 521 174 l 694 174 l 694 694 l 868 694 l 868 1215 l 1215 1215 l 1215 694 l 1042 694 l 1042 174 l 868 174 l 868 0 l 347 0 l 347 174 l 174 174 l 174 521 z "},"∞":{"ha":1389,"x_min":0,"x_max":1215,"o":"m 174 347 l 0 347 l 0 521 l 174 521 l 174 347 m 521 694 l 521 521 l 174 521 l 174 694 l 521 694 m 1042 694 l 1042 521 l 694 521 l 694 694 l 1042 694 m 1215 347 l 1042 347 l 1042 521 l 1215 521 l 1215 347 m 694 347 l 521 347 l 521 521 l 694 521 l 694 347 m 521 347 l 521 174 l 174 174 l 174 347 l 521 347 m 1042 347 l 1042 174 l 694 174 l 694 347 l 1042 347 z "},"№":{"ha":1389,"x_min":0,"x_max":1215,"o":"m 868 0 l 868 174 l 1215 174 l 1215 0 l 868 0 m 694 0 l 521 0 l 521 521 l 347 521 l 347 694 l 521 694 l 521 1215 l 694 1215 l 694 0 m 1215 347 l 868 347 l 868 694 l 1215 694 l 1215 347 m 174 0 l 0 0 l 0 1215 l 174 1215 l 174 868 l 347 868 l 347 694 l 174 694 l 174 0 z "},"Ω":{"ha":1389,"x_min":0,"x_max":1215,"o":"m 0 0 l 0 174 l 174 174 l 174 347 l 0 347 l 0 1042 l 174 1042 l 174 1215 l 1042 1215 l 1042 1042 l 1215 1042 l 1215 347 l 1042 347 l 1042 174 l 1215 174 l 1215 0 l 694 0 l 694 347 l 868 347 l 868 1042 l 347 1042 l 347 347 l 521 347 l 521 0 l 0 0 z "},"ⅎ":{"ha":1389,"x_min":0,"x_max":1215,"o":"m 1215 868 l 1215 0 l 0 0 l 0 174 l 868 174 l 868 347 l 347 347 l 347 521 l 868 521 l 868 868 l 1215 868 z "},"ↄ":{"ha":1389,"x_min":0,"x_max":1215,"o":"m 1042 174 l 1042 0 l 174 0 l 174 174 l 0 174 l 0 347 l 347 347 l 347 174 l 868 174 l 868 694 l 347 694 l 347 521 l 0 521 l 0 694 l 174 694 l 174 868 l 1042 868 l 1042 694 l 1215 694 l 1215 174 l 1042 174 z "},"ª":{"ha":1389,"x_min":0,"x_max":1215,"o":"m 174 521 l 0 521 l 0 694 l 174 694 l 174 868 l 868 868 l 868 1042 l 174 1042 l 174 1215 l 1042 1215 l 1042 1042 l 1215 1042 l 1215 347 l 174 347 l 174 521 m 347 521 l 868 521 l 868 694 l 347 694 l 347 521 z "},"º":{"ha":1389,"x_min":0,"x_max":1215,"o":"m 174 521 l 0 521 l 0 1042 l 174 1042 l 174 1215 l 1042 1215 l 1042 1042 l 1215 1042 l 1215 521 l 1042 521 l 1042 347 l 174 347 l 174 521 m 868 1042 l 347 1042 l 347 521 l 868 521 l 868 1042 z "},"¹":{"ha":1389,"x_min":174,"x_max":1215,"o":"m 174 347 l 174 521 l 521 521 l 521 1042 l 174 1042 l 174 1215 l 868 1215 l 868 521 l 1215 521 l 1215 347 l 174 347 z "},"²":{"ha":1389,"x_min":0,"x_max":1215,"o":"m 174 347 l 174 521 l 347 521 l 347 694 l 521 694 l 521 868 l 868 868 l 868 1042 l 347 1042 l 347 868 l 0 868 l 0 1042 l 174 1042 l 174 1215 l 1042 1215 l 1042 1042 l 1215 1042 l 1215 868 l 1042 868 l 1042 694 l 694 694 l 694 521 l 1215 521 l 1215 347 l 174 347 z "},"³":{"ha":1389,"x_min":0,"x_max":1215,"o":"m 174 521 l 0 521 l 0 694 l 347 694 l 347 521 l 868 521 l 868 694 l 521 694 l 521 868 l 868 868 l 868 1042 l 347 1042 l 347 868 l 0 868 l 0 1042 l 174 1042 l 174 1215 l 1042 1215 l 1042 1042 l 1215 1042 l 1215 868 l 1042 868 l 1042 694 l 1215 694 l 1215 521 l 1042 521 l 1042 347 l 174 347 l 174 521 z "},"Ә":{"ha":1389,"x_min":0,"x_max":1215,"o":"m 174 347 l 0 347 l 0 694 l 868 694 l 868 868 l 694 868 l 694 1042 l 347 1042 l 347 868 l 0 868 l 0 1042 l 174 1042 l 174 1215 l 868 1215 l 868 1042 l 1042 1042 l 1042 868 l 1215 868 l 1215 347 l 1042 347 l 1042 174 l 868 174 l 868 0 l 347 0 l 347 174 l 174 174 l 174 347 m 521 174 l 694 174 l 694 347 l 868 347 l 868 521 l 347 521 l 347 347 l 521 347 l 521 174 z "},"ә":{"ha":1389,"x_min":0,"x_max":1215,"o":"m 868 174 l 868 347 l 347 347 l 347 174 l 868 174 m 174 174 l 0 174 l 0 521 l 868 521 l 868 694 l 0 694 l 0 868 l 1042 868 l 1042 694 l 1215 694 l 1215 174 l 1042 174 l 1042 0 l 174 0 l 174 174 z "},"Ӗ":{"ha":1389,"x_min":0,"x_max":1215,"o":"m 868 868 l 1215 868 l 1215 694 l 347 694 l 347 521 l 868 521 l 868 347 l 347 347 l 347 174 l 1215 174 l 1215 0 l 0 0 l 0 868 l 347 868 l 347 1215 l 521 1215 l 521 1042 l 694 1042 l 694 1215 l 868 1215 l 868 868 z "},"ӗ":{"ha":1389,"x_min":0,"x_max":1215,"o":"m 868 521 l 868 694 l 347 694 l 347 521 l 868 521 m 868 868 l 1042 868 l 1042 694 l 1215 694 l 1215 347 l 347 347 l 347 174 l 1042 174 l 1042 0 l 174 0 l 174 174 l 0 174 l 0 694 l 174 694 l 174 868 l 347 868 l 347 1215 l 521 1215 l 521 1042 l 694 1042 l 694 1215 l 868 1215 l 868 868 z "}}}
